G04 EAGLE Gerber X2 export*
%TF.Part,Single*%
%TF.FileFunction,Soldermask,Bot,1*%
%TF.FilePolarity,Negative*%
%TF.GenerationSoftware,Autodesk,EAGLE,9.1.2*%
%TF.CreationDate,2018-09-23T16:06:24Z*%
G75*
%MOMM*%
%FSLAX34Y34*%
%LPD*%
%AMOC8*
5,1,8,0,0,1.08239X$1,22.5*%
G01*
%ADD10C,2.006600*%
%ADD11C,4.114800*%
%ADD12C,1.828800*%
%ADD13C,2.374900*%
%ADD14C,1.612900*%
%ADD15R,1.612900X1.612900*%
%ADD16C,0.685800*%


D10*
X493800Y737000D03*
X493800Y711600D03*
X493800Y686200D03*
X493800Y660800D03*
X493800Y635400D03*
X493800Y610000D03*
X493800Y584600D03*
X493800Y559200D03*
X493800Y533800D03*
X493800Y508400D03*
X493800Y483000D03*
X493800Y457600D03*
X646200Y457600D03*
X646200Y483000D03*
X646200Y508400D03*
X646200Y533800D03*
X646200Y559200D03*
X646200Y584600D03*
X646200Y610000D03*
X646200Y635400D03*
X646200Y660800D03*
X646200Y686200D03*
X646200Y711600D03*
X646200Y737000D03*
X275000Y178100D03*
X275000Y101900D03*
X418100Y435000D03*
X341900Y435000D03*
X608100Y425000D03*
X531900Y425000D03*
X798100Y435000D03*
X721900Y435000D03*
X228100Y625000D03*
X151900Y625000D03*
X418100Y625000D03*
X341900Y625000D03*
X608100Y625000D03*
X531900Y625000D03*
X798100Y625000D03*
X721900Y625000D03*
X465000Y178100D03*
X465000Y101900D03*
X655000Y178100D03*
X655000Y101900D03*
X675000Y246900D03*
X675000Y323100D03*
X223100Y245000D03*
X146900Y245000D03*
X418100Y245000D03*
X341900Y245000D03*
X608100Y245000D03*
X531900Y245000D03*
X798100Y245000D03*
X721900Y245000D03*
X228100Y435000D03*
X151900Y435000D03*
X465000Y576900D03*
X465000Y653100D03*
X465000Y386900D03*
X465000Y463100D03*
X675000Y653100D03*
X675000Y576900D03*
X675000Y463100D03*
X675000Y386900D03*
D11*
X190000Y140000D03*
D12*
X139200Y140000D03*
X240800Y140000D03*
D13*
X215400Y190800D03*
X151900Y165400D03*
D14*
X177300Y89200D03*
D15*
X202700Y89200D03*
D11*
X380000Y520000D03*
D12*
X329200Y520000D03*
X430800Y520000D03*
D13*
X405400Y570800D03*
X341900Y545400D03*
D14*
X367300Y469200D03*
D15*
X392700Y469200D03*
D11*
X570000Y520000D03*
D12*
X519200Y520000D03*
X620800Y520000D03*
D13*
X595400Y570800D03*
X531900Y545400D03*
D14*
X557300Y469200D03*
D15*
X582700Y469200D03*
D11*
X760000Y520000D03*
D12*
X709200Y520000D03*
X810800Y520000D03*
D13*
X785400Y570800D03*
X721900Y545400D03*
D14*
X747300Y469200D03*
D15*
X772700Y469200D03*
D11*
X190000Y710000D03*
D12*
X139200Y710000D03*
X240800Y710000D03*
D13*
X215400Y760800D03*
X151900Y735400D03*
D14*
X177300Y659200D03*
D15*
X202700Y659200D03*
D11*
X380000Y710000D03*
D12*
X329200Y710000D03*
X430800Y710000D03*
D13*
X405400Y760800D03*
X341900Y735400D03*
D14*
X367300Y659200D03*
D15*
X392700Y659200D03*
D11*
X570000Y710000D03*
D12*
X519200Y710000D03*
X620800Y710000D03*
D13*
X595400Y760800D03*
X531900Y735400D03*
D14*
X557300Y659200D03*
D15*
X582700Y659200D03*
D11*
X760000Y710000D03*
D12*
X709200Y710000D03*
X810800Y710000D03*
D13*
X785400Y760800D03*
X721900Y735400D03*
D14*
X747300Y659200D03*
D15*
X772700Y659200D03*
D11*
X380000Y140000D03*
D12*
X329200Y140000D03*
X430800Y140000D03*
D13*
X405400Y190800D03*
X341900Y165400D03*
D14*
X367300Y89200D03*
D15*
X392700Y89200D03*
D11*
X570000Y140000D03*
D12*
X519200Y140000D03*
X620800Y140000D03*
D13*
X595400Y190800D03*
X531900Y165400D03*
D14*
X557300Y89200D03*
D15*
X582700Y89200D03*
D11*
X760000Y140000D03*
D12*
X709200Y140000D03*
X810800Y140000D03*
D13*
X785400Y190800D03*
X721900Y165400D03*
D14*
X747300Y89200D03*
D15*
X772700Y89200D03*
D11*
X190000Y330000D03*
D12*
X139200Y330000D03*
X240800Y330000D03*
D13*
X215400Y380800D03*
X151900Y355400D03*
D14*
X177300Y279200D03*
D15*
X202700Y279200D03*
D11*
X380000Y330000D03*
D12*
X329200Y330000D03*
X430800Y330000D03*
D13*
X405400Y380800D03*
X341900Y355400D03*
D14*
X367300Y279200D03*
D15*
X392700Y279200D03*
D11*
X570000Y330000D03*
D12*
X519200Y330000D03*
X620800Y330000D03*
D13*
X595400Y380800D03*
X531900Y355400D03*
D14*
X557300Y279200D03*
D15*
X582700Y279200D03*
D11*
X760000Y330000D03*
D12*
X709200Y330000D03*
X810800Y330000D03*
D13*
X785400Y380800D03*
X721900Y355400D03*
D14*
X747300Y279200D03*
D15*
X772700Y279200D03*
D11*
X190000Y520000D03*
D12*
X139200Y520000D03*
X240800Y520000D03*
D13*
X215400Y570800D03*
X151900Y545400D03*
D14*
X177300Y469200D03*
D15*
X202700Y469200D03*
D10*
X290000Y610000D03*
X290000Y635400D03*
X290000Y660800D03*
X290000Y686200D03*
X290000Y711600D03*
X290000Y737000D03*
D16*
X589280Y431800D03*
X474980Y538480D03*
X447040Y459740D03*
X378460Y375920D03*
X662940Y350520D03*
X647700Y345440D03*
X353060Y271780D03*
X693420Y574040D03*
X721360Y472440D03*
X403860Y424180D03*
X434340Y579120D03*
X439420Y693420D03*
X434340Y645160D03*
X383540Y629920D03*
X429260Y444500D03*
X749300Y629920D03*
X576580Y614680D03*
X523240Y388620D03*
X655320Y337820D03*
X698500Y474980D03*
X401320Y591820D03*
X434340Y619760D03*
X439420Y652780D03*
X464820Y678180D03*
X464820Y701040D03*
X574040Y739140D03*
X370840Y673100D03*
X421640Y685800D03*
X492760Y779780D03*
X607060Y772160D03*
X342900Y660400D03*
X375920Y642620D03*
X439420Y675640D03*
X454660Y678180D03*
X388620Y772160D03*
X563880Y767080D03*
M02*
