G04 EAGLE Gerber X2 export*
%TF.Part,Single*%
%TF.FileFunction,Legend,Bot,1*%
%TF.FilePolarity,Positive*%
%TF.GenerationSoftware,Autodesk,EAGLE,9.1.2*%
%TF.CreationDate,2018-09-23T15:55:01Z*%
G75*
%MOMM*%
%FSLAX34Y34*%
%LPD*%
%AMOC8*
5,1,8,0,0,1.08239X$1,22.5*%
G01*
%ADD10C,0.050800*%
%ADD11C,1.193800*%
%ADD12C,0.203200*%
%ADD13C,0.127000*%


D10*
X272573Y608358D02*
X271642Y608358D01*
X271642Y605254D01*
X273504Y605254D01*
X273574Y605256D01*
X273643Y605262D01*
X273712Y605272D01*
X273780Y605285D01*
X273848Y605303D01*
X273914Y605324D01*
X273979Y605349D01*
X274043Y605377D01*
X274105Y605409D01*
X274165Y605444D01*
X274223Y605483D01*
X274278Y605525D01*
X274332Y605570D01*
X274382Y605618D01*
X274430Y605668D01*
X274475Y605722D01*
X274517Y605777D01*
X274556Y605835D01*
X274591Y605895D01*
X274623Y605957D01*
X274651Y606021D01*
X274676Y606086D01*
X274697Y606152D01*
X274715Y606220D01*
X274728Y606288D01*
X274738Y606357D01*
X274744Y606426D01*
X274746Y606496D01*
X274746Y609600D01*
X274744Y609670D01*
X274738Y609739D01*
X274728Y609808D01*
X274715Y609876D01*
X274697Y609944D01*
X274676Y610010D01*
X274651Y610075D01*
X274623Y610139D01*
X274591Y610201D01*
X274556Y610261D01*
X274517Y610319D01*
X274475Y610374D01*
X274430Y610428D01*
X274382Y610478D01*
X274332Y610526D01*
X274278Y610571D01*
X274223Y610613D01*
X274165Y610652D01*
X274105Y610687D01*
X274043Y610719D01*
X273979Y610747D01*
X273914Y610772D01*
X273848Y610793D01*
X273780Y610811D01*
X273712Y610824D01*
X273643Y610834D01*
X273574Y610840D01*
X273504Y610842D01*
X271642Y610842D01*
X268894Y610842D02*
X268894Y605254D01*
X265789Y605254D02*
X268894Y610842D01*
X265789Y610842D02*
X265789Y605254D01*
X263042Y605254D02*
X263042Y610842D01*
X261490Y610842D01*
X261414Y610840D01*
X261338Y610835D01*
X261262Y610825D01*
X261187Y610812D01*
X261113Y610795D01*
X261039Y610775D01*
X260967Y610751D01*
X260896Y610724D01*
X260826Y610693D01*
X260758Y610659D01*
X260692Y610621D01*
X260628Y610580D01*
X260565Y610537D01*
X260505Y610490D01*
X260448Y610440D01*
X260393Y610387D01*
X260340Y610332D01*
X260290Y610275D01*
X260243Y610215D01*
X260200Y610152D01*
X260159Y610088D01*
X260121Y610022D01*
X260087Y609954D01*
X260056Y609884D01*
X260029Y609813D01*
X260005Y609741D01*
X259985Y609667D01*
X259968Y609593D01*
X259955Y609518D01*
X259945Y609442D01*
X259940Y609366D01*
X259938Y609290D01*
X259937Y609290D02*
X259937Y606806D01*
X259938Y606806D02*
X259940Y606730D01*
X259945Y606654D01*
X259955Y606578D01*
X259968Y606503D01*
X259985Y606429D01*
X260005Y606355D01*
X260029Y606283D01*
X260056Y606212D01*
X260087Y606142D01*
X260121Y606074D01*
X260159Y606008D01*
X260200Y605944D01*
X260243Y605881D01*
X260290Y605821D01*
X260340Y605764D01*
X260393Y605709D01*
X260448Y605656D01*
X260505Y605606D01*
X260565Y605559D01*
X260628Y605516D01*
X260692Y605475D01*
X260758Y605437D01*
X260826Y605403D01*
X260896Y605372D01*
X260967Y605345D01*
X261039Y605321D01*
X261113Y605301D01*
X261187Y605284D01*
X261262Y605271D01*
X261338Y605261D01*
X261414Y605256D01*
X261490Y605254D01*
X263042Y605254D01*
X274746Y630254D02*
X274746Y635842D01*
X273194Y635842D01*
X273117Y635840D01*
X273039Y635834D01*
X272963Y635825D01*
X272886Y635811D01*
X272811Y635794D01*
X272737Y635773D01*
X272663Y635748D01*
X272591Y635720D01*
X272521Y635688D01*
X272452Y635653D01*
X272385Y635614D01*
X272320Y635572D01*
X272257Y635527D01*
X272196Y635479D01*
X272138Y635428D01*
X272083Y635374D01*
X272030Y635317D01*
X271981Y635258D01*
X271934Y635196D01*
X271890Y635132D01*
X271850Y635066D01*
X271813Y634998D01*
X271779Y634928D01*
X271749Y634857D01*
X271723Y634784D01*
X271700Y634710D01*
X271681Y634635D01*
X271666Y634560D01*
X271654Y634483D01*
X271646Y634406D01*
X271642Y634329D01*
X271642Y634251D01*
X271646Y634174D01*
X271654Y634097D01*
X271666Y634020D01*
X271681Y633945D01*
X271700Y633870D01*
X271723Y633796D01*
X271749Y633723D01*
X271779Y633652D01*
X271813Y633582D01*
X271850Y633514D01*
X271890Y633448D01*
X271934Y633384D01*
X271981Y633322D01*
X272030Y633263D01*
X272083Y633206D01*
X272138Y633152D01*
X272196Y633101D01*
X272257Y633053D01*
X272320Y633008D01*
X272385Y632966D01*
X272452Y632927D01*
X272521Y632892D01*
X272591Y632860D01*
X272663Y632832D01*
X272737Y632807D01*
X272811Y632786D01*
X272886Y632769D01*
X272963Y632755D01*
X273039Y632746D01*
X273117Y632740D01*
X273194Y632738D01*
X274746Y632738D01*
X272883Y632738D02*
X271642Y630254D01*
X267616Y630254D02*
X267546Y630256D01*
X267477Y630262D01*
X267408Y630272D01*
X267340Y630285D01*
X267272Y630303D01*
X267206Y630324D01*
X267141Y630349D01*
X267077Y630377D01*
X267015Y630409D01*
X266955Y630444D01*
X266897Y630483D01*
X266842Y630525D01*
X266788Y630570D01*
X266738Y630618D01*
X266690Y630668D01*
X266645Y630722D01*
X266603Y630777D01*
X266564Y630835D01*
X266529Y630895D01*
X266497Y630957D01*
X266469Y631021D01*
X266444Y631086D01*
X266423Y631152D01*
X266405Y631220D01*
X266392Y631288D01*
X266382Y631357D01*
X266376Y631426D01*
X266374Y631496D01*
X267616Y630254D02*
X267715Y630256D01*
X267813Y630261D01*
X267911Y630271D01*
X268009Y630284D01*
X268106Y630300D01*
X268203Y630320D01*
X268298Y630344D01*
X268393Y630372D01*
X268487Y630403D01*
X268579Y630437D01*
X268670Y630475D01*
X268760Y630516D01*
X268848Y630561D01*
X268934Y630609D01*
X269018Y630660D01*
X269100Y630714D01*
X269181Y630772D01*
X269259Y630832D01*
X269334Y630895D01*
X269408Y630961D01*
X269478Y631030D01*
X269324Y634600D02*
X269322Y634670D01*
X269316Y634739D01*
X269306Y634808D01*
X269293Y634876D01*
X269275Y634944D01*
X269254Y635010D01*
X269229Y635075D01*
X269201Y635139D01*
X269169Y635201D01*
X269134Y635261D01*
X269095Y635319D01*
X269053Y635374D01*
X269008Y635428D01*
X268960Y635478D01*
X268910Y635526D01*
X268856Y635571D01*
X268801Y635613D01*
X268743Y635652D01*
X268683Y635687D01*
X268621Y635719D01*
X268557Y635747D01*
X268492Y635772D01*
X268426Y635793D01*
X268358Y635811D01*
X268290Y635824D01*
X268221Y635834D01*
X268152Y635840D01*
X268082Y635842D01*
X267988Y635840D01*
X267895Y635834D01*
X267802Y635825D01*
X267709Y635812D01*
X267617Y635795D01*
X267526Y635775D01*
X267435Y635750D01*
X267346Y635723D01*
X267258Y635691D01*
X267171Y635656D01*
X267085Y635618D01*
X267002Y635576D01*
X266919Y635531D01*
X266839Y635483D01*
X266761Y635431D01*
X266685Y635376D01*
X268702Y633514D02*
X268761Y633550D01*
X268817Y633590D01*
X268871Y633633D01*
X268923Y633678D01*
X268972Y633727D01*
X269018Y633778D01*
X269061Y633831D01*
X269102Y633887D01*
X269139Y633945D01*
X269174Y634005D01*
X269204Y634066D01*
X269232Y634129D01*
X269256Y634194D01*
X269276Y634260D01*
X269293Y634327D01*
X269306Y634394D01*
X269315Y634462D01*
X269321Y634531D01*
X269323Y634600D01*
X266995Y632582D02*
X266936Y632546D01*
X266880Y632506D01*
X266826Y632463D01*
X266774Y632418D01*
X266725Y632369D01*
X266679Y632318D01*
X266636Y632265D01*
X266595Y632209D01*
X266558Y632151D01*
X266523Y632092D01*
X266493Y632030D01*
X266465Y631967D01*
X266441Y631902D01*
X266421Y631836D01*
X266404Y631769D01*
X266391Y631702D01*
X266382Y631634D01*
X266376Y631565D01*
X266374Y631496D01*
X266995Y632582D02*
X268703Y633514D01*
X262989Y635842D02*
X262989Y630254D01*
X264541Y635842D02*
X261436Y635842D01*
X274746Y655254D02*
X274746Y660842D01*
X273194Y660842D01*
X273117Y660840D01*
X273039Y660834D01*
X272963Y660825D01*
X272886Y660811D01*
X272811Y660794D01*
X272737Y660773D01*
X272663Y660748D01*
X272591Y660720D01*
X272521Y660688D01*
X272452Y660653D01*
X272385Y660614D01*
X272320Y660572D01*
X272257Y660527D01*
X272196Y660479D01*
X272138Y660428D01*
X272083Y660374D01*
X272030Y660317D01*
X271981Y660258D01*
X271934Y660196D01*
X271890Y660132D01*
X271850Y660066D01*
X271813Y659998D01*
X271779Y659928D01*
X271749Y659857D01*
X271723Y659784D01*
X271700Y659710D01*
X271681Y659635D01*
X271666Y659560D01*
X271654Y659483D01*
X271646Y659406D01*
X271642Y659329D01*
X271642Y659251D01*
X271646Y659174D01*
X271654Y659097D01*
X271666Y659020D01*
X271681Y658945D01*
X271700Y658870D01*
X271723Y658796D01*
X271749Y658723D01*
X271779Y658652D01*
X271813Y658582D01*
X271850Y658514D01*
X271890Y658448D01*
X271934Y658384D01*
X271981Y658322D01*
X272030Y658263D01*
X272083Y658206D01*
X272138Y658152D01*
X272196Y658101D01*
X272257Y658053D01*
X272320Y658008D01*
X272385Y657966D01*
X272452Y657927D01*
X272521Y657892D01*
X272591Y657860D01*
X272663Y657832D01*
X272737Y657807D01*
X272811Y657786D01*
X272886Y657769D01*
X272963Y657755D01*
X273039Y657746D01*
X273117Y657740D01*
X273194Y657738D01*
X274746Y657738D01*
X272883Y657738D02*
X271642Y655254D01*
X269606Y655254D02*
X265881Y660842D01*
X269606Y660842D02*
X265881Y655254D01*
X273194Y680254D02*
X273194Y685842D01*
X274746Y685842D02*
X271642Y685842D01*
X266211Y685842D02*
X269936Y680254D01*
X266211Y680254D02*
X269936Y685842D01*
X274746Y705254D02*
X274746Y710842D01*
X273194Y710842D01*
X273117Y710840D01*
X273039Y710834D01*
X272963Y710825D01*
X272886Y710811D01*
X272811Y710794D01*
X272737Y710773D01*
X272663Y710748D01*
X272591Y710720D01*
X272521Y710688D01*
X272452Y710653D01*
X272385Y710614D01*
X272320Y710572D01*
X272257Y710527D01*
X272196Y710479D01*
X272138Y710428D01*
X272083Y710374D01*
X272030Y710317D01*
X271981Y710258D01*
X271934Y710196D01*
X271890Y710132D01*
X271850Y710066D01*
X271813Y709998D01*
X271779Y709928D01*
X271749Y709857D01*
X271723Y709784D01*
X271700Y709710D01*
X271681Y709635D01*
X271666Y709560D01*
X271654Y709483D01*
X271646Y709406D01*
X271642Y709329D01*
X271642Y709251D01*
X271646Y709174D01*
X271654Y709097D01*
X271666Y709020D01*
X271681Y708945D01*
X271700Y708870D01*
X271723Y708796D01*
X271749Y708723D01*
X271779Y708652D01*
X271813Y708582D01*
X271850Y708514D01*
X271890Y708448D01*
X271934Y708384D01*
X271981Y708322D01*
X272030Y708263D01*
X272083Y708206D01*
X272138Y708152D01*
X272196Y708101D01*
X272257Y708053D01*
X272320Y708008D01*
X272385Y707966D01*
X272452Y707927D01*
X272521Y707892D01*
X272591Y707860D01*
X272663Y707832D01*
X272737Y707807D01*
X272811Y707786D01*
X272886Y707769D01*
X272963Y707755D01*
X273039Y707746D01*
X273117Y707740D01*
X273194Y707738D01*
X274746Y707738D01*
X272883Y707738D02*
X271642Y705254D01*
X269606Y705254D02*
X267744Y710842D01*
X265881Y705254D01*
X266347Y706651D02*
X269141Y706651D01*
X262767Y705254D02*
X264009Y710842D01*
X261526Y708979D02*
X262767Y705254D01*
X260284Y705254D02*
X261526Y708979D01*
X259042Y710842D02*
X260284Y705254D01*
X272883Y730254D02*
X274746Y735842D01*
X271021Y735842D02*
X272883Y730254D01*
X267724Y730254D02*
X266482Y730254D01*
X267724Y730254D02*
X267794Y730256D01*
X267863Y730262D01*
X267932Y730272D01*
X268000Y730285D01*
X268068Y730303D01*
X268134Y730324D01*
X268199Y730349D01*
X268263Y730377D01*
X268325Y730409D01*
X268385Y730444D01*
X268443Y730483D01*
X268498Y730525D01*
X268552Y730570D01*
X268602Y730618D01*
X268650Y730668D01*
X268695Y730722D01*
X268737Y730777D01*
X268776Y730835D01*
X268811Y730895D01*
X268843Y730957D01*
X268871Y731021D01*
X268896Y731086D01*
X268917Y731152D01*
X268935Y731220D01*
X268948Y731288D01*
X268958Y731357D01*
X268964Y731426D01*
X268966Y731496D01*
X268965Y731496D02*
X268965Y734600D01*
X268966Y734600D02*
X268964Y734670D01*
X268958Y734739D01*
X268948Y734808D01*
X268935Y734876D01*
X268917Y734944D01*
X268896Y735010D01*
X268871Y735075D01*
X268843Y735139D01*
X268811Y735201D01*
X268776Y735261D01*
X268737Y735319D01*
X268695Y735374D01*
X268650Y735428D01*
X268602Y735478D01*
X268552Y735526D01*
X268498Y735571D01*
X268443Y735613D01*
X268385Y735652D01*
X268325Y735687D01*
X268263Y735719D01*
X268199Y735747D01*
X268134Y735772D01*
X268068Y735793D01*
X268000Y735811D01*
X267932Y735824D01*
X267863Y735834D01*
X267794Y735840D01*
X267724Y735842D01*
X266482Y735842D01*
X263152Y730254D02*
X261910Y730254D01*
X263152Y730254D02*
X263222Y730256D01*
X263291Y730262D01*
X263360Y730272D01*
X263428Y730285D01*
X263496Y730303D01*
X263562Y730324D01*
X263627Y730349D01*
X263691Y730377D01*
X263753Y730409D01*
X263813Y730444D01*
X263871Y730483D01*
X263926Y730525D01*
X263980Y730570D01*
X264030Y730618D01*
X264078Y730668D01*
X264123Y730722D01*
X264165Y730777D01*
X264204Y730835D01*
X264239Y730895D01*
X264271Y730957D01*
X264299Y731021D01*
X264324Y731086D01*
X264345Y731152D01*
X264363Y731220D01*
X264376Y731288D01*
X264386Y731357D01*
X264392Y731426D01*
X264394Y731496D01*
X264394Y734600D01*
X264392Y734670D01*
X264386Y734739D01*
X264376Y734808D01*
X264363Y734876D01*
X264345Y734944D01*
X264324Y735010D01*
X264299Y735075D01*
X264271Y735139D01*
X264239Y735201D01*
X264204Y735261D01*
X264165Y735319D01*
X264123Y735374D01*
X264078Y735428D01*
X264030Y735478D01*
X263980Y735526D01*
X263926Y735571D01*
X263871Y735613D01*
X263813Y735652D01*
X263753Y735687D01*
X263691Y735719D01*
X263627Y735747D01*
X263562Y735772D01*
X263496Y735793D01*
X263428Y735811D01*
X263360Y735824D01*
X263291Y735834D01*
X263222Y735840D01*
X263152Y735842D01*
X261910Y735842D01*
D11*
X564771Y599031D02*
X595451Y491649D01*
X518750Y491649D01*
X541760Y522330D02*
X541760Y460969D01*
X717330Y266649D02*
X717339Y265908D01*
X717366Y265167D01*
X717411Y264427D01*
X717473Y263688D01*
X717554Y262951D01*
X717652Y262216D01*
X717768Y261484D01*
X717902Y260755D01*
X718053Y260029D01*
X718222Y259307D01*
X718408Y258589D01*
X718611Y257876D01*
X718832Y257168D01*
X719069Y256466D01*
X719324Y255770D01*
X719595Y255080D01*
X719883Y254396D01*
X720187Y253720D01*
X720508Y253052D01*
X720844Y252391D01*
X721197Y251739D01*
X721565Y251095D01*
X721948Y250461D01*
X722347Y249836D01*
X722761Y249221D01*
X723189Y248616D01*
X723632Y248021D01*
X724090Y247438D01*
X724561Y246865D01*
X725046Y246304D01*
X725544Y245755D01*
X726055Y245219D01*
X726580Y244694D01*
X727116Y244183D01*
X727665Y243685D01*
X728226Y243200D01*
X728799Y242729D01*
X729382Y242271D01*
X729977Y241828D01*
X730582Y241400D01*
X731197Y240986D01*
X731822Y240587D01*
X732456Y240204D01*
X733100Y239836D01*
X733752Y239483D01*
X734413Y239147D01*
X735081Y238826D01*
X735757Y238522D01*
X736441Y238234D01*
X737131Y237963D01*
X737827Y237708D01*
X738529Y237471D01*
X739237Y237250D01*
X739950Y237047D01*
X740668Y236861D01*
X741390Y236692D01*
X742116Y236541D01*
X742845Y236407D01*
X743577Y236291D01*
X744312Y236193D01*
X745049Y236112D01*
X745788Y236050D01*
X746528Y236005D01*
X747269Y235978D01*
X748010Y235969D01*
X749561Y235988D01*
X751110Y236043D01*
X752658Y236136D01*
X754203Y236266D01*
X755745Y236432D01*
X757283Y236636D01*
X758814Y236876D01*
X760340Y237153D01*
X761859Y237466D01*
X763370Y237815D01*
X764872Y238201D01*
X766364Y238622D01*
X767846Y239079D01*
X769317Y239571D01*
X770775Y240099D01*
X772220Y240661D01*
X773652Y241257D01*
X775068Y241888D01*
X776470Y242552D01*
X777855Y243249D01*
X779222Y243980D01*
X780572Y244743D01*
X781904Y245538D01*
X783216Y246365D01*
X784508Y247222D01*
X785778Y248111D01*
X787028Y249030D01*
X788255Y249978D01*
X789459Y250955D01*
X790639Y251961D01*
X791795Y252995D01*
X792925Y254056D01*
X794030Y255144D01*
X790196Y343351D02*
X790187Y344092D01*
X790160Y344833D01*
X790115Y345573D01*
X790053Y346312D01*
X789972Y347049D01*
X789874Y347784D01*
X789758Y348516D01*
X789624Y349245D01*
X789473Y349971D01*
X789304Y350693D01*
X789118Y351411D01*
X788915Y352124D01*
X788694Y352832D01*
X788457Y353534D01*
X788202Y354230D01*
X787931Y354920D01*
X787643Y355604D01*
X787339Y356280D01*
X787018Y356948D01*
X786682Y357609D01*
X786329Y358261D01*
X785961Y358905D01*
X785578Y359539D01*
X785179Y360164D01*
X784765Y360779D01*
X784337Y361384D01*
X783894Y361979D01*
X783436Y362562D01*
X782965Y363135D01*
X782480Y363696D01*
X781982Y364245D01*
X781471Y364781D01*
X780946Y365306D01*
X780410Y365817D01*
X779861Y366315D01*
X779300Y366800D01*
X778727Y367271D01*
X778144Y367729D01*
X777549Y368172D01*
X776944Y368600D01*
X776329Y369014D01*
X775704Y369413D01*
X775070Y369796D01*
X774426Y370164D01*
X773774Y370517D01*
X773113Y370853D01*
X772445Y371174D01*
X771769Y371478D01*
X771085Y371766D01*
X770395Y372037D01*
X769699Y372292D01*
X768997Y372529D01*
X768289Y372750D01*
X767576Y372953D01*
X766858Y373139D01*
X766136Y373308D01*
X765410Y373459D01*
X764681Y373593D01*
X763949Y373709D01*
X763214Y373807D01*
X762477Y373888D01*
X761738Y373950D01*
X760998Y373995D01*
X760257Y374022D01*
X759516Y374031D01*
X758145Y374015D01*
X756775Y373966D01*
X755406Y373884D01*
X754040Y373770D01*
X752677Y373623D01*
X751318Y373444D01*
X749963Y373232D01*
X748614Y372989D01*
X747271Y372713D01*
X745935Y372405D01*
X744607Y372065D01*
X743287Y371694D01*
X741976Y371292D01*
X740676Y370858D01*
X739386Y370394D01*
X738107Y369899D01*
X736841Y369373D01*
X735587Y368818D01*
X734347Y368233D01*
X733122Y367618D01*
X731911Y366975D01*
X730716Y366303D01*
X729538Y365602D01*
X728376Y364874D01*
X727232Y364118D01*
X726107Y363335D01*
X725000Y362526D01*
X774856Y316505D02*
X775499Y316895D01*
X776133Y317300D01*
X776757Y317721D01*
X777371Y318156D01*
X777974Y318606D01*
X778566Y319071D01*
X779146Y319549D01*
X779715Y320042D01*
X780272Y320548D01*
X780816Y321067D01*
X781348Y321599D01*
X781866Y322145D01*
X782372Y322702D01*
X782864Y323271D01*
X783341Y323853D01*
X783805Y324445D01*
X784254Y325049D01*
X784689Y325663D01*
X785109Y326287D01*
X785513Y326922D01*
X785902Y327566D01*
X786275Y328219D01*
X786633Y328881D01*
X786974Y329552D01*
X787299Y330230D01*
X787607Y330916D01*
X787899Y331610D01*
X788174Y332310D01*
X788432Y333017D01*
X788673Y333730D01*
X788897Y334448D01*
X789103Y335172D01*
X789292Y335900D01*
X789463Y336633D01*
X789616Y337369D01*
X789752Y338109D01*
X789870Y338852D01*
X789969Y339598D01*
X790051Y340346D01*
X790114Y341096D01*
X790160Y341847D01*
X790187Y342599D01*
X790196Y343351D01*
X732670Y293495D02*
X732027Y293105D01*
X731393Y292700D01*
X730769Y292279D01*
X730155Y291844D01*
X729552Y291394D01*
X728960Y290929D01*
X728380Y290451D01*
X727811Y289958D01*
X727254Y289452D01*
X726710Y288933D01*
X726178Y288401D01*
X725660Y287855D01*
X725154Y287298D01*
X724662Y286729D01*
X724185Y286147D01*
X723721Y285555D01*
X723272Y284951D01*
X722837Y284337D01*
X722418Y283713D01*
X722013Y283078D01*
X721624Y282434D01*
X721251Y281781D01*
X720893Y281119D01*
X720552Y280448D01*
X720227Y279770D01*
X719919Y279084D01*
X719627Y278390D01*
X719352Y277690D01*
X719094Y276983D01*
X718853Y276270D01*
X718629Y275552D01*
X718423Y274828D01*
X718234Y274100D01*
X718063Y273367D01*
X717910Y272631D01*
X717774Y271891D01*
X717656Y271148D01*
X717557Y270402D01*
X717475Y269654D01*
X717412Y268904D01*
X717366Y268153D01*
X717339Y267401D01*
X717330Y266649D01*
X732670Y293495D02*
X774856Y316505D01*
X623653Y328010D02*
X623653Y189948D01*
X623653Y328010D02*
X662003Y328010D01*
X662559Y328003D01*
X663115Y327983D01*
X663670Y327950D01*
X664224Y327903D01*
X664777Y327842D01*
X665328Y327769D01*
X665877Y327682D01*
X666424Y327581D01*
X666968Y327468D01*
X667510Y327341D01*
X668048Y327202D01*
X668583Y327049D01*
X669113Y326884D01*
X669640Y326706D01*
X670162Y326515D01*
X670680Y326311D01*
X671192Y326095D01*
X671699Y325867D01*
X672201Y325627D01*
X672696Y325374D01*
X673185Y325110D01*
X673668Y324834D01*
X674144Y324546D01*
X674613Y324247D01*
X675074Y323937D01*
X675528Y323615D01*
X675974Y323283D01*
X676412Y322940D01*
X676841Y322587D01*
X677261Y322223D01*
X677673Y321850D01*
X678076Y321466D01*
X678469Y321073D01*
X678853Y320670D01*
X679226Y320258D01*
X679590Y319838D01*
X679943Y319409D01*
X680286Y318971D01*
X680618Y318525D01*
X680940Y318071D01*
X681250Y317610D01*
X681549Y317141D01*
X681837Y316665D01*
X682113Y316182D01*
X682377Y315693D01*
X682630Y315198D01*
X682870Y314696D01*
X683098Y314189D01*
X683314Y313677D01*
X683518Y313159D01*
X683709Y312637D01*
X683887Y312110D01*
X684052Y311580D01*
X684205Y311045D01*
X684344Y310507D01*
X684471Y309965D01*
X684584Y309421D01*
X684685Y308874D01*
X684772Y308325D01*
X684845Y307774D01*
X684906Y307221D01*
X684953Y306667D01*
X684986Y306112D01*
X685006Y305556D01*
X685013Y305000D01*
X685014Y305000D02*
X685014Y258979D01*
X685013Y258979D02*
X685006Y258423D01*
X684986Y257867D01*
X684953Y257312D01*
X684906Y256758D01*
X684845Y256205D01*
X684772Y255654D01*
X684685Y255105D01*
X684584Y254558D01*
X684471Y254014D01*
X684344Y253472D01*
X684205Y252934D01*
X684052Y252399D01*
X683887Y251869D01*
X683709Y251342D01*
X683518Y250820D01*
X683314Y250302D01*
X683098Y249790D01*
X682870Y249283D01*
X682630Y248781D01*
X682377Y248286D01*
X682113Y247797D01*
X681837Y247314D01*
X681549Y246838D01*
X681250Y246369D01*
X680940Y245908D01*
X680618Y245454D01*
X680286Y245008D01*
X679943Y244570D01*
X679590Y244141D01*
X679226Y243721D01*
X678853Y243309D01*
X678469Y242906D01*
X678076Y242513D01*
X677673Y242129D01*
X677261Y241756D01*
X676841Y241392D01*
X676412Y241039D01*
X675974Y240696D01*
X675528Y240364D01*
X675074Y240042D01*
X674613Y239732D01*
X674144Y239433D01*
X673668Y239145D01*
X673185Y238869D01*
X672696Y238605D01*
X672201Y238352D01*
X671699Y238112D01*
X671192Y237884D01*
X670680Y237668D01*
X670162Y237464D01*
X669640Y237273D01*
X669113Y237095D01*
X668583Y236930D01*
X668048Y236777D01*
X667510Y236638D01*
X666968Y236511D01*
X666424Y236398D01*
X665877Y236297D01*
X665328Y236210D01*
X664777Y236137D01*
X664224Y236076D01*
X663670Y236029D01*
X663115Y235996D01*
X662559Y235976D01*
X662003Y235969D01*
X623653Y235969D01*
X580111Y258979D02*
X580111Y328010D01*
X580111Y258979D02*
X580104Y258423D01*
X580084Y257867D01*
X580051Y257312D01*
X580004Y256758D01*
X579943Y256205D01*
X579870Y255654D01*
X579783Y255105D01*
X579682Y254558D01*
X579569Y254014D01*
X579442Y253472D01*
X579303Y252934D01*
X579150Y252399D01*
X578985Y251869D01*
X578807Y251342D01*
X578616Y250820D01*
X578412Y250302D01*
X578196Y249790D01*
X577968Y249283D01*
X577728Y248781D01*
X577475Y248286D01*
X577211Y247797D01*
X576935Y247314D01*
X576647Y246838D01*
X576348Y246369D01*
X576038Y245908D01*
X575716Y245454D01*
X575384Y245008D01*
X575041Y244570D01*
X574688Y244141D01*
X574324Y243721D01*
X573951Y243309D01*
X573567Y242906D01*
X573174Y242513D01*
X572771Y242129D01*
X572359Y241756D01*
X571939Y241392D01*
X571510Y241039D01*
X571072Y240696D01*
X570626Y240364D01*
X570172Y240042D01*
X569711Y239732D01*
X569242Y239433D01*
X568766Y239145D01*
X568283Y238869D01*
X567794Y238605D01*
X567299Y238352D01*
X566797Y238112D01*
X566290Y237884D01*
X565778Y237668D01*
X565260Y237464D01*
X564738Y237273D01*
X564211Y237095D01*
X563681Y236930D01*
X563146Y236777D01*
X562608Y236638D01*
X562066Y236511D01*
X561522Y236398D01*
X560975Y236297D01*
X560426Y236210D01*
X559875Y236137D01*
X559322Y236076D01*
X558768Y236029D01*
X558213Y235996D01*
X557657Y235976D01*
X557101Y235969D01*
X518750Y235969D01*
X518750Y328010D01*
X451918Y289660D02*
X417403Y289660D01*
X451918Y289659D02*
X452572Y289651D01*
X453225Y289627D01*
X453878Y289587D01*
X454529Y289532D01*
X455179Y289460D01*
X455827Y289373D01*
X456472Y289270D01*
X457115Y289151D01*
X457755Y289017D01*
X458391Y288867D01*
X459024Y288701D01*
X459652Y288521D01*
X460276Y288325D01*
X460894Y288114D01*
X461508Y287888D01*
X462116Y287647D01*
X462717Y287391D01*
X463313Y287121D01*
X463901Y286836D01*
X464482Y286537D01*
X465056Y286224D01*
X465623Y285897D01*
X466181Y285557D01*
X466730Y285203D01*
X467271Y284835D01*
X467803Y284455D01*
X468325Y284062D01*
X468837Y283656D01*
X469340Y283238D01*
X469832Y282807D01*
X470314Y282365D01*
X470784Y281911D01*
X471244Y281446D01*
X471692Y280970D01*
X472128Y280483D01*
X472552Y279986D01*
X472964Y279478D01*
X473364Y278961D01*
X473751Y278434D01*
X474125Y277898D01*
X474485Y277352D01*
X474833Y276799D01*
X475166Y276237D01*
X475486Y275666D01*
X475792Y275089D01*
X476084Y274504D01*
X476362Y273912D01*
X476625Y273313D01*
X476873Y272708D01*
X477107Y272098D01*
X477325Y271482D01*
X477529Y270860D01*
X477717Y270234D01*
X477890Y269604D01*
X478048Y268970D01*
X478190Y268331D01*
X478316Y267690D01*
X478427Y267046D01*
X478523Y266399D01*
X478602Y265750D01*
X478666Y265099D01*
X478713Y264447D01*
X478745Y263794D01*
X478761Y263141D01*
X478761Y262487D01*
X478745Y261834D01*
X478713Y261181D01*
X478666Y260529D01*
X478602Y259878D01*
X478523Y259229D01*
X478427Y258582D01*
X478316Y257938D01*
X478190Y257297D01*
X478048Y256658D01*
X477890Y256024D01*
X477717Y255394D01*
X477529Y254768D01*
X477325Y254146D01*
X477107Y253530D01*
X476873Y252920D01*
X476625Y252315D01*
X476362Y251716D01*
X476084Y251124D01*
X475792Y250539D01*
X475486Y249962D01*
X475166Y249392D01*
X474833Y248829D01*
X474485Y248276D01*
X474125Y247730D01*
X473751Y247194D01*
X473364Y246667D01*
X472964Y246150D01*
X472552Y245642D01*
X472128Y245145D01*
X471692Y244658D01*
X471244Y244182D01*
X470784Y243717D01*
X470314Y243263D01*
X469832Y242821D01*
X469340Y242390D01*
X468837Y241972D01*
X468325Y241566D01*
X467803Y241173D01*
X467271Y240793D01*
X466730Y240425D01*
X466181Y240071D01*
X465623Y239731D01*
X465056Y239404D01*
X464482Y239091D01*
X463901Y238792D01*
X463313Y238507D01*
X462717Y238237D01*
X462116Y237981D01*
X461508Y237740D01*
X460894Y237514D01*
X460276Y237303D01*
X459652Y237107D01*
X459024Y236927D01*
X458391Y236761D01*
X457755Y236611D01*
X457115Y236477D01*
X456472Y236358D01*
X455827Y236255D01*
X455179Y236168D01*
X454529Y236096D01*
X453878Y236041D01*
X453225Y236001D01*
X452572Y235977D01*
X451918Y235969D01*
X417403Y235969D01*
X417403Y305000D01*
X417410Y305556D01*
X417430Y306112D01*
X417463Y306667D01*
X417510Y307221D01*
X417571Y307774D01*
X417644Y308325D01*
X417731Y308874D01*
X417832Y309421D01*
X417945Y309965D01*
X418072Y310507D01*
X418211Y311045D01*
X418364Y311580D01*
X418529Y312110D01*
X418707Y312637D01*
X418898Y313159D01*
X419102Y313677D01*
X419318Y314189D01*
X419546Y314696D01*
X419786Y315198D01*
X420039Y315693D01*
X420303Y316182D01*
X420579Y316665D01*
X420867Y317141D01*
X421166Y317610D01*
X421476Y318071D01*
X421798Y318525D01*
X422130Y318971D01*
X422473Y319409D01*
X422826Y319838D01*
X423190Y320258D01*
X423564Y320670D01*
X423947Y321073D01*
X424340Y321466D01*
X424743Y321850D01*
X425155Y322223D01*
X425575Y322587D01*
X426004Y322940D01*
X426442Y323283D01*
X426888Y323615D01*
X427342Y323937D01*
X427803Y324247D01*
X428272Y324546D01*
X428748Y324834D01*
X429231Y325110D01*
X429720Y325374D01*
X430215Y325627D01*
X430717Y325867D01*
X431224Y326095D01*
X431736Y326311D01*
X432254Y326515D01*
X432776Y326706D01*
X433303Y326884D01*
X433833Y327049D01*
X434368Y327202D01*
X434906Y327341D01*
X435448Y327468D01*
X435992Y327581D01*
X436539Y327682D01*
X437088Y327769D01*
X437639Y327842D01*
X438192Y327903D01*
X438746Y327950D01*
X439301Y327983D01*
X439857Y328003D01*
X440413Y328010D01*
X471094Y328010D01*
X373997Y328010D02*
X373997Y235969D01*
X373997Y328010D02*
X327976Y328010D01*
X327976Y312670D01*
X275851Y235969D02*
X237500Y235969D01*
X275851Y235969D02*
X276407Y235976D01*
X276963Y235996D01*
X277518Y236029D01*
X278072Y236076D01*
X278625Y236137D01*
X279176Y236210D01*
X279725Y236297D01*
X280272Y236398D01*
X280816Y236511D01*
X281358Y236638D01*
X281896Y236777D01*
X282431Y236930D01*
X282961Y237095D01*
X283488Y237273D01*
X284010Y237464D01*
X284528Y237668D01*
X285040Y237884D01*
X285547Y238112D01*
X286049Y238352D01*
X286544Y238605D01*
X287033Y238869D01*
X287516Y239145D01*
X287992Y239433D01*
X288461Y239732D01*
X288922Y240042D01*
X289376Y240364D01*
X289822Y240696D01*
X290260Y241039D01*
X290689Y241392D01*
X291109Y241756D01*
X291521Y242129D01*
X291924Y242513D01*
X292317Y242906D01*
X292701Y243309D01*
X293074Y243721D01*
X293438Y244141D01*
X293791Y244570D01*
X294134Y245008D01*
X294466Y245454D01*
X294788Y245908D01*
X295098Y246369D01*
X295397Y246838D01*
X295685Y247314D01*
X295961Y247797D01*
X296225Y248286D01*
X296478Y248781D01*
X296718Y249283D01*
X296946Y249790D01*
X297162Y250302D01*
X297366Y250820D01*
X297557Y251342D01*
X297735Y251869D01*
X297900Y252399D01*
X298053Y252934D01*
X298192Y253472D01*
X298319Y254014D01*
X298432Y254558D01*
X298533Y255105D01*
X298620Y255654D01*
X298693Y256205D01*
X298754Y256758D01*
X298801Y257312D01*
X298834Y257867D01*
X298854Y258423D01*
X298861Y258979D01*
X298861Y297330D01*
X298852Y298077D01*
X298825Y298824D01*
X298779Y299569D01*
X298716Y300314D01*
X298634Y301057D01*
X298534Y301797D01*
X298416Y302535D01*
X298281Y303270D01*
X298127Y304001D01*
X297956Y304728D01*
X297767Y305451D01*
X297560Y306169D01*
X297336Y306882D01*
X297095Y307589D01*
X296837Y308290D01*
X296561Y308984D01*
X296269Y309672D01*
X295960Y310352D01*
X295635Y311025D01*
X295293Y311689D01*
X294935Y312345D01*
X294562Y312992D01*
X294173Y313630D01*
X293768Y314258D01*
X293348Y314876D01*
X292914Y315484D01*
X292464Y316081D01*
X292000Y316667D01*
X291522Y317241D01*
X291031Y317803D01*
X290525Y318354D01*
X290007Y318892D01*
X289475Y319417D01*
X288931Y319929D01*
X288375Y320427D01*
X287806Y320912D01*
X287226Y321383D01*
X286635Y321840D01*
X286032Y322282D01*
X285420Y322709D01*
X284796Y323121D01*
X284163Y323518D01*
X283521Y323900D01*
X282869Y324265D01*
X282209Y324615D01*
X281541Y324949D01*
X280864Y325266D01*
X280180Y325566D01*
X279489Y325850D01*
X278791Y326117D01*
X278087Y326367D01*
X277377Y326599D01*
X276661Y326815D01*
X275941Y327012D01*
X275216Y327193D01*
X274487Y327355D01*
X273754Y327500D01*
X273017Y327626D01*
X272278Y327735D01*
X271537Y327826D01*
X270793Y327899D01*
X270048Y327953D01*
X269301Y327990D01*
X268555Y328008D01*
X267807Y328008D01*
X267061Y327990D01*
X266314Y327953D01*
X265569Y327899D01*
X264825Y327826D01*
X264084Y327735D01*
X263345Y327626D01*
X262608Y327500D01*
X261875Y327355D01*
X261146Y327193D01*
X260421Y327012D01*
X259701Y326815D01*
X258985Y326599D01*
X258275Y326367D01*
X257571Y326117D01*
X256873Y325850D01*
X256182Y325566D01*
X255498Y325266D01*
X254821Y324949D01*
X254153Y324615D01*
X253493Y324265D01*
X252841Y323900D01*
X252199Y323518D01*
X251566Y323121D01*
X250942Y322709D01*
X250330Y322282D01*
X249727Y321840D01*
X249136Y321383D01*
X248556Y320912D01*
X247987Y320427D01*
X247431Y319929D01*
X246887Y319417D01*
X246355Y318892D01*
X245837Y318354D01*
X245331Y317803D01*
X244840Y317241D01*
X244362Y316667D01*
X243898Y316081D01*
X243448Y315484D01*
X243014Y314876D01*
X242594Y314258D01*
X242189Y313630D01*
X241800Y312992D01*
X241427Y312345D01*
X241069Y311689D01*
X240727Y311025D01*
X240402Y310352D01*
X240093Y309672D01*
X239801Y308984D01*
X239525Y308290D01*
X239267Y307589D01*
X239026Y306882D01*
X238802Y306169D01*
X238595Y305451D01*
X238406Y304728D01*
X238235Y304001D01*
X238081Y303270D01*
X237946Y302535D01*
X237828Y301797D01*
X237728Y301057D01*
X237646Y300314D01*
X237583Y299569D01*
X237537Y298824D01*
X237510Y298077D01*
X237501Y297330D01*
X237500Y297330D02*
X237500Y281990D01*
X298861Y281990D01*
D12*
X296350Y724300D02*
X302700Y730650D01*
X302700Y743350D01*
X296350Y749700D01*
X283650Y749700D02*
X277300Y743350D01*
X277300Y730650D01*
X283650Y724300D01*
X302700Y692550D02*
X302700Y679850D01*
X302700Y692550D02*
X296350Y698900D01*
X283650Y698900D02*
X277300Y692550D01*
X296350Y698900D02*
X302700Y705250D01*
X302700Y717950D01*
X296350Y724300D01*
X283650Y724300D02*
X277300Y717950D01*
X277300Y705250D01*
X283650Y698900D01*
X302700Y654450D02*
X296350Y648100D01*
X302700Y654450D02*
X302700Y667150D01*
X296350Y673500D01*
X283650Y673500D02*
X277300Y667150D01*
X277300Y654450D01*
X283650Y648100D01*
X296350Y673500D02*
X302700Y679850D01*
X283650Y673500D02*
X277300Y679850D01*
X277300Y692550D01*
X302700Y616350D02*
X302700Y603650D01*
X302700Y616350D02*
X296350Y622700D01*
X283650Y622700D02*
X277300Y616350D01*
X296350Y622700D02*
X302700Y629050D01*
X302700Y641750D01*
X296350Y648100D01*
X283650Y648100D02*
X277300Y641750D01*
X277300Y629050D01*
X283650Y622700D01*
X283650Y597300D02*
X296350Y597300D01*
X302700Y603650D01*
X283650Y597300D02*
X277300Y603650D01*
X277300Y616350D01*
X283650Y749700D02*
X296350Y749700D01*
D13*
X305677Y599544D02*
X309431Y599544D01*
X305677Y599543D02*
X305612Y599541D01*
X305548Y599535D01*
X305484Y599525D01*
X305420Y599512D01*
X305358Y599494D01*
X305297Y599473D01*
X305237Y599449D01*
X305179Y599420D01*
X305122Y599388D01*
X305068Y599353D01*
X305016Y599315D01*
X304966Y599273D01*
X304919Y599229D01*
X304875Y599182D01*
X304833Y599132D01*
X304795Y599080D01*
X304760Y599026D01*
X304728Y598969D01*
X304699Y598911D01*
X304675Y598851D01*
X304654Y598790D01*
X304636Y598728D01*
X304623Y598664D01*
X304613Y598600D01*
X304607Y598536D01*
X304605Y598471D01*
X304605Y597935D01*
X308359Y602492D02*
X309431Y603832D01*
X304605Y603832D01*
X304605Y602492D02*
X304605Y605173D01*
M02*
