<?xml version="1.0"?>
<!-- Generated by SVGo -->
<svg width="106.002mm" height="106.002mm"
     viewBox="0.000 0.000 106.002 106.002"
     xmlns="http://www.w3.org/2000/svg" 
     xmlns:xlink="http://www.w3.org/1999/xlink">
<polygon points="96.002,5.001 96.394,5.016 96.784,5.062 97.169,5.139 97.547,5.245 97.915,5.381 98.271,5.545 98.614,5.737 98.940,5.955 99.249,6.198 99.537,6.465 99.804,6.753 100.047,7.062 100.265,7.388 100.457,7.731 100.621,8.087 100.757,8.455 100.863,8.833 100.940,9.218 100.986,9.608 101.002,10.001 101.002,96.002 100.986,96.394 100.940,96.784 100.863,97.169 100.757,97.547 100.621,97.915 100.457,98.271 100.265,98.614 100.047,98.940 99.804,99.249 99.537,99.537 99.249,99.804 98.940,100.047 98.614,100.265 98.271,100.457 97.915,100.621 97.547,100.757 97.169,100.863 96.784,100.940 96.394,100.986 96.001,101.002 10.001,101.002 9.608,100.986 9.218,100.940 8.833,100.863 8.455,100.757 8.087,100.621 7.731,100.457 7.388,100.265 7.062,100.047 6.753,99.804 6.465,99.537 6.198,99.249 5.955,98.940 5.737,98.614 5.545,98.271 5.381,97.915 5.245,97.547 5.139,97.169 5.062,96.784 5.016,96.394 5.000,96.001 5.001,10.001 5.016,9.608 5.062,9.218 5.139,8.833 5.245,8.455 5.381,8.087 5.545,7.731 5.737,7.388 5.955,7.062 6.198,6.753 6.465,6.465 6.753,6.198 7.062,5.955 7.388,5.737 7.731,5.545 8.087,5.381 8.455,5.245 8.833,5.139 9.218,5.062 9.608,5.016 10.001,5.000" style="fill:none;stroke-width:0.050000mm;stroke:black"/>
<polygon points="95.507,94.480 95.061,94.707 94.707,95.061 94.480,95.507 94.402,96.002 94.480,96.496 94.707,96.942 95.061,97.296 95.507,97.523 96.002,97.602 96.496,97.523 96.942,97.296 97.296,96.942 97.523,96.496 97.602,96.002 97.523,95.507 97.296,95.061 96.942,94.707 96.496,94.480 96.002,94.402" style="fill:none;stroke-width:0.050000mm;stroke:black"/>
<polygon points="9.506,94.480 9.060,94.707 8.706,95.061 8.479,95.507 8.401,96.002 8.479,96.496 8.706,96.942 9.060,97.296 9.506,97.523 10.001,97.602 10.495,97.523 10.941,97.296 11.295,96.942 11.522,96.496 11.601,96.002 11.522,95.507 11.295,95.061 10.941,94.707 10.495,94.480 10.001,94.402" style="fill:none;stroke-width:0.050000mm;stroke:black"/>
<polygon points="95.507,8.479 95.061,8.706 94.707,9.060 94.480,9.506 94.402,10.001 94.480,10.495 94.707,10.941 95.061,11.295 95.507,11.522 96.002,11.601 96.496,11.522 96.942,11.295 97.296,10.941 97.523,10.495 97.602,10.001 97.523,9.506 97.296,9.060 96.942,8.706 96.496,8.479 96.002,8.401" style="fill:none;stroke-width:0.050000mm;stroke:black"/>
<polygon points="9.506,8.479 9.060,8.706 8.706,9.060 8.479,9.506 8.401,10.001 8.479,10.495 8.706,10.941 9.060,11.295 9.506,11.522 10.001,11.601 10.495,11.522 10.941,11.295 11.295,10.941 11.522,10.495 11.601,10.001 11.522,9.506 11.295,9.060 10.941,8.706 10.495,8.479 10.001,8.401" style="fill:none;stroke-width:0.050000mm;stroke:black"/>
</svg>
