  0
SECTION
  2
HEADER
  9
$ACADVER
  1
AC1009
  9
$EXTMIN
 10
0.0
 20
0.0
 30
0.0
  9
$EXTMAX
 10
1000.0
 20
1000.0
 30
0.0
  9
$FILLMODE
 70
 0
  9
$SPLFRAME
 70
 1
  0
ENDSEC
  0
SECTION
  2
TABLES
  0
TABLE
  2
LAYER
 70
1
  0
LAYER
  2
0
 70
     0
 62
     7
  6
CONTINUOUS
  0
ENDTAB
  0
ENDSEC
  0
SECTION
  2
ENTITIES
  0
LINE
  8
0
 62
     0
 10
91.0953
 20
96.0921
 30
0.0
 11
91.488
 21
96.0769
 31
0.0
  0
LINE
  8
0
 62
     0
 10
91.488
 20
96.0769
 30
0.0
 11
91.8778
 21
96.0314
 31
0.0
  0
LINE
  8
0
 62
     0
 10
91.8778
 20
96.0314
 30
0.0
 11
92.2623
 21
95.9541
 31
0.0
  0
LINE
  8
0
 62
     0
 10
92.2623
 20
95.9541
 30
0.0
 11
92.6412
 21
95.848
 31
0.0
  0
LINE
  8
0
 62
     0
 10
92.6412
 20
95.848
 30
0.0
 11
93.0092
 21
95.7118
 31
0.0
  0
LINE
  8
0
 62
     0
 10
93.0092
 20
95.7118
 30
0.0
 11
93.3648
 21
95.5477
 31
0.0
  0
LINE
  8
0
 62
     0
 10
93.3648
 20
95.5477
 30
0.0
 11
93.708
 21
95.3562
 31
0.0
  0
LINE
  8
0
 62
     0
 10
93.708
 20
95.3562
 30
0.0
 11
94.0333
 21
95.1385
 31
0.0
  0
LINE
  8
0
 62
     0
 10
94.0333
 20
95.1385
 30
0.0
 11
94.3434
 21
94.8958
 31
0.0
  0
LINE
  8
0
 62
     0
 10
94.3434
 20
94.8958
 30
0.0
 11
94.6312
 21
94.6284
 31
0.0
  0
LINE
  8
0
 62
     0
 10
94.6312
 20
94.6284
 30
0.0
 11
94.8972
 21
94.3405
 31
0.0
  0
LINE
  8
0
 62
     0
 10
94.8972
 20
94.3405
 30
0.0
 11
95.141
 21
94.0319
 31
0.0
  0
LINE
  8
0
 62
     0
 10
95.141
 20
94.0319
 30
0.0
 11
95.359
 21
93.7052
 31
0.0
  0
LINE
  8
0
 62
     0
 10
95.359
 20
93.7052
 30
0.0
 11
95.5506
 21
93.3619
 31
0.0
  0
LINE
  8
0
 62
     0
 10
95.5506
 20
93.3619
 30
0.0
 11
95.7143
 21
93.0067
 31
0.0
  0
LINE
  8
0
 62
     0
 10
95.7143
 20
93.0067
 30
0.0
 11
95.8508
 21
92.6387
 31
0.0
  0
LINE
  8
0
 62
     0
 10
95.8508
 20
92.6387
 30
0.0
 11
95.957
 21
92.2595
 31
0.0
  0
LINE
  8
0
 62
     0
 10
95.957
 20
92.2595
 30
0.0
 11
96.0342
 21
91.8753
 31
0.0
  0
LINE
  8
0
 62
     0
 10
96.0342
 20
91.8753
 30
0.0
 11
96.0797
 21
91.4852
 31
0.0
  0
LINE
  8
0
 62
     0
 10
96.0797
 20
91.4852
 30
0.0
 11
96.096
 21
91.0925
 31
0.0
  0
LINE
  8
0
 62
     0
 10
96.096
 20
91.0925
 30
0.0
 11
96.096
 21
5.09185
 31
0.0
  0
LINE
  8
0
 62
     0
 10
96.096
 20
5.09185
 30
0.0
 11
96.0797
 21
4.69911
 31
0.0
  0
LINE
  8
0
 62
     0
 10
96.0797
 20
4.69911
 30
0.0
 11
96.0342
 21
4.30911
 31
0.0
  0
LINE
  8
0
 62
     0
 10
96.0342
 20
4.30911
 30
0.0
 11
95.957
 21
3.92465
 31
0.0
  0
LINE
  8
0
 62
     0
 10
95.957
 20
3.92465
 30
0.0
 11
95.8508
 21
3.5457
 31
0.0
  0
LINE
  8
0
 62
     0
 10
95.8508
 20
3.5457
 30
0.0
 11
95.7143
 21
3.17776
 31
0.0
  0
LINE
  8
0
 62
     0
 10
95.7143
 20
3.17776
 30
0.0
 11
95.5506
 21
2.82222
 31
0.0
  0
LINE
  8
0
 62
     0
 10
95.5506
 20
2.82222
 30
0.0
 11
95.359
 21
2.47909
 31
0.0
  0
LINE
  8
0
 62
     0
 10
95.359
 20
2.47909
 30
0.0
 11
95.141
 21
2.15387
 31
0.0
  0
LINE
  8
0
 62
     0
 10
95.141
 20
2.15387
 30
0.0
 11
94.8972
 21
1.84381
 31
0.0
  0
LINE
  8
0
 62
     0
 10
94.8972
 20
1.84381
 30
0.0
 11
94.6312
 21
1.55581
 31
0.0
  0
LINE
  8
0
 62
     0
 10
94.6312
 20
1.55581
 30
0.0
 11
94.3434
 21
1.28984
 31
0.0
  0
LINE
  8
0
 62
     0
 10
94.3434
 20
1.28984
 30
0.0
 11
94.0333
 21
1.04593
 31
0.0
  0
LINE
  8
0
 62
     0
 10
94.0333
 20
1.04593
 30
0.0
 11
93.708
 21
0.828202
 31
0.0
  0
LINE
  8
0
 62
     0
 10
93.708
 20
0.828202
 30
0.0
 11
93.3648
 21
0.636655
 31
0.0
  0
LINE
  8
0
 62
     0
 10
93.3648
 20
0.636655
 30
0.0
 11
93.0092
 21
0.472666
 31
0.0
  0
LINE
  8
0
 62
     0
 10
93.0092
 20
0.472666
 30
0.0
 11
92.6412
 21
0.336241
 31
0.0
  0
LINE
  8
0
 62
     0
 10
92.6412
 20
0.336241
 30
0.0
 11
92.2623
 21
0.230132
 31
0.0
  0
LINE
  8
0
 62
     0
 10
92.2623
 20
0.230132
 30
0.0
 11
91.8778
 21
0.152962
 31
0.0
  0
LINE
  8
0
 62
     0
 10
91.8778
 20
0.152962
 30
0.0
 11
91.488
 21
0.107487
 31
0.0
  0
LINE
  8
0
 62
     0
 10
91.488
 20
0.107487
 30
0.0
 11
91.0953
 21
0.0909507
 31
0.0
  0
LINE
  8
0
 62
     0
 10
91.0953
 20
0.0909507
 30
0.0
 11
5.0946
 21
0.0909507
 31
0.0
  0
LINE
  8
0
 62
     0
 10
5.0946
 20
0.0909507
 30
0.0
 11
4.70186
 21
0.107487
 31
0.0
  0
LINE
  8
0
 62
     0
 10
4.70186
 20
0.107487
 30
0.0
 11
4.3119
 21
0.152962
 31
0.0
  0
LINE
  8
0
 62
     0
 10
4.3119
 20
0.152962
 30
0.0
 11
3.9274
 21
0.230132
 31
0.0
  0
LINE
  8
0
 62
     0
 10
3.9274
 20
0.230132
 30
0.0
 11
3.54845
 21
0.336241
 31
0.0
  0
LINE
  8
0
 62
     0
 10
3.54845
 20
0.336241
 30
0.0
 11
3.18051
 21
0.472666
 31
0.0
  0
LINE
  8
0
 62
     0
 10
3.18051
 20
0.472666
 30
0.0
 11
2.82498
 21
0.636655
 31
0.0
  0
LINE
  8
0
 62
     0
 10
2.82498
 20
0.636655
 30
0.0
 11
2.48185
 21
0.828202
 31
0.0
  0
LINE
  8
0
 62
     0
 10
2.48185
 20
0.828202
 30
0.0
 11
2.15525
 21
1.04593
 31
0.0
  0
LINE
  8
0
 62
     0
 10
2.15525
 20
1.04593
 30
0.0
 11
1.84657
 21
1.28984
 31
0.0
  0
LINE
  8
0
 62
     0
 10
1.84657
 20
1.28984
 30
0.0
 11
1.55856
 21
1.55581
 31
0.0
  0
LINE
  8
0
 62
     0
 10
1.55856
 20
1.55581
 30
0.0
 11
1.29122
 21
1.84381
 31
0.0
  0
LINE
  8
0
 62
     0
 10
1.29122
 20
1.84381
 30
0.0
 11
1.04869
 21
2.15387
 31
0.0
  0
LINE
  8
0
 62
     0
 10
1.04869
 20
2.15387
 30
0.0
 11
0.830957
 21
2.47909
 31
0.0
  0
LINE
  8
0
 62
     0
 10
0.830957
 20
2.47909
 30
0.0
 11
0.63941
 21
2.82222
 31
0.0
  0
LINE
  8
0
 62
     0
 10
0.63941
 20
2.82222
 30
0.0
 11
0.475424
 21
3.17776
 31
0.0
  0
LINE
  8
0
 62
     0
 10
0.475424
 20
3.17776
 30
0.0
 11
0.338998
 21
3.5457
 31
0.0
  0
LINE
  8
0
 62
     0
 10
0.338998
 20
3.5457
 30
0.0
 11
0.232888
 21
3.92465
 31
0.0
  0
LINE
  8
0
 62
     0
 10
0.232888
 20
3.92465
 30
0.0
 11
0.155718
 21
4.30911
 31
0.0
  0
LINE
  8
0
 62
     0
 10
0.155718
 20
4.30911
 30
0.0
 11
0.110243
 21
4.69911
 31
0.0
  0
LINE
  8
0
 62
     0
 10
0.110243
 20
4.69911
 30
0.0
 11
0.0937066
 21
5.09185
 31
0.0
  0
LINE
  8
0
 62
     0
 10
0.0937066
 20
5.09185
 30
0.0
 11
0.0950846
 21
91.0925
 31
0.0
  0
LINE
  8
0
 62
     0
 10
0.0950846
 20
91.0925
 30
0.0
 11
0.110243
 21
91.4852
 31
0.0
  0
LINE
  8
0
 62
     0
 10
0.110243
 20
91.4852
 30
0.0
 11
0.155718
 21
91.8753
 31
0.0
  0
LINE
  8
0
 62
     0
 10
0.155718
 20
91.8753
 30
0.0
 11
0.232888
 21
92.2595
 31
0.0
  0
LINE
  8
0
 62
     0
 10
0.232888
 20
92.2595
 30
0.0
 11
0.338998
 21
92.6387
 31
0.0
  0
LINE
  8
0
 62
     0
 10
0.338998
 20
92.6387
 30
0.0
 11
0.475424
 21
93.0067
 31
0.0
  0
LINE
  8
0
 62
     0
 10
0.475424
 20
93.0067
 30
0.0
 11
0.63941
 21
93.3619
 31
0.0
  0
LINE
  8
0
 62
     0
 10
0.63941
 20
93.3619
 30
0.0
 11
0.830957
 21
93.7052
 31
0.0
  0
LINE
  8
0
 62
     0
 10
0.830957
 20
93.7052
 30
0.0
 11
1.04869
 21
94.0319
 31
0.0
  0
LINE
  8
0
 62
     0
 10
1.04869
 20
94.0319
 30
0.0
 11
1.29122
 21
94.3405
 31
0.0
  0
LINE
  8
0
 62
     0
 10
1.29122
 20
94.3405
 30
0.0
 11
1.55856
 21
94.6284
 31
0.0
  0
LINE
  8
0
 62
     0
 10
1.55856
 20
94.6284
 30
0.0
 11
1.84657
 21
94.8958
 31
0.0
  0
LINE
  8
0
 62
     0
 10
1.84657
 20
94.8958
 30
0.0
 11
2.15525
 21
95.1385
 31
0.0
  0
LINE
  8
0
 62
     0
 10
2.15525
 20
95.1385
 30
0.0
 11
2.48185
 21
95.3562
 31
0.0
  0
LINE
  8
0
 62
     0
 10
2.48185
 20
95.3562
 30
0.0
 11
2.82498
 21
95.5477
 31
0.0
  0
LINE
  8
0
 62
     0
 10
2.82498
 20
95.5477
 30
0.0
 11
3.18051
 21
95.7118
 31
0.0
  0
LINE
  8
0
 62
     0
 10
3.18051
 20
95.7118
 30
0.0
 11
3.54845
 21
95.848
 31
0.0
  0
LINE
  8
0
 62
     0
 10
3.54845
 20
95.848
 30
0.0
 11
3.9274
 21
95.9541
 31
0.0
  0
LINE
  8
0
 62
     0
 10
3.9274
 20
95.9541
 30
0.0
 11
4.3119
 21
96.0314
 31
0.0
  0
LINE
  8
0
 62
     0
 10
4.3119
 20
96.0314
 30
0.0
 11
4.70186
 21
96.0769
 31
0.0
  0
LINE
  8
0
 62
     0
 10
4.70186
 20
96.0769
 30
0.0
 11
5.0946
 21
96.0935
 31
0.0
  0
LINE
  8
0
 62
     0
 10
5.0946
 20
96.0935
 30
0.0
 11
91.0953
 21
96.0921
 31
0.0
  0
LINE
  8
0
 62
     0
 10
90.6004
 20
6.61321
 30
0.0
 11
90.1555
 21
6.38584
 31
0.0
  0
LINE
  8
0
 62
     0
 10
90.1555
 20
6.38584
 30
0.0
 11
89.8013
 21
6.03169
 31
0.0
  0
LINE
  8
0
 62
     0
 10
89.8013
 20
6.03169
 30
0.0
 11
89.5738
 21
5.58655
 31
0.0
  0
LINE
  8
0
 62
     0
 10
89.5738
 20
5.58655
 30
0.0
 11
89.4955
 21
5.09185
 31
0.0
  0
LINE
  8
0
 62
     0
 10
89.4955
 20
5.09185
 30
0.0
 11
89.5738
 21
4.59715
 31
0.0
  0
LINE
  8
0
 62
     0
 10
89.5738
 20
4.59715
 30
0.0
 11
89.8013
 21
4.15064
 31
0.0
  0
LINE
  8
0
 62
     0
 10
89.8013
 20
4.15064
 30
0.0
 11
90.1555
 21
3.79786
 31
0.0
  0
LINE
  8
0
 62
     0
 10
90.1555
 20
3.79786
 30
0.0
 11
90.6004
 21
3.5705
 31
0.0
  0
LINE
  8
0
 62
     0
 10
90.6004
 20
3.5705
 30
0.0
 11
91.0953
 21
3.49195
 31
0.0
  0
LINE
  8
0
 62
     0
 10
91.0953
 20
3.49195
 30
0.0
 11
91.5899
 21
3.5705
 31
0.0
  0
LINE
  8
0
 62
     0
 10
91.5899
 20
3.5705
 30
0.0
 11
92.0365
 21
3.79786
 31
0.0
  0
LINE
  8
0
 62
     0
 10
92.0365
 20
3.79786
 30
0.0
 11
92.3893
 21
4.15064
 31
0.0
  0
LINE
  8
0
 62
     0
 10
92.3893
 20
4.15064
 30
0.0
 11
92.6165
 21
4.59715
 31
0.0
  0
LINE
  8
0
 62
     0
 10
92.6165
 20
4.59715
 30
0.0
 11
92.6952
 21
5.09185
 31
0.0
  0
LINE
  8
0
 62
     0
 10
92.6952
 20
5.09185
 30
0.0
 11
92.6165
 21
5.58655
 31
0.0
  0
LINE
  8
0
 62
     0
 10
92.6165
 20
5.58655
 30
0.0
 11
92.3893
 21
6.03169
 31
0.0
  0
LINE
  8
0
 62
     0
 10
92.3893
 20
6.03169
 30
0.0
 11
92.0365
 21
6.38584
 31
0.0
  0
LINE
  8
0
 62
     0
 10
92.0365
 20
6.38584
 30
0.0
 11
91.5899
 21
6.61321
 31
0.0
  0
LINE
  8
0
 62
     0
 10
91.5899
 20
6.61321
 30
0.0
 11
91.0953
 21
6.69177
 31
0.0
  0
LINE
  8
0
 62
     0
 10
91.0953
 20
6.69177
 30
0.0
 11
90.6004
 21
6.61321
 31
0.0
  0
LINE
  8
0
 62
     0
 10
4.5999
 20
6.61321
 30
0.0
 11
4.15339
 21
6.38584
 31
0.0
  0
LINE
  8
0
 62
     0
 10
4.15339
 20
6.38584
 30
0.0
 11
3.79924
 21
6.03169
 31
0.0
  0
LINE
  8
0
 62
     0
 10
3.79924
 20
6.03169
 30
0.0
 11
3.57325
 21
5.58655
 31
0.0
  0
LINE
  8
0
 62
     0
 10
3.57325
 20
5.58655
 30
0.0
 11
3.4947
 21
5.09185
 31
0.0
  0
LINE
  8
0
 62
     0
 10
3.4947
 20
5.09185
 30
0.0
 11
3.57325
 21
4.59715
 31
0.0
  0
LINE
  8
0
 62
     0
 10
3.57325
 20
4.59715
 30
0.0
 11
3.79924
 21
4.15064
 31
0.0
  0
LINE
  8
0
 62
     0
 10
3.79924
 20
4.15064
 30
0.0
 11
4.15339
 21
3.79786
 31
0.0
  0
LINE
  8
0
 62
     0
 10
4.15339
 20
3.79786
 30
0.0
 11
4.5999
 21
3.5705
 31
0.0
  0
LINE
  8
0
 62
     0
 10
4.5999
 20
3.5705
 30
0.0
 11
5.0946
 21
3.49195
 31
0.0
  0
LINE
  8
0
 62
     0
 10
5.0946
 20
3.49195
 30
0.0
 11
5.58934
 21
3.5705
 31
0.0
  0
LINE
  8
0
 62
     0
 10
5.58934
 20
3.5705
 30
0.0
 11
6.03444
 21
3.79786
 31
0.0
  0
LINE
  8
0
 62
     0
 10
6.03444
 20
3.79786
 30
0.0
 11
6.38859
 21
4.15064
 31
0.0
  0
LINE
  8
0
 62
     0
 10
6.38859
 20
4.15064
 30
0.0
 11
6.61596
 21
4.59715
 31
0.0
  0
LINE
  8
0
 62
     0
 10
6.61596
 20
4.59715
 30
0.0
 11
6.69452
 21
5.09185
 31
0.0
  0
LINE
  8
0
 62
     0
 10
6.69452
 20
5.09185
 30
0.0
 11
6.61596
 21
5.58655
 31
0.0
  0
LINE
  8
0
 62
     0
 10
6.61596
 20
5.58655
 30
0.0
 11
6.38859
 21
6.03169
 31
0.0
  0
LINE
  8
0
 62
     0
 10
6.38859
 20
6.03169
 30
0.0
 11
6.03444
 21
6.38584
 31
0.0
  0
LINE
  8
0
 62
     0
 10
6.03444
 20
6.38584
 30
0.0
 11
5.58934
 21
6.61321
 31
0.0
  0
LINE
  8
0
 62
     0
 10
5.58934
 20
6.61321
 30
0.0
 11
5.0946
 21
6.69177
 31
0.0
  0
LINE
  8
0
 62
     0
 10
5.0946
 20
6.69177
 30
0.0
 11
4.5999
 21
6.61321
 31
0.0
  0
LINE
  8
0
 62
     0
 10
12.5953
 20
26.592
 30
0.0
 11
26.5948
 21
26.592
 31
0.0
  0
LINE
  8
0
 62
     0
 10
26.5948
 20
26.592
 30
0.0
 11
26.5948
 21
12.5925
 31
0.0
  0
LINE
  8
0
 62
     0
 10
26.5948
 20
12.5925
 30
0.0
 11
12.5953
 21
12.5925
 31
0.0
  0
LINE
  8
0
 62
     0
 10
12.5953
 20
12.5925
 30
0.0
 11
12.5953
 21
26.592
 31
0.0
  0
LINE
  8
0
 62
     0
 10
31.5943
 20
26.592
 30
0.0
 11
45.5951
 21
26.592
 31
0.0
  0
LINE
  8
0
 62
     0
 10
45.5951
 20
26.592
 30
0.0
 11
45.5951
 21
12.5925
 31
0.0
  0
LINE
  8
0
 62
     0
 10
45.5951
 20
12.5925
 30
0.0
 11
31.5943
 21
12.5925
 31
0.0
  0
LINE
  8
0
 62
     0
 10
31.5943
 20
12.5925
 30
0.0
 11
31.5943
 21
26.592
 31
0.0
  0
LINE
  8
0
 62
     0
 10
50.5947
 20
26.592
 30
0.0
 11
64.5943
 21
26.592
 31
0.0
  0
LINE
  8
0
 62
     0
 10
64.5943
 20
26.592
 30
0.0
 11
64.5943
 21
12.5925
 31
0.0
  0
LINE
  8
0
 62
     0
 10
64.5943
 20
12.5925
 30
0.0
 11
50.5947
 21
12.5925
 31
0.0
  0
LINE
  8
0
 62
     0
 10
50.5947
 20
12.5925
 30
0.0
 11
50.5947
 21
26.592
 31
0.0
  0
LINE
  8
0
 62
     0
 10
69.5949
 20
26.592
 30
0.0
 11
83.5946
 21
26.592
 31
0.0
  0
LINE
  8
0
 62
     0
 10
83.5946
 20
26.592
 30
0.0
 11
83.5946
 21
12.5925
 31
0.0
  0
LINE
  8
0
 62
     0
 10
83.5946
 20
12.5925
 30
0.0
 11
69.5949
 21
12.5925
 31
0.0
  0
LINE
  8
0
 62
     0
 10
69.5949
 20
12.5925
 30
0.0
 11
69.5949
 21
26.592
 31
0.0
  0
LINE
  8
0
 62
     0
 10
12.5953
 20
45.5923
 30
0.0
 11
26.5948
 21
45.5923
 31
0.0
  0
LINE
  8
0
 62
     0
 10
26.5948
 20
45.5923
 30
0.0
 11
26.5948
 21
31.5929
 31
0.0
  0
LINE
  8
0
 62
     0
 10
26.5948
 20
31.5929
 30
0.0
 11
12.5953
 21
31.5929
 31
0.0
  0
LINE
  8
0
 62
     0
 10
12.5953
 20
31.5929
 30
0.0
 11
12.5953
 21
45.5923
 31
0.0
  0
LINE
  8
0
 62
     0
 10
31.5943
 20
45.5923
 30
0.0
 11
45.5951
 21
45.5923
 31
0.0
  0
LINE
  8
0
 62
     0
 10
45.5951
 20
45.5923
 30
0.0
 11
45.5951
 21
31.5929
 31
0.0
  0
LINE
  8
0
 62
     0
 10
45.5951
 20
31.5929
 30
0.0
 11
31.5943
 21
31.5929
 31
0.0
  0
LINE
  8
0
 62
     0
 10
31.5943
 20
31.5929
 30
0.0
 11
31.5943
 21
45.5923
 31
0.0
  0
LINE
  8
0
 62
     0
 10
50.5947
 20
45.5923
 30
0.0
 11
64.5943
 21
45.5923
 31
0.0
  0
LINE
  8
0
 62
     0
 10
64.5943
 20
45.5923
 30
0.0
 11
64.5943
 21
31.5929
 31
0.0
  0
LINE
  8
0
 62
     0
 10
64.5943
 20
31.5929
 30
0.0
 11
50.5947
 21
31.5929
 31
0.0
  0
LINE
  8
0
 62
     0
 10
50.5947
 20
31.5929
 30
0.0
 11
50.5947
 21
45.5923
 31
0.0
  0
LINE
  8
0
 62
     0
 10
69.5949
 20
45.5923
 30
0.0
 11
83.5946
 21
45.5923
 31
0.0
  0
LINE
  8
0
 62
     0
 10
83.5946
 20
45.5923
 30
0.0
 11
83.5946
 21
31.5929
 31
0.0
  0
LINE
  8
0
 62
     0
 10
83.5946
 20
31.5929
 30
0.0
 11
69.5949
 21
31.5929
 31
0.0
  0
LINE
  8
0
 62
     0
 10
69.5949
 20
31.5929
 30
0.0
 11
69.5949
 21
45.5923
 31
0.0
  0
LINE
  8
0
 62
     0
 10
12.5953
 20
64.5929
 30
0.0
 11
26.5948
 21
64.5929
 31
0.0
  0
LINE
  8
0
 62
     0
 10
26.5948
 20
64.5929
 30
0.0
 11
26.5948
 21
50.5919
 31
0.0
  0
LINE
  8
0
 62
     0
 10
26.5948
 20
50.5919
 30
0.0
 11
12.5953
 21
50.5919
 31
0.0
  0
LINE
  8
0
 62
     0
 10
12.5953
 20
50.5919
 30
0.0
 11
12.5953
 21
64.5929
 31
0.0
  0
LINE
  8
0
 62
     0
 10
31.5943
 20
64.5929
 30
0.0
 11
45.5951
 21
64.5929
 31
0.0
  0
LINE
  8
0
 62
     0
 10
45.5951
 20
64.5929
 30
0.0
 11
45.5951
 21
50.5919
 31
0.0
  0
LINE
  8
0
 62
     0
 10
45.5951
 20
50.5919
 30
0.0
 11
31.5943
 21
50.5919
 31
0.0
  0
LINE
  8
0
 62
     0
 10
31.5943
 20
50.5919
 30
0.0
 11
31.5943
 21
64.5929
 31
0.0
  0
LINE
  8
0
 62
     0
 10
50.5947
 20
64.5929
 30
0.0
 11
64.5943
 21
64.5929
 31
0.0
  0
LINE
  8
0
 62
     0
 10
64.5943
 20
64.5929
 30
0.0
 11
64.5943
 21
50.5919
 31
0.0
  0
LINE
  8
0
 62
     0
 10
64.5943
 20
50.5919
 30
0.0
 11
50.5947
 21
50.5919
 31
0.0
  0
LINE
  8
0
 62
     0
 10
50.5947
 20
50.5919
 30
0.0
 11
50.5947
 21
64.5929
 31
0.0
  0
LINE
  8
0
 62
     0
 10
69.5949
 20
64.5929
 30
0.0
 11
83.5946
 21
64.5929
 31
0.0
  0
LINE
  8
0
 62
     0
 10
83.5946
 20
64.5929
 30
0.0
 11
83.5946
 21
50.5919
 31
0.0
  0
LINE
  8
0
 62
     0
 10
83.5946
 20
50.5919
 30
0.0
 11
69.5949
 21
50.5919
 31
0.0
  0
LINE
  8
0
 62
     0
 10
69.5949
 20
50.5919
 30
0.0
 11
69.5949
 21
64.5929
 31
0.0
  0
LINE
  8
0
 62
     0
 10
12.5953
 20
83.5918
 30
0.0
 11
26.5948
 21
83.5918
 31
0.0
  0
LINE
  8
0
 62
     0
 10
26.5948
 20
83.5918
 30
0.0
 11
26.5948
 21
69.5925
 31
0.0
  0
LINE
  8
0
 62
     0
 10
26.5948
 20
69.5925
 30
0.0
 11
12.5953
 21
69.5925
 31
0.0
  0
LINE
  8
0
 62
     0
 10
12.5953
 20
69.5925
 30
0.0
 11
12.5953
 21
83.5918
 31
0.0
  0
LINE
  8
0
 62
     0
 10
31.5943
 20
83.5918
 30
0.0
 11
45.5951
 21
83.5918
 31
0.0
  0
LINE
  8
0
 62
     0
 10
45.5951
 20
83.5918
 30
0.0
 11
45.5951
 21
69.5925
 31
0.0
  0
LINE
  8
0
 62
     0
 10
45.5951
 20
69.5925
 30
0.0
 11
31.5943
 21
69.5925
 31
0.0
  0
LINE
  8
0
 62
     0
 10
31.5943
 20
69.5925
 30
0.0
 11
31.5943
 21
83.5918
 31
0.0
  0
LINE
  8
0
 62
     0
 10
50.5947
 20
83.5918
 30
0.0
 11
64.5943
 21
83.5918
 31
0.0
  0
LINE
  8
0
 62
     0
 10
64.5943
 20
83.5918
 30
0.0
 11
64.5943
 21
69.5925
 31
0.0
  0
LINE
  8
0
 62
     0
 10
64.5943
 20
69.5925
 30
0.0
 11
50.5947
 21
69.5925
 31
0.0
  0
LINE
  8
0
 62
     0
 10
50.5947
 20
69.5925
 30
0.0
 11
50.5947
 21
83.5918
 31
0.0
  0
LINE
  8
0
 62
     0
 10
69.5949
 20
83.5918
 30
0.0
 11
83.5946
 21
83.5918
 31
0.0
  0
LINE
  8
0
 62
     0
 10
83.5946
 20
83.5918
 30
0.0
 11
83.5946
 21
69.5925
 31
0.0
  0
LINE
  8
0
 62
     0
 10
83.5946
 20
69.5925
 30
0.0
 11
69.5949
 21
69.5925
 31
0.0
  0
LINE
  8
0
 62
     0
 10
69.5949
 20
69.5925
 30
0.0
 11
69.5949
 21
83.5918
 31
0.0
  0
LINE
  8
0
 62
     0
 10
90.6004
 20
92.6137
 30
0.0
 11
90.1555
 21
92.3879
 31
0.0
  0
LINE
  8
0
 62
     0
 10
90.1555
 20
92.3879
 30
0.0
 11
89.8013
 21
92.0337
 31
0.0
  0
LINE
  8
0
 62
     0
 10
89.8013
 20
92.0337
 30
0.0
 11
89.5738
 21
91.5871
 31
0.0
  0
LINE
  8
0
 62
     0
 10
89.5738
 20
91.5871
 30
0.0
 11
89.4955
 21
91.0925
 31
0.0
  0
LINE
  8
0
 62
     0
 10
89.4955
 20
91.0925
 30
0.0
 11
89.5738
 21
90.5979
 31
0.0
  0
LINE
  8
0
 62
     0
 10
89.5738
 20
90.5979
 30
0.0
 11
89.8013
 21
90.1527
 31
0.0
  0
LINE
  8
0
 62
     0
 10
89.8013
 20
90.1527
 30
0.0
 11
90.1555
 21
89.7985
 31
0.0
  0
LINE
  8
0
 62
     0
 10
90.1555
 20
89.7985
 30
0.0
 11
90.6004
 21
89.571
 31
0.0
  0
LINE
  8
0
 62
     0
 10
90.6004
 20
89.571
 30
0.0
 11
91.0953
 21
89.4927
 31
0.0
  0
LINE
  8
0
 62
     0
 10
91.0953
 20
89.4927
 30
0.0
 11
91.5899
 21
89.571
 31
0.0
  0
LINE
  8
0
 62
     0
 10
91.5899
 20
89.571
 30
0.0
 11
92.0365
 21
89.7985
 31
0.0
  0
LINE
  8
0
 62
     0
 10
92.0365
 20
89.7985
 30
0.0
 11
92.3893
 21
90.1527
 31
0.0
  0
LINE
  8
0
 62
     0
 10
92.3893
 20
90.1527
 30
0.0
 11
92.6165
 21
90.5979
 31
0.0
  0
LINE
  8
0
 62
     0
 10
92.6165
 20
90.5979
 30
0.0
 11
92.6952
 21
91.0925
 31
0.0
  0
LINE
  8
0
 62
     0
 10
92.6952
 20
91.0925
 30
0.0
 11
92.6165
 21
91.5871
 31
0.0
  0
LINE
  8
0
 62
     0
 10
92.6165
 20
91.5871
 30
0.0
 11
92.3893
 21
92.0337
 31
0.0
  0
LINE
  8
0
 62
     0
 10
92.3893
 20
92.0337
 30
0.0
 11
92.0365
 21
92.3879
 31
0.0
  0
LINE
  8
0
 62
     0
 10
92.0365
 20
92.3879
 30
0.0
 11
91.5899
 21
92.6137
 31
0.0
  0
LINE
  8
0
 62
     0
 10
91.5899
 20
92.6137
 30
0.0
 11
91.0953
 21
92.6924
 31
0.0
  0
LINE
  8
0
 62
     0
 10
91.0953
 20
92.6924
 30
0.0
 11
90.6004
 21
92.6137
 31
0.0
  0
LINE
  8
0
 62
     0
 10
4.5999
 20
92.6137
 30
0.0
 11
4.15339
 21
92.3879
 31
0.0
  0
LINE
  8
0
 62
     0
 10
4.15339
 20
92.3879
 30
0.0
 11
3.79924
 21
92.0337
 31
0.0
  0
LINE
  8
0
 62
     0
 10
3.79924
 20
92.0337
 30
0.0
 11
3.57325
 21
91.5871
 31
0.0
  0
LINE
  8
0
 62
     0
 10
3.57325
 20
91.5871
 30
0.0
 11
3.4947
 21
91.0925
 31
0.0
  0
LINE
  8
0
 62
     0
 10
3.4947
 20
91.0925
 30
0.0
 11
3.57325
 21
90.5979
 31
0.0
  0
LINE
  8
0
 62
     0
 10
3.57325
 20
90.5979
 30
0.0
 11
3.79924
 21
90.1527
 31
0.0
  0
LINE
  8
0
 62
     0
 10
3.79924
 20
90.1527
 30
0.0
 11
4.15339
 21
89.7985
 31
0.0
  0
LINE
  8
0
 62
     0
 10
4.15339
 20
89.7985
 30
0.0
 11
4.5999
 21
89.571
 31
0.0
  0
LINE
  8
0
 62
     0
 10
4.5999
 20
89.571
 30
0.0
 11
5.0946
 21
89.4927
 31
0.0
  0
LINE
  8
0
 62
     0
 10
5.0946
 20
89.4927
 30
0.0
 11
5.58934
 21
89.571
 31
0.0
  0
LINE
  8
0
 62
     0
 10
5.58934
 20
89.571
 30
0.0
 11
6.03444
 21
89.7985
 31
0.0
  0
LINE
  8
0
 62
     0
 10
6.03444
 20
89.7985
 30
0.0
 11
6.38859
 21
90.1527
 31
0.0
  0
LINE
  8
0
 62
     0
 10
6.38859
 20
90.1527
 30
0.0
 11
6.61596
 21
90.5979
 31
0.0
  0
LINE
  8
0
 62
     0
 10
6.61596
 20
90.5979
 30
0.0
 11
6.69452
 21
91.0925
 31
0.0
  0
LINE
  8
0
 62
     0
 10
6.69452
 20
91.0925
 30
0.0
 11
6.61596
 21
91.5871
 31
0.0
  0
LINE
  8
0
 62
     0
 10
6.61596
 20
91.5871
 30
0.0
 11
6.38859
 21
92.0337
 31
0.0
  0
LINE
  8
0
 62
     0
 10
6.38859
 20
92.0337
 30
0.0
 11
6.03444
 21
92.3879
 31
0.0
  0
LINE
  8
0
 62
     0
 10
6.03444
 20
92.3879
 30
0.0
 11
5.58934
 21
92.6137
 31
0.0
  0
LINE
  8
0
 62
     0
 10
5.58934
 20
92.6137
 30
0.0
 11
5.0946
 21
92.6924
 31
0.0
  0
LINE
  8
0
 62
     0
 10
5.0946
 20
92.6924
 30
0.0
 11
4.5999
 21
92.6137
 31
0.0
  0
ENDSEC
  0
EOF
