M48
;GenerationSoftware,Autodesk,EAGLE,9.1.2*%
;CreationDate,2018-09-23T14:51:43Z*%
FMAT,2
ICI,OFF
METRIC,TZ,000.000
T7C0.254
T6C0.900
T5C0.991
T4C1.016
T3C1.499
T2C1.702
T1C3.988
%
G90
M71
T1
X57000Y71000
X19000Y14000
X19000Y71000
X76000Y52000
X76000Y14000
X57000Y14000
X38000Y52000
X38000Y14000
X19000Y33000
X76000Y33000
X38000Y33000
X76000Y71000
X57000Y52000
X19000Y52000
X38000Y71000
X57000Y33000
T2
X32920Y71000
X43080Y71000
X24080Y33000
X51920Y71000
X62080Y71000
X70920Y71000
X32920Y14000
X43080Y14000
X24080Y52000
X13920Y33000
X51920Y14000
X13920Y52000
X62080Y14000
X70920Y14000
X81080Y33000
X81080Y14000
X81080Y71000
X70920Y33000
X62080Y33000
X51920Y33000
X43080Y33000
X32920Y33000
X13920Y14000
X24080Y14000
X32920Y52000
X43080Y52000
X51920Y52000
X62080Y52000
X70920Y52000
X81080Y52000
X13920Y71000
X24080Y71000
T3
X78540Y19080
X34190Y16540
X40540Y19080
X53190Y16540
X59540Y19080
X72190Y73540
X78540Y76080
X59540Y38080
X59540Y76080
X34190Y73540
X40540Y76080
X21540Y19080
X15190Y73540
X40540Y57080
X59540Y57080
X53190Y73540
X34190Y54540
X53190Y54540
X21540Y76080
X15190Y16540
X78540Y57080
X72190Y54540
X72190Y16540
X21540Y38080
X15190Y35540
X40540Y38080
X34190Y35540
X53190Y35540
X78540Y38080
X72190Y35540
X21540Y57080
X15190Y54540
T4
X49380Y53380
X49380Y50840
X49380Y48300
X49380Y45760
X64620Y45760
X64620Y48300
X64620Y50840
X64620Y53380
X64620Y55920
X64620Y58460
X64620Y61000
X64620Y63540
X64620Y66080
X64620Y68620
X64620Y71160
X29000Y73700
X64620Y73700
X49380Y73700
X49380Y71160
X49380Y68620
X49380Y66080
X49380Y63540
X49380Y61000
X49380Y58460
X49380Y55920
X29000Y61000
X29000Y63540
X29000Y66080
X29000Y68620
X29000Y71160
T5
X77270Y65920
X55730Y8920
X58270Y8920
X36730Y8920
X55730Y65920
X77270Y8920
X17730Y8920
X20270Y8920
X17730Y27920
X20270Y27920
X36730Y46920
X39270Y46920
X36730Y27920
X39270Y27920
X17730Y65920
X77270Y46920
X55730Y27920
X58270Y27920
X55730Y46920
X58270Y46920
X74730Y27920
X77270Y27920
X74730Y46920
X20270Y65920
X17730Y46920
X20270Y46920
X36730Y65920
X39270Y65920
X58270Y65920
X39270Y8920
X74730Y65920
X74730Y8920
T6
X46500Y38690
X46500Y46310
X67500Y65310
X67500Y57690
X67500Y46310
X67500Y38690
X27500Y17810
X27500Y10190
X41810Y43500
X34190Y43500
X60810Y42500
X53190Y42500
X79810Y43500
X72190Y43500
X22810Y62500
X15190Y62500
X41810Y62500
X34190Y62500
X60810Y62500
X53190Y62500
X79810Y62500
X72190Y62500
X46500Y17810
X46500Y10190
X65500Y17810
X65500Y10190
X67500Y24690
X67500Y32310
X22310Y24500
X14690Y24500
X41810Y24500
X34190Y24500
X60810Y24500
X53190Y24500
X79810Y24500
X72190Y24500
X22810Y43500
X15190Y43500
X46500Y57690
X46500Y65310
T7
X47498Y53848
X42164Y68580
X56388Y76708
X38862Y77216
X45466Y67818
X43942Y67564
X37592Y64262
X34290Y66040
X58928Y43180
X60706Y77216
X49276Y77978
X37084Y67310
X57404Y73914
X46482Y70104
X46482Y67818
X43942Y65278
X43434Y61976
X40132Y59182
X69850Y47498
X65532Y33782
X52324Y38862
X57658Y61468
X74930Y62992
X42926Y44450
X38354Y62992
X43434Y64516
X43942Y69342
X43434Y57912
X40386Y42418
X72136Y47244
X69342Y57404
X35306Y27178
X64770Y34544
X66294Y35052
X37846Y37592
X44704Y45974
M30