G04 EAGLE Gerber X2 export*
%TF.Part,Single*%
%TF.FileFunction,Profile,NP*%
%TF.FilePolarity,Positive*%
%TF.GenerationSoftware,Autodesk,EAGLE,9.1.2*%
%TF.CreationDate,2018-09-23T14:51:44Z*%
G75*
%MOMM*%
%FSLAX34Y34*%
%LPD*%
%AMOC8*
5,1,8,0,0,1.08239X$1,22.5*%
G01*
%ADD10C,0.254000*%


D10*
X110000Y70000D02*
X110038Y69128D01*
X110152Y68264D01*
X110341Y67412D01*
X110603Y66580D01*
X110937Y65774D01*
X111340Y65000D01*
X111808Y64264D01*
X112340Y63572D01*
X112929Y62929D01*
X113572Y62340D01*
X114264Y61808D01*
X115000Y61340D01*
X115774Y60937D01*
X116580Y60603D01*
X117412Y60341D01*
X118264Y60152D01*
X119128Y60038D01*
X120000Y60000D01*
X830000Y60000D01*
X830872Y60038D01*
X831736Y60152D01*
X832588Y60341D01*
X833420Y60603D01*
X834226Y60937D01*
X835000Y61340D01*
X835736Y61808D01*
X836428Y62340D01*
X837071Y62929D01*
X837660Y63572D01*
X838192Y64264D01*
X838660Y65000D01*
X839063Y65774D01*
X839397Y66580D01*
X839659Y67412D01*
X839848Y68264D01*
X839962Y69128D01*
X840000Y70000D01*
X840000Y780000D01*
X839962Y780872D01*
X839848Y781736D01*
X839659Y782588D01*
X839397Y783420D01*
X839063Y784226D01*
X838660Y785000D01*
X838192Y785736D01*
X837660Y786428D01*
X837071Y787071D01*
X836428Y787660D01*
X835736Y788192D01*
X835000Y788660D01*
X834226Y789063D01*
X833420Y789397D01*
X832588Y789659D01*
X831736Y789848D01*
X830872Y789962D01*
X830000Y790000D01*
X120000Y790000D01*
X119128Y789962D01*
X118264Y789848D01*
X117412Y789659D01*
X116580Y789397D01*
X115774Y789063D01*
X115000Y788660D01*
X114264Y788192D01*
X113572Y787660D01*
X112929Y787071D01*
X112340Y786428D01*
X111808Y785736D01*
X111340Y785000D01*
X110937Y784226D01*
X110603Y783420D01*
X110341Y782588D01*
X110152Y781736D01*
X110038Y780872D01*
X110000Y780000D01*
X110000Y70000D01*
X209939Y139398D02*
X209866Y138195D01*
X209721Y136999D01*
X209504Y135813D01*
X209215Y134643D01*
X208857Y133493D01*
X208430Y132366D01*
X207935Y131267D01*
X207375Y130200D01*
X206752Y129169D01*
X206067Y128178D01*
X205324Y127229D01*
X204525Y126327D01*
X203673Y125475D01*
X202771Y124676D01*
X201823Y123933D01*
X200831Y123248D01*
X199800Y122625D01*
X198733Y122065D01*
X197634Y121570D01*
X196507Y121143D01*
X195357Y120785D01*
X194187Y120496D01*
X193001Y120279D01*
X191805Y120134D01*
X190603Y120061D01*
X189398Y120061D01*
X188195Y120134D01*
X186999Y120279D01*
X185813Y120496D01*
X184643Y120785D01*
X183493Y121143D01*
X182366Y121570D01*
X181267Y122065D01*
X180200Y122625D01*
X179169Y123248D01*
X178178Y123933D01*
X177229Y124676D01*
X176327Y125475D01*
X175475Y126327D01*
X174676Y127229D01*
X173933Y128178D01*
X173248Y129169D01*
X172625Y130200D01*
X172065Y131267D01*
X171570Y132366D01*
X171143Y133493D01*
X170785Y134643D01*
X170496Y135813D01*
X170279Y136999D01*
X170134Y138195D01*
X170061Y139398D01*
X170061Y140603D01*
X170134Y141805D01*
X170279Y143001D01*
X170496Y144187D01*
X170785Y145357D01*
X171143Y146507D01*
X171570Y147634D01*
X172065Y148733D01*
X172625Y149800D01*
X173248Y150831D01*
X173933Y151823D01*
X174676Y152771D01*
X175475Y153673D01*
X176327Y154525D01*
X177229Y155324D01*
X178178Y156067D01*
X179169Y156752D01*
X180200Y157375D01*
X181267Y157935D01*
X182366Y158430D01*
X183493Y158857D01*
X184643Y159215D01*
X185813Y159504D01*
X186999Y159721D01*
X188195Y159866D01*
X189398Y159939D01*
X190603Y159939D01*
X191805Y159866D01*
X193001Y159721D01*
X194187Y159504D01*
X195357Y159215D01*
X196507Y158857D01*
X197634Y158430D01*
X198733Y157935D01*
X199800Y157375D01*
X200831Y156752D01*
X201823Y156067D01*
X202771Y155324D01*
X203673Y154525D01*
X204525Y153673D01*
X205324Y152771D01*
X206067Y151823D01*
X206752Y150831D01*
X207375Y149800D01*
X207935Y148733D01*
X208430Y147634D01*
X208857Y146507D01*
X209215Y145357D01*
X209504Y144187D01*
X209721Y143001D01*
X209866Y141805D01*
X209939Y140603D01*
X209939Y139398D01*
X147709Y139629D02*
X147644Y138888D01*
X147515Y138157D01*
X147323Y137439D01*
X147069Y136741D01*
X146755Y136067D01*
X146383Y135424D01*
X145957Y134815D01*
X145479Y134246D01*
X144954Y133721D01*
X144385Y133243D01*
X143776Y132817D01*
X143133Y132445D01*
X142459Y132131D01*
X141761Y131877D01*
X141043Y131685D01*
X140312Y131556D01*
X139572Y131491D01*
X138829Y131491D01*
X138088Y131556D01*
X137357Y131685D01*
X136639Y131877D01*
X135941Y132131D01*
X135267Y132445D01*
X134624Y132817D01*
X134015Y133243D01*
X133446Y133721D01*
X132921Y134246D01*
X132443Y134815D01*
X132017Y135424D01*
X131645Y136067D01*
X131331Y136741D01*
X131077Y137439D01*
X130885Y138157D01*
X130756Y138888D01*
X130691Y139629D01*
X130691Y140372D01*
X130756Y141112D01*
X130885Y141843D01*
X131077Y142561D01*
X131331Y143259D01*
X131645Y143933D01*
X132017Y144576D01*
X132443Y145185D01*
X132921Y145754D01*
X133446Y146279D01*
X134015Y146757D01*
X134624Y147183D01*
X135267Y147555D01*
X135941Y147869D01*
X136639Y148123D01*
X137357Y148315D01*
X138088Y148444D01*
X138829Y148509D01*
X139572Y148509D01*
X140312Y148444D01*
X141043Y148315D01*
X141761Y148123D01*
X142459Y147869D01*
X143133Y147555D01*
X143776Y147183D01*
X144385Y146757D01*
X144954Y146279D01*
X145479Y145754D01*
X145957Y145185D01*
X146383Y144576D01*
X146755Y143933D01*
X147069Y143259D01*
X147323Y142561D01*
X147515Y141843D01*
X147644Y141112D01*
X147709Y140372D01*
X147709Y139629D01*
X249309Y139629D02*
X249244Y138888D01*
X249115Y138157D01*
X248923Y137439D01*
X248669Y136741D01*
X248355Y136067D01*
X247983Y135424D01*
X247557Y134815D01*
X247079Y134246D01*
X246554Y133721D01*
X245985Y133243D01*
X245376Y132817D01*
X244733Y132445D01*
X244059Y132131D01*
X243361Y131877D01*
X242643Y131685D01*
X241912Y131556D01*
X241172Y131491D01*
X240429Y131491D01*
X239688Y131556D01*
X238957Y131685D01*
X238239Y131877D01*
X237541Y132131D01*
X236867Y132445D01*
X236224Y132817D01*
X235615Y133243D01*
X235046Y133721D01*
X234521Y134246D01*
X234043Y134815D01*
X233617Y135424D01*
X233245Y136067D01*
X232931Y136741D01*
X232677Y137439D01*
X232485Y138157D01*
X232356Y138888D01*
X232291Y139629D01*
X232291Y140372D01*
X232356Y141112D01*
X232485Y141843D01*
X232677Y142561D01*
X232931Y143259D01*
X233245Y143933D01*
X233617Y144576D01*
X234043Y145185D01*
X234521Y145754D01*
X235046Y146279D01*
X235615Y146757D01*
X236224Y147183D01*
X236867Y147555D01*
X237541Y147869D01*
X238239Y148123D01*
X238957Y148315D01*
X239688Y148444D01*
X240429Y148509D01*
X241172Y148509D01*
X241912Y148444D01*
X242643Y148315D01*
X243361Y148123D01*
X244059Y147869D01*
X244733Y147555D01*
X245376Y147183D01*
X245985Y146757D01*
X246554Y146279D01*
X247079Y145754D01*
X247557Y145185D01*
X247983Y144576D01*
X248355Y143933D01*
X248669Y143259D01*
X248923Y142561D01*
X249115Y141843D01*
X249244Y141112D01*
X249309Y140372D01*
X249309Y139629D01*
X399939Y519398D02*
X399866Y518195D01*
X399721Y516999D01*
X399504Y515813D01*
X399215Y514643D01*
X398857Y513493D01*
X398430Y512366D01*
X397935Y511267D01*
X397375Y510200D01*
X396752Y509169D01*
X396067Y508178D01*
X395324Y507229D01*
X394525Y506327D01*
X393673Y505475D01*
X392771Y504676D01*
X391823Y503933D01*
X390831Y503248D01*
X389800Y502625D01*
X388733Y502065D01*
X387634Y501570D01*
X386507Y501143D01*
X385357Y500785D01*
X384187Y500496D01*
X383001Y500279D01*
X381805Y500134D01*
X380603Y500061D01*
X379398Y500061D01*
X378195Y500134D01*
X376999Y500279D01*
X375813Y500496D01*
X374643Y500785D01*
X373493Y501143D01*
X372366Y501570D01*
X371267Y502065D01*
X370200Y502625D01*
X369169Y503248D01*
X368178Y503933D01*
X367229Y504676D01*
X366327Y505475D01*
X365475Y506327D01*
X364676Y507229D01*
X363933Y508178D01*
X363248Y509169D01*
X362625Y510200D01*
X362065Y511267D01*
X361570Y512366D01*
X361143Y513493D01*
X360785Y514643D01*
X360496Y515813D01*
X360279Y516999D01*
X360134Y518195D01*
X360061Y519398D01*
X360061Y520603D01*
X360134Y521805D01*
X360279Y523001D01*
X360496Y524187D01*
X360785Y525357D01*
X361143Y526507D01*
X361570Y527634D01*
X362065Y528733D01*
X362625Y529800D01*
X363248Y530831D01*
X363933Y531823D01*
X364676Y532771D01*
X365475Y533673D01*
X366327Y534525D01*
X367229Y535324D01*
X368178Y536067D01*
X369169Y536752D01*
X370200Y537375D01*
X371267Y537935D01*
X372366Y538430D01*
X373493Y538857D01*
X374643Y539215D01*
X375813Y539504D01*
X376999Y539721D01*
X378195Y539866D01*
X379398Y539939D01*
X380603Y539939D01*
X381805Y539866D01*
X383001Y539721D01*
X384187Y539504D01*
X385357Y539215D01*
X386507Y538857D01*
X387634Y538430D01*
X388733Y537935D01*
X389800Y537375D01*
X390831Y536752D01*
X391823Y536067D01*
X392771Y535324D01*
X393673Y534525D01*
X394525Y533673D01*
X395324Y532771D01*
X396067Y531823D01*
X396752Y530831D01*
X397375Y529800D01*
X397935Y528733D01*
X398430Y527634D01*
X398857Y526507D01*
X399215Y525357D01*
X399504Y524187D01*
X399721Y523001D01*
X399866Y521805D01*
X399939Y520603D01*
X399939Y519398D01*
X337709Y519629D02*
X337644Y518888D01*
X337515Y518157D01*
X337323Y517439D01*
X337069Y516741D01*
X336755Y516067D01*
X336383Y515424D01*
X335957Y514815D01*
X335479Y514246D01*
X334954Y513721D01*
X334385Y513243D01*
X333776Y512817D01*
X333133Y512445D01*
X332459Y512131D01*
X331761Y511877D01*
X331043Y511685D01*
X330312Y511556D01*
X329572Y511491D01*
X328829Y511491D01*
X328088Y511556D01*
X327357Y511685D01*
X326639Y511877D01*
X325941Y512131D01*
X325267Y512445D01*
X324624Y512817D01*
X324015Y513243D01*
X323446Y513721D01*
X322921Y514246D01*
X322443Y514815D01*
X322017Y515424D01*
X321645Y516067D01*
X321331Y516741D01*
X321077Y517439D01*
X320885Y518157D01*
X320756Y518888D01*
X320691Y519629D01*
X320691Y520372D01*
X320756Y521112D01*
X320885Y521843D01*
X321077Y522561D01*
X321331Y523259D01*
X321645Y523933D01*
X322017Y524576D01*
X322443Y525185D01*
X322921Y525754D01*
X323446Y526279D01*
X324015Y526757D01*
X324624Y527183D01*
X325267Y527555D01*
X325941Y527869D01*
X326639Y528123D01*
X327357Y528315D01*
X328088Y528444D01*
X328829Y528509D01*
X329572Y528509D01*
X330312Y528444D01*
X331043Y528315D01*
X331761Y528123D01*
X332459Y527869D01*
X333133Y527555D01*
X333776Y527183D01*
X334385Y526757D01*
X334954Y526279D01*
X335479Y525754D01*
X335957Y525185D01*
X336383Y524576D01*
X336755Y523933D01*
X337069Y523259D01*
X337323Y522561D01*
X337515Y521843D01*
X337644Y521112D01*
X337709Y520372D01*
X337709Y519629D01*
X439309Y519629D02*
X439244Y518888D01*
X439115Y518157D01*
X438923Y517439D01*
X438669Y516741D01*
X438355Y516067D01*
X437983Y515424D01*
X437557Y514815D01*
X437079Y514246D01*
X436554Y513721D01*
X435985Y513243D01*
X435376Y512817D01*
X434733Y512445D01*
X434059Y512131D01*
X433361Y511877D01*
X432643Y511685D01*
X431912Y511556D01*
X431172Y511491D01*
X430429Y511491D01*
X429688Y511556D01*
X428957Y511685D01*
X428239Y511877D01*
X427541Y512131D01*
X426867Y512445D01*
X426224Y512817D01*
X425615Y513243D01*
X425046Y513721D01*
X424521Y514246D01*
X424043Y514815D01*
X423617Y515424D01*
X423245Y516067D01*
X422931Y516741D01*
X422677Y517439D01*
X422485Y518157D01*
X422356Y518888D01*
X422291Y519629D01*
X422291Y520372D01*
X422356Y521112D01*
X422485Y521843D01*
X422677Y522561D01*
X422931Y523259D01*
X423245Y523933D01*
X423617Y524576D01*
X424043Y525185D01*
X424521Y525754D01*
X425046Y526279D01*
X425615Y526757D01*
X426224Y527183D01*
X426867Y527555D01*
X427541Y527869D01*
X428239Y528123D01*
X428957Y528315D01*
X429688Y528444D01*
X430429Y528509D01*
X431172Y528509D01*
X431912Y528444D01*
X432643Y528315D01*
X433361Y528123D01*
X434059Y527869D01*
X434733Y527555D01*
X435376Y527183D01*
X435985Y526757D01*
X436554Y526279D01*
X437079Y525754D01*
X437557Y525185D01*
X437983Y524576D01*
X438355Y523933D01*
X438669Y523259D01*
X438923Y522561D01*
X439115Y521843D01*
X439244Y521112D01*
X439309Y520372D01*
X439309Y519629D01*
X589939Y519398D02*
X589866Y518195D01*
X589721Y516999D01*
X589504Y515813D01*
X589215Y514643D01*
X588857Y513493D01*
X588430Y512366D01*
X587935Y511267D01*
X587375Y510200D01*
X586752Y509169D01*
X586067Y508178D01*
X585324Y507229D01*
X584525Y506327D01*
X583673Y505475D01*
X582771Y504676D01*
X581823Y503933D01*
X580831Y503248D01*
X579800Y502625D01*
X578733Y502065D01*
X577634Y501570D01*
X576507Y501143D01*
X575357Y500785D01*
X574187Y500496D01*
X573001Y500279D01*
X571805Y500134D01*
X570603Y500061D01*
X569398Y500061D01*
X568195Y500134D01*
X566999Y500279D01*
X565813Y500496D01*
X564643Y500785D01*
X563493Y501143D01*
X562366Y501570D01*
X561267Y502065D01*
X560200Y502625D01*
X559169Y503248D01*
X558178Y503933D01*
X557229Y504676D01*
X556327Y505475D01*
X555475Y506327D01*
X554676Y507229D01*
X553933Y508178D01*
X553248Y509169D01*
X552625Y510200D01*
X552065Y511267D01*
X551570Y512366D01*
X551143Y513493D01*
X550785Y514643D01*
X550496Y515813D01*
X550279Y516999D01*
X550134Y518195D01*
X550061Y519398D01*
X550061Y520603D01*
X550134Y521805D01*
X550279Y523001D01*
X550496Y524187D01*
X550785Y525357D01*
X551143Y526507D01*
X551570Y527634D01*
X552065Y528733D01*
X552625Y529800D01*
X553248Y530831D01*
X553933Y531823D01*
X554676Y532771D01*
X555475Y533673D01*
X556327Y534525D01*
X557229Y535324D01*
X558178Y536067D01*
X559169Y536752D01*
X560200Y537375D01*
X561267Y537935D01*
X562366Y538430D01*
X563493Y538857D01*
X564643Y539215D01*
X565813Y539504D01*
X566999Y539721D01*
X568195Y539866D01*
X569398Y539939D01*
X570603Y539939D01*
X571805Y539866D01*
X573001Y539721D01*
X574187Y539504D01*
X575357Y539215D01*
X576507Y538857D01*
X577634Y538430D01*
X578733Y537935D01*
X579800Y537375D01*
X580831Y536752D01*
X581823Y536067D01*
X582771Y535324D01*
X583673Y534525D01*
X584525Y533673D01*
X585324Y532771D01*
X586067Y531823D01*
X586752Y530831D01*
X587375Y529800D01*
X587935Y528733D01*
X588430Y527634D01*
X588857Y526507D01*
X589215Y525357D01*
X589504Y524187D01*
X589721Y523001D01*
X589866Y521805D01*
X589939Y520603D01*
X589939Y519398D01*
X527709Y519629D02*
X527644Y518888D01*
X527515Y518157D01*
X527323Y517439D01*
X527069Y516741D01*
X526755Y516067D01*
X526383Y515424D01*
X525957Y514815D01*
X525479Y514246D01*
X524954Y513721D01*
X524385Y513243D01*
X523776Y512817D01*
X523133Y512445D01*
X522459Y512131D01*
X521761Y511877D01*
X521043Y511685D01*
X520312Y511556D01*
X519572Y511491D01*
X518829Y511491D01*
X518088Y511556D01*
X517357Y511685D01*
X516639Y511877D01*
X515941Y512131D01*
X515267Y512445D01*
X514624Y512817D01*
X514015Y513243D01*
X513446Y513721D01*
X512921Y514246D01*
X512443Y514815D01*
X512017Y515424D01*
X511645Y516067D01*
X511331Y516741D01*
X511077Y517439D01*
X510885Y518157D01*
X510756Y518888D01*
X510691Y519629D01*
X510691Y520372D01*
X510756Y521112D01*
X510885Y521843D01*
X511077Y522561D01*
X511331Y523259D01*
X511645Y523933D01*
X512017Y524576D01*
X512443Y525185D01*
X512921Y525754D01*
X513446Y526279D01*
X514015Y526757D01*
X514624Y527183D01*
X515267Y527555D01*
X515941Y527869D01*
X516639Y528123D01*
X517357Y528315D01*
X518088Y528444D01*
X518829Y528509D01*
X519572Y528509D01*
X520312Y528444D01*
X521043Y528315D01*
X521761Y528123D01*
X522459Y527869D01*
X523133Y527555D01*
X523776Y527183D01*
X524385Y526757D01*
X524954Y526279D01*
X525479Y525754D01*
X525957Y525185D01*
X526383Y524576D01*
X526755Y523933D01*
X527069Y523259D01*
X527323Y522561D01*
X527515Y521843D01*
X527644Y521112D01*
X527709Y520372D01*
X527709Y519629D01*
X629309Y519629D02*
X629244Y518888D01*
X629115Y518157D01*
X628923Y517439D01*
X628669Y516741D01*
X628355Y516067D01*
X627983Y515424D01*
X627557Y514815D01*
X627079Y514246D01*
X626554Y513721D01*
X625985Y513243D01*
X625376Y512817D01*
X624733Y512445D01*
X624059Y512131D01*
X623361Y511877D01*
X622643Y511685D01*
X621912Y511556D01*
X621172Y511491D01*
X620429Y511491D01*
X619688Y511556D01*
X618957Y511685D01*
X618239Y511877D01*
X617541Y512131D01*
X616867Y512445D01*
X616224Y512817D01*
X615615Y513243D01*
X615046Y513721D01*
X614521Y514246D01*
X614043Y514815D01*
X613617Y515424D01*
X613245Y516067D01*
X612931Y516741D01*
X612677Y517439D01*
X612485Y518157D01*
X612356Y518888D01*
X612291Y519629D01*
X612291Y520372D01*
X612356Y521112D01*
X612485Y521843D01*
X612677Y522561D01*
X612931Y523259D01*
X613245Y523933D01*
X613617Y524576D01*
X614043Y525185D01*
X614521Y525754D01*
X615046Y526279D01*
X615615Y526757D01*
X616224Y527183D01*
X616867Y527555D01*
X617541Y527869D01*
X618239Y528123D01*
X618957Y528315D01*
X619688Y528444D01*
X620429Y528509D01*
X621172Y528509D01*
X621912Y528444D01*
X622643Y528315D01*
X623361Y528123D01*
X624059Y527869D01*
X624733Y527555D01*
X625376Y527183D01*
X625985Y526757D01*
X626554Y526279D01*
X627079Y525754D01*
X627557Y525185D01*
X627983Y524576D01*
X628355Y523933D01*
X628669Y523259D01*
X628923Y522561D01*
X629115Y521843D01*
X629244Y521112D01*
X629309Y520372D01*
X629309Y519629D01*
X779939Y519398D02*
X779866Y518195D01*
X779721Y516999D01*
X779504Y515813D01*
X779215Y514643D01*
X778857Y513493D01*
X778430Y512366D01*
X777935Y511267D01*
X777375Y510200D01*
X776752Y509169D01*
X776067Y508178D01*
X775324Y507229D01*
X774525Y506327D01*
X773673Y505475D01*
X772771Y504676D01*
X771823Y503933D01*
X770831Y503248D01*
X769800Y502625D01*
X768733Y502065D01*
X767634Y501570D01*
X766507Y501143D01*
X765357Y500785D01*
X764187Y500496D01*
X763001Y500279D01*
X761805Y500134D01*
X760603Y500061D01*
X759398Y500061D01*
X758195Y500134D01*
X756999Y500279D01*
X755813Y500496D01*
X754643Y500785D01*
X753493Y501143D01*
X752366Y501570D01*
X751267Y502065D01*
X750200Y502625D01*
X749169Y503248D01*
X748178Y503933D01*
X747229Y504676D01*
X746327Y505475D01*
X745475Y506327D01*
X744676Y507229D01*
X743933Y508178D01*
X743248Y509169D01*
X742625Y510200D01*
X742065Y511267D01*
X741570Y512366D01*
X741143Y513493D01*
X740785Y514643D01*
X740496Y515813D01*
X740279Y516999D01*
X740134Y518195D01*
X740061Y519398D01*
X740061Y520603D01*
X740134Y521805D01*
X740279Y523001D01*
X740496Y524187D01*
X740785Y525357D01*
X741143Y526507D01*
X741570Y527634D01*
X742065Y528733D01*
X742625Y529800D01*
X743248Y530831D01*
X743933Y531823D01*
X744676Y532771D01*
X745475Y533673D01*
X746327Y534525D01*
X747229Y535324D01*
X748178Y536067D01*
X749169Y536752D01*
X750200Y537375D01*
X751267Y537935D01*
X752366Y538430D01*
X753493Y538857D01*
X754643Y539215D01*
X755813Y539504D01*
X756999Y539721D01*
X758195Y539866D01*
X759398Y539939D01*
X760603Y539939D01*
X761805Y539866D01*
X763001Y539721D01*
X764187Y539504D01*
X765357Y539215D01*
X766507Y538857D01*
X767634Y538430D01*
X768733Y537935D01*
X769800Y537375D01*
X770831Y536752D01*
X771823Y536067D01*
X772771Y535324D01*
X773673Y534525D01*
X774525Y533673D01*
X775324Y532771D01*
X776067Y531823D01*
X776752Y530831D01*
X777375Y529800D01*
X777935Y528733D01*
X778430Y527634D01*
X778857Y526507D01*
X779215Y525357D01*
X779504Y524187D01*
X779721Y523001D01*
X779866Y521805D01*
X779939Y520603D01*
X779939Y519398D01*
X717709Y519629D02*
X717644Y518888D01*
X717515Y518157D01*
X717323Y517439D01*
X717069Y516741D01*
X716755Y516067D01*
X716383Y515424D01*
X715957Y514815D01*
X715479Y514246D01*
X714954Y513721D01*
X714385Y513243D01*
X713776Y512817D01*
X713133Y512445D01*
X712459Y512131D01*
X711761Y511877D01*
X711043Y511685D01*
X710312Y511556D01*
X709572Y511491D01*
X708829Y511491D01*
X708088Y511556D01*
X707357Y511685D01*
X706639Y511877D01*
X705941Y512131D01*
X705267Y512445D01*
X704624Y512817D01*
X704015Y513243D01*
X703446Y513721D01*
X702921Y514246D01*
X702443Y514815D01*
X702017Y515424D01*
X701645Y516067D01*
X701331Y516741D01*
X701077Y517439D01*
X700885Y518157D01*
X700756Y518888D01*
X700691Y519629D01*
X700691Y520372D01*
X700756Y521112D01*
X700885Y521843D01*
X701077Y522561D01*
X701331Y523259D01*
X701645Y523933D01*
X702017Y524576D01*
X702443Y525185D01*
X702921Y525754D01*
X703446Y526279D01*
X704015Y526757D01*
X704624Y527183D01*
X705267Y527555D01*
X705941Y527869D01*
X706639Y528123D01*
X707357Y528315D01*
X708088Y528444D01*
X708829Y528509D01*
X709572Y528509D01*
X710312Y528444D01*
X711043Y528315D01*
X711761Y528123D01*
X712459Y527869D01*
X713133Y527555D01*
X713776Y527183D01*
X714385Y526757D01*
X714954Y526279D01*
X715479Y525754D01*
X715957Y525185D01*
X716383Y524576D01*
X716755Y523933D01*
X717069Y523259D01*
X717323Y522561D01*
X717515Y521843D01*
X717644Y521112D01*
X717709Y520372D01*
X717709Y519629D01*
X819309Y519629D02*
X819244Y518888D01*
X819115Y518157D01*
X818923Y517439D01*
X818669Y516741D01*
X818355Y516067D01*
X817983Y515424D01*
X817557Y514815D01*
X817079Y514246D01*
X816554Y513721D01*
X815985Y513243D01*
X815376Y512817D01*
X814733Y512445D01*
X814059Y512131D01*
X813361Y511877D01*
X812643Y511685D01*
X811912Y511556D01*
X811172Y511491D01*
X810429Y511491D01*
X809688Y511556D01*
X808957Y511685D01*
X808239Y511877D01*
X807541Y512131D01*
X806867Y512445D01*
X806224Y512817D01*
X805615Y513243D01*
X805046Y513721D01*
X804521Y514246D01*
X804043Y514815D01*
X803617Y515424D01*
X803245Y516067D01*
X802931Y516741D01*
X802677Y517439D01*
X802485Y518157D01*
X802356Y518888D01*
X802291Y519629D01*
X802291Y520372D01*
X802356Y521112D01*
X802485Y521843D01*
X802677Y522561D01*
X802931Y523259D01*
X803245Y523933D01*
X803617Y524576D01*
X804043Y525185D01*
X804521Y525754D01*
X805046Y526279D01*
X805615Y526757D01*
X806224Y527183D01*
X806867Y527555D01*
X807541Y527869D01*
X808239Y528123D01*
X808957Y528315D01*
X809688Y528444D01*
X810429Y528509D01*
X811172Y528509D01*
X811912Y528444D01*
X812643Y528315D01*
X813361Y528123D01*
X814059Y527869D01*
X814733Y527555D01*
X815376Y527183D01*
X815985Y526757D01*
X816554Y526279D01*
X817079Y525754D01*
X817557Y525185D01*
X817983Y524576D01*
X818355Y523933D01*
X818669Y523259D01*
X818923Y522561D01*
X819115Y521843D01*
X819244Y521112D01*
X819309Y520372D01*
X819309Y519629D01*
X209939Y709398D02*
X209866Y708195D01*
X209721Y706999D01*
X209504Y705813D01*
X209215Y704643D01*
X208857Y703493D01*
X208430Y702366D01*
X207935Y701267D01*
X207375Y700200D01*
X206752Y699169D01*
X206067Y698178D01*
X205324Y697229D01*
X204525Y696327D01*
X203673Y695475D01*
X202771Y694676D01*
X201823Y693933D01*
X200831Y693248D01*
X199800Y692625D01*
X198733Y692065D01*
X197634Y691570D01*
X196507Y691143D01*
X195357Y690785D01*
X194187Y690496D01*
X193001Y690279D01*
X191805Y690134D01*
X190603Y690061D01*
X189398Y690061D01*
X188195Y690134D01*
X186999Y690279D01*
X185813Y690496D01*
X184643Y690785D01*
X183493Y691143D01*
X182366Y691570D01*
X181267Y692065D01*
X180200Y692625D01*
X179169Y693248D01*
X178178Y693933D01*
X177229Y694676D01*
X176327Y695475D01*
X175475Y696327D01*
X174676Y697229D01*
X173933Y698178D01*
X173248Y699169D01*
X172625Y700200D01*
X172065Y701267D01*
X171570Y702366D01*
X171143Y703493D01*
X170785Y704643D01*
X170496Y705813D01*
X170279Y706999D01*
X170134Y708195D01*
X170061Y709398D01*
X170061Y710603D01*
X170134Y711805D01*
X170279Y713001D01*
X170496Y714187D01*
X170785Y715357D01*
X171143Y716507D01*
X171570Y717634D01*
X172065Y718733D01*
X172625Y719800D01*
X173248Y720831D01*
X173933Y721823D01*
X174676Y722771D01*
X175475Y723673D01*
X176327Y724525D01*
X177229Y725324D01*
X178178Y726067D01*
X179169Y726752D01*
X180200Y727375D01*
X181267Y727935D01*
X182366Y728430D01*
X183493Y728857D01*
X184643Y729215D01*
X185813Y729504D01*
X186999Y729721D01*
X188195Y729866D01*
X189398Y729939D01*
X190603Y729939D01*
X191805Y729866D01*
X193001Y729721D01*
X194187Y729504D01*
X195357Y729215D01*
X196507Y728857D01*
X197634Y728430D01*
X198733Y727935D01*
X199800Y727375D01*
X200831Y726752D01*
X201823Y726067D01*
X202771Y725324D01*
X203673Y724525D01*
X204525Y723673D01*
X205324Y722771D01*
X206067Y721823D01*
X206752Y720831D01*
X207375Y719800D01*
X207935Y718733D01*
X208430Y717634D01*
X208857Y716507D01*
X209215Y715357D01*
X209504Y714187D01*
X209721Y713001D01*
X209866Y711805D01*
X209939Y710603D01*
X209939Y709398D01*
X147709Y709629D02*
X147644Y708888D01*
X147515Y708157D01*
X147323Y707439D01*
X147069Y706741D01*
X146755Y706067D01*
X146383Y705424D01*
X145957Y704815D01*
X145479Y704246D01*
X144954Y703721D01*
X144385Y703243D01*
X143776Y702817D01*
X143133Y702445D01*
X142459Y702131D01*
X141761Y701877D01*
X141043Y701685D01*
X140312Y701556D01*
X139572Y701491D01*
X138829Y701491D01*
X138088Y701556D01*
X137357Y701685D01*
X136639Y701877D01*
X135941Y702131D01*
X135267Y702445D01*
X134624Y702817D01*
X134015Y703243D01*
X133446Y703721D01*
X132921Y704246D01*
X132443Y704815D01*
X132017Y705424D01*
X131645Y706067D01*
X131331Y706741D01*
X131077Y707439D01*
X130885Y708157D01*
X130756Y708888D01*
X130691Y709629D01*
X130691Y710372D01*
X130756Y711112D01*
X130885Y711843D01*
X131077Y712561D01*
X131331Y713259D01*
X131645Y713933D01*
X132017Y714576D01*
X132443Y715185D01*
X132921Y715754D01*
X133446Y716279D01*
X134015Y716757D01*
X134624Y717183D01*
X135267Y717555D01*
X135941Y717869D01*
X136639Y718123D01*
X137357Y718315D01*
X138088Y718444D01*
X138829Y718509D01*
X139572Y718509D01*
X140312Y718444D01*
X141043Y718315D01*
X141761Y718123D01*
X142459Y717869D01*
X143133Y717555D01*
X143776Y717183D01*
X144385Y716757D01*
X144954Y716279D01*
X145479Y715754D01*
X145957Y715185D01*
X146383Y714576D01*
X146755Y713933D01*
X147069Y713259D01*
X147323Y712561D01*
X147515Y711843D01*
X147644Y711112D01*
X147709Y710372D01*
X147709Y709629D01*
X249309Y709629D02*
X249244Y708888D01*
X249115Y708157D01*
X248923Y707439D01*
X248669Y706741D01*
X248355Y706067D01*
X247983Y705424D01*
X247557Y704815D01*
X247079Y704246D01*
X246554Y703721D01*
X245985Y703243D01*
X245376Y702817D01*
X244733Y702445D01*
X244059Y702131D01*
X243361Y701877D01*
X242643Y701685D01*
X241912Y701556D01*
X241172Y701491D01*
X240429Y701491D01*
X239688Y701556D01*
X238957Y701685D01*
X238239Y701877D01*
X237541Y702131D01*
X236867Y702445D01*
X236224Y702817D01*
X235615Y703243D01*
X235046Y703721D01*
X234521Y704246D01*
X234043Y704815D01*
X233617Y705424D01*
X233245Y706067D01*
X232931Y706741D01*
X232677Y707439D01*
X232485Y708157D01*
X232356Y708888D01*
X232291Y709629D01*
X232291Y710372D01*
X232356Y711112D01*
X232485Y711843D01*
X232677Y712561D01*
X232931Y713259D01*
X233245Y713933D01*
X233617Y714576D01*
X234043Y715185D01*
X234521Y715754D01*
X235046Y716279D01*
X235615Y716757D01*
X236224Y717183D01*
X236867Y717555D01*
X237541Y717869D01*
X238239Y718123D01*
X238957Y718315D01*
X239688Y718444D01*
X240429Y718509D01*
X241172Y718509D01*
X241912Y718444D01*
X242643Y718315D01*
X243361Y718123D01*
X244059Y717869D01*
X244733Y717555D01*
X245376Y717183D01*
X245985Y716757D01*
X246554Y716279D01*
X247079Y715754D01*
X247557Y715185D01*
X247983Y714576D01*
X248355Y713933D01*
X248669Y713259D01*
X248923Y712561D01*
X249115Y711843D01*
X249244Y711112D01*
X249309Y710372D01*
X249309Y709629D01*
X399939Y709398D02*
X399866Y708195D01*
X399721Y706999D01*
X399504Y705813D01*
X399215Y704643D01*
X398857Y703493D01*
X398430Y702366D01*
X397935Y701267D01*
X397375Y700200D01*
X396752Y699169D01*
X396067Y698178D01*
X395324Y697229D01*
X394525Y696327D01*
X393673Y695475D01*
X392771Y694676D01*
X391823Y693933D01*
X390831Y693248D01*
X389800Y692625D01*
X388733Y692065D01*
X387634Y691570D01*
X386507Y691143D01*
X385357Y690785D01*
X384187Y690496D01*
X383001Y690279D01*
X381805Y690134D01*
X380603Y690061D01*
X379398Y690061D01*
X378195Y690134D01*
X376999Y690279D01*
X375813Y690496D01*
X374643Y690785D01*
X373493Y691143D01*
X372366Y691570D01*
X371267Y692065D01*
X370200Y692625D01*
X369169Y693248D01*
X368178Y693933D01*
X367229Y694676D01*
X366327Y695475D01*
X365475Y696327D01*
X364676Y697229D01*
X363933Y698178D01*
X363248Y699169D01*
X362625Y700200D01*
X362065Y701267D01*
X361570Y702366D01*
X361143Y703493D01*
X360785Y704643D01*
X360496Y705813D01*
X360279Y706999D01*
X360134Y708195D01*
X360061Y709398D01*
X360061Y710603D01*
X360134Y711805D01*
X360279Y713001D01*
X360496Y714187D01*
X360785Y715357D01*
X361143Y716507D01*
X361570Y717634D01*
X362065Y718733D01*
X362625Y719800D01*
X363248Y720831D01*
X363933Y721823D01*
X364676Y722771D01*
X365475Y723673D01*
X366327Y724525D01*
X367229Y725324D01*
X368178Y726067D01*
X369169Y726752D01*
X370200Y727375D01*
X371267Y727935D01*
X372366Y728430D01*
X373493Y728857D01*
X374643Y729215D01*
X375813Y729504D01*
X376999Y729721D01*
X378195Y729866D01*
X379398Y729939D01*
X380603Y729939D01*
X381805Y729866D01*
X383001Y729721D01*
X384187Y729504D01*
X385357Y729215D01*
X386507Y728857D01*
X387634Y728430D01*
X388733Y727935D01*
X389800Y727375D01*
X390831Y726752D01*
X391823Y726067D01*
X392771Y725324D01*
X393673Y724525D01*
X394525Y723673D01*
X395324Y722771D01*
X396067Y721823D01*
X396752Y720831D01*
X397375Y719800D01*
X397935Y718733D01*
X398430Y717634D01*
X398857Y716507D01*
X399215Y715357D01*
X399504Y714187D01*
X399721Y713001D01*
X399866Y711805D01*
X399939Y710603D01*
X399939Y709398D01*
X337709Y709629D02*
X337644Y708888D01*
X337515Y708157D01*
X337323Y707439D01*
X337069Y706741D01*
X336755Y706067D01*
X336383Y705424D01*
X335957Y704815D01*
X335479Y704246D01*
X334954Y703721D01*
X334385Y703243D01*
X333776Y702817D01*
X333133Y702445D01*
X332459Y702131D01*
X331761Y701877D01*
X331043Y701685D01*
X330312Y701556D01*
X329572Y701491D01*
X328829Y701491D01*
X328088Y701556D01*
X327357Y701685D01*
X326639Y701877D01*
X325941Y702131D01*
X325267Y702445D01*
X324624Y702817D01*
X324015Y703243D01*
X323446Y703721D01*
X322921Y704246D01*
X322443Y704815D01*
X322017Y705424D01*
X321645Y706067D01*
X321331Y706741D01*
X321077Y707439D01*
X320885Y708157D01*
X320756Y708888D01*
X320691Y709629D01*
X320691Y710372D01*
X320756Y711112D01*
X320885Y711843D01*
X321077Y712561D01*
X321331Y713259D01*
X321645Y713933D01*
X322017Y714576D01*
X322443Y715185D01*
X322921Y715754D01*
X323446Y716279D01*
X324015Y716757D01*
X324624Y717183D01*
X325267Y717555D01*
X325941Y717869D01*
X326639Y718123D01*
X327357Y718315D01*
X328088Y718444D01*
X328829Y718509D01*
X329572Y718509D01*
X330312Y718444D01*
X331043Y718315D01*
X331761Y718123D01*
X332459Y717869D01*
X333133Y717555D01*
X333776Y717183D01*
X334385Y716757D01*
X334954Y716279D01*
X335479Y715754D01*
X335957Y715185D01*
X336383Y714576D01*
X336755Y713933D01*
X337069Y713259D01*
X337323Y712561D01*
X337515Y711843D01*
X337644Y711112D01*
X337709Y710372D01*
X337709Y709629D01*
X439309Y709629D02*
X439244Y708888D01*
X439115Y708157D01*
X438923Y707439D01*
X438669Y706741D01*
X438355Y706067D01*
X437983Y705424D01*
X437557Y704815D01*
X437079Y704246D01*
X436554Y703721D01*
X435985Y703243D01*
X435376Y702817D01*
X434733Y702445D01*
X434059Y702131D01*
X433361Y701877D01*
X432643Y701685D01*
X431912Y701556D01*
X431172Y701491D01*
X430429Y701491D01*
X429688Y701556D01*
X428957Y701685D01*
X428239Y701877D01*
X427541Y702131D01*
X426867Y702445D01*
X426224Y702817D01*
X425615Y703243D01*
X425046Y703721D01*
X424521Y704246D01*
X424043Y704815D01*
X423617Y705424D01*
X423245Y706067D01*
X422931Y706741D01*
X422677Y707439D01*
X422485Y708157D01*
X422356Y708888D01*
X422291Y709629D01*
X422291Y710372D01*
X422356Y711112D01*
X422485Y711843D01*
X422677Y712561D01*
X422931Y713259D01*
X423245Y713933D01*
X423617Y714576D01*
X424043Y715185D01*
X424521Y715754D01*
X425046Y716279D01*
X425615Y716757D01*
X426224Y717183D01*
X426867Y717555D01*
X427541Y717869D01*
X428239Y718123D01*
X428957Y718315D01*
X429688Y718444D01*
X430429Y718509D01*
X431172Y718509D01*
X431912Y718444D01*
X432643Y718315D01*
X433361Y718123D01*
X434059Y717869D01*
X434733Y717555D01*
X435376Y717183D01*
X435985Y716757D01*
X436554Y716279D01*
X437079Y715754D01*
X437557Y715185D01*
X437983Y714576D01*
X438355Y713933D01*
X438669Y713259D01*
X438923Y712561D01*
X439115Y711843D01*
X439244Y711112D01*
X439309Y710372D01*
X439309Y709629D01*
X589939Y709398D02*
X589866Y708195D01*
X589721Y706999D01*
X589504Y705813D01*
X589215Y704643D01*
X588857Y703493D01*
X588430Y702366D01*
X587935Y701267D01*
X587375Y700200D01*
X586752Y699169D01*
X586067Y698178D01*
X585324Y697229D01*
X584525Y696327D01*
X583673Y695475D01*
X582771Y694676D01*
X581823Y693933D01*
X580831Y693248D01*
X579800Y692625D01*
X578733Y692065D01*
X577634Y691570D01*
X576507Y691143D01*
X575357Y690785D01*
X574187Y690496D01*
X573001Y690279D01*
X571805Y690134D01*
X570603Y690061D01*
X569398Y690061D01*
X568195Y690134D01*
X566999Y690279D01*
X565813Y690496D01*
X564643Y690785D01*
X563493Y691143D01*
X562366Y691570D01*
X561267Y692065D01*
X560200Y692625D01*
X559169Y693248D01*
X558178Y693933D01*
X557229Y694676D01*
X556327Y695475D01*
X555475Y696327D01*
X554676Y697229D01*
X553933Y698178D01*
X553248Y699169D01*
X552625Y700200D01*
X552065Y701267D01*
X551570Y702366D01*
X551143Y703493D01*
X550785Y704643D01*
X550496Y705813D01*
X550279Y706999D01*
X550134Y708195D01*
X550061Y709398D01*
X550061Y710603D01*
X550134Y711805D01*
X550279Y713001D01*
X550496Y714187D01*
X550785Y715357D01*
X551143Y716507D01*
X551570Y717634D01*
X552065Y718733D01*
X552625Y719800D01*
X553248Y720831D01*
X553933Y721823D01*
X554676Y722771D01*
X555475Y723673D01*
X556327Y724525D01*
X557229Y725324D01*
X558178Y726067D01*
X559169Y726752D01*
X560200Y727375D01*
X561267Y727935D01*
X562366Y728430D01*
X563493Y728857D01*
X564643Y729215D01*
X565813Y729504D01*
X566999Y729721D01*
X568195Y729866D01*
X569398Y729939D01*
X570603Y729939D01*
X571805Y729866D01*
X573001Y729721D01*
X574187Y729504D01*
X575357Y729215D01*
X576507Y728857D01*
X577634Y728430D01*
X578733Y727935D01*
X579800Y727375D01*
X580831Y726752D01*
X581823Y726067D01*
X582771Y725324D01*
X583673Y724525D01*
X584525Y723673D01*
X585324Y722771D01*
X586067Y721823D01*
X586752Y720831D01*
X587375Y719800D01*
X587935Y718733D01*
X588430Y717634D01*
X588857Y716507D01*
X589215Y715357D01*
X589504Y714187D01*
X589721Y713001D01*
X589866Y711805D01*
X589939Y710603D01*
X589939Y709398D01*
X527709Y709629D02*
X527644Y708888D01*
X527515Y708157D01*
X527323Y707439D01*
X527069Y706741D01*
X526755Y706067D01*
X526383Y705424D01*
X525957Y704815D01*
X525479Y704246D01*
X524954Y703721D01*
X524385Y703243D01*
X523776Y702817D01*
X523133Y702445D01*
X522459Y702131D01*
X521761Y701877D01*
X521043Y701685D01*
X520312Y701556D01*
X519572Y701491D01*
X518829Y701491D01*
X518088Y701556D01*
X517357Y701685D01*
X516639Y701877D01*
X515941Y702131D01*
X515267Y702445D01*
X514624Y702817D01*
X514015Y703243D01*
X513446Y703721D01*
X512921Y704246D01*
X512443Y704815D01*
X512017Y705424D01*
X511645Y706067D01*
X511331Y706741D01*
X511077Y707439D01*
X510885Y708157D01*
X510756Y708888D01*
X510691Y709629D01*
X510691Y710372D01*
X510756Y711112D01*
X510885Y711843D01*
X511077Y712561D01*
X511331Y713259D01*
X511645Y713933D01*
X512017Y714576D01*
X512443Y715185D01*
X512921Y715754D01*
X513446Y716279D01*
X514015Y716757D01*
X514624Y717183D01*
X515267Y717555D01*
X515941Y717869D01*
X516639Y718123D01*
X517357Y718315D01*
X518088Y718444D01*
X518829Y718509D01*
X519572Y718509D01*
X520312Y718444D01*
X521043Y718315D01*
X521761Y718123D01*
X522459Y717869D01*
X523133Y717555D01*
X523776Y717183D01*
X524385Y716757D01*
X524954Y716279D01*
X525479Y715754D01*
X525957Y715185D01*
X526383Y714576D01*
X526755Y713933D01*
X527069Y713259D01*
X527323Y712561D01*
X527515Y711843D01*
X527644Y711112D01*
X527709Y710372D01*
X527709Y709629D01*
X629309Y709629D02*
X629244Y708888D01*
X629115Y708157D01*
X628923Y707439D01*
X628669Y706741D01*
X628355Y706067D01*
X627983Y705424D01*
X627557Y704815D01*
X627079Y704246D01*
X626554Y703721D01*
X625985Y703243D01*
X625376Y702817D01*
X624733Y702445D01*
X624059Y702131D01*
X623361Y701877D01*
X622643Y701685D01*
X621912Y701556D01*
X621172Y701491D01*
X620429Y701491D01*
X619688Y701556D01*
X618957Y701685D01*
X618239Y701877D01*
X617541Y702131D01*
X616867Y702445D01*
X616224Y702817D01*
X615615Y703243D01*
X615046Y703721D01*
X614521Y704246D01*
X614043Y704815D01*
X613617Y705424D01*
X613245Y706067D01*
X612931Y706741D01*
X612677Y707439D01*
X612485Y708157D01*
X612356Y708888D01*
X612291Y709629D01*
X612291Y710372D01*
X612356Y711112D01*
X612485Y711843D01*
X612677Y712561D01*
X612931Y713259D01*
X613245Y713933D01*
X613617Y714576D01*
X614043Y715185D01*
X614521Y715754D01*
X615046Y716279D01*
X615615Y716757D01*
X616224Y717183D01*
X616867Y717555D01*
X617541Y717869D01*
X618239Y718123D01*
X618957Y718315D01*
X619688Y718444D01*
X620429Y718509D01*
X621172Y718509D01*
X621912Y718444D01*
X622643Y718315D01*
X623361Y718123D01*
X624059Y717869D01*
X624733Y717555D01*
X625376Y717183D01*
X625985Y716757D01*
X626554Y716279D01*
X627079Y715754D01*
X627557Y715185D01*
X627983Y714576D01*
X628355Y713933D01*
X628669Y713259D01*
X628923Y712561D01*
X629115Y711843D01*
X629244Y711112D01*
X629309Y710372D01*
X629309Y709629D01*
X779939Y709398D02*
X779866Y708195D01*
X779721Y706999D01*
X779504Y705813D01*
X779215Y704643D01*
X778857Y703493D01*
X778430Y702366D01*
X777935Y701267D01*
X777375Y700200D01*
X776752Y699169D01*
X776067Y698178D01*
X775324Y697229D01*
X774525Y696327D01*
X773673Y695475D01*
X772771Y694676D01*
X771823Y693933D01*
X770831Y693248D01*
X769800Y692625D01*
X768733Y692065D01*
X767634Y691570D01*
X766507Y691143D01*
X765357Y690785D01*
X764187Y690496D01*
X763001Y690279D01*
X761805Y690134D01*
X760603Y690061D01*
X759398Y690061D01*
X758195Y690134D01*
X756999Y690279D01*
X755813Y690496D01*
X754643Y690785D01*
X753493Y691143D01*
X752366Y691570D01*
X751267Y692065D01*
X750200Y692625D01*
X749169Y693248D01*
X748178Y693933D01*
X747229Y694676D01*
X746327Y695475D01*
X745475Y696327D01*
X744676Y697229D01*
X743933Y698178D01*
X743248Y699169D01*
X742625Y700200D01*
X742065Y701267D01*
X741570Y702366D01*
X741143Y703493D01*
X740785Y704643D01*
X740496Y705813D01*
X740279Y706999D01*
X740134Y708195D01*
X740061Y709398D01*
X740061Y710603D01*
X740134Y711805D01*
X740279Y713001D01*
X740496Y714187D01*
X740785Y715357D01*
X741143Y716507D01*
X741570Y717634D01*
X742065Y718733D01*
X742625Y719800D01*
X743248Y720831D01*
X743933Y721823D01*
X744676Y722771D01*
X745475Y723673D01*
X746327Y724525D01*
X747229Y725324D01*
X748178Y726067D01*
X749169Y726752D01*
X750200Y727375D01*
X751267Y727935D01*
X752366Y728430D01*
X753493Y728857D01*
X754643Y729215D01*
X755813Y729504D01*
X756999Y729721D01*
X758195Y729866D01*
X759398Y729939D01*
X760603Y729939D01*
X761805Y729866D01*
X763001Y729721D01*
X764187Y729504D01*
X765357Y729215D01*
X766507Y728857D01*
X767634Y728430D01*
X768733Y727935D01*
X769800Y727375D01*
X770831Y726752D01*
X771823Y726067D01*
X772771Y725324D01*
X773673Y724525D01*
X774525Y723673D01*
X775324Y722771D01*
X776067Y721823D01*
X776752Y720831D01*
X777375Y719800D01*
X777935Y718733D01*
X778430Y717634D01*
X778857Y716507D01*
X779215Y715357D01*
X779504Y714187D01*
X779721Y713001D01*
X779866Y711805D01*
X779939Y710603D01*
X779939Y709398D01*
X717709Y709629D02*
X717644Y708888D01*
X717515Y708157D01*
X717323Y707439D01*
X717069Y706741D01*
X716755Y706067D01*
X716383Y705424D01*
X715957Y704815D01*
X715479Y704246D01*
X714954Y703721D01*
X714385Y703243D01*
X713776Y702817D01*
X713133Y702445D01*
X712459Y702131D01*
X711761Y701877D01*
X711043Y701685D01*
X710312Y701556D01*
X709572Y701491D01*
X708829Y701491D01*
X708088Y701556D01*
X707357Y701685D01*
X706639Y701877D01*
X705941Y702131D01*
X705267Y702445D01*
X704624Y702817D01*
X704015Y703243D01*
X703446Y703721D01*
X702921Y704246D01*
X702443Y704815D01*
X702017Y705424D01*
X701645Y706067D01*
X701331Y706741D01*
X701077Y707439D01*
X700885Y708157D01*
X700756Y708888D01*
X700691Y709629D01*
X700691Y710372D01*
X700756Y711112D01*
X700885Y711843D01*
X701077Y712561D01*
X701331Y713259D01*
X701645Y713933D01*
X702017Y714576D01*
X702443Y715185D01*
X702921Y715754D01*
X703446Y716279D01*
X704015Y716757D01*
X704624Y717183D01*
X705267Y717555D01*
X705941Y717869D01*
X706639Y718123D01*
X707357Y718315D01*
X708088Y718444D01*
X708829Y718509D01*
X709572Y718509D01*
X710312Y718444D01*
X711043Y718315D01*
X711761Y718123D01*
X712459Y717869D01*
X713133Y717555D01*
X713776Y717183D01*
X714385Y716757D01*
X714954Y716279D01*
X715479Y715754D01*
X715957Y715185D01*
X716383Y714576D01*
X716755Y713933D01*
X717069Y713259D01*
X717323Y712561D01*
X717515Y711843D01*
X717644Y711112D01*
X717709Y710372D01*
X717709Y709629D01*
X819309Y709629D02*
X819244Y708888D01*
X819115Y708157D01*
X818923Y707439D01*
X818669Y706741D01*
X818355Y706067D01*
X817983Y705424D01*
X817557Y704815D01*
X817079Y704246D01*
X816554Y703721D01*
X815985Y703243D01*
X815376Y702817D01*
X814733Y702445D01*
X814059Y702131D01*
X813361Y701877D01*
X812643Y701685D01*
X811912Y701556D01*
X811172Y701491D01*
X810429Y701491D01*
X809688Y701556D01*
X808957Y701685D01*
X808239Y701877D01*
X807541Y702131D01*
X806867Y702445D01*
X806224Y702817D01*
X805615Y703243D01*
X805046Y703721D01*
X804521Y704246D01*
X804043Y704815D01*
X803617Y705424D01*
X803245Y706067D01*
X802931Y706741D01*
X802677Y707439D01*
X802485Y708157D01*
X802356Y708888D01*
X802291Y709629D01*
X802291Y710372D01*
X802356Y711112D01*
X802485Y711843D01*
X802677Y712561D01*
X802931Y713259D01*
X803245Y713933D01*
X803617Y714576D01*
X804043Y715185D01*
X804521Y715754D01*
X805046Y716279D01*
X805615Y716757D01*
X806224Y717183D01*
X806867Y717555D01*
X807541Y717869D01*
X808239Y718123D01*
X808957Y718315D01*
X809688Y718444D01*
X810429Y718509D01*
X811172Y718509D01*
X811912Y718444D01*
X812643Y718315D01*
X813361Y718123D01*
X814059Y717869D01*
X814733Y717555D01*
X815376Y717183D01*
X815985Y716757D01*
X816554Y716279D01*
X817079Y715754D01*
X817557Y715185D01*
X817983Y714576D01*
X818355Y713933D01*
X818669Y713259D01*
X818923Y712561D01*
X819115Y711843D01*
X819244Y711112D01*
X819309Y710372D01*
X819309Y709629D01*
X399939Y139398D02*
X399866Y138195D01*
X399721Y136999D01*
X399504Y135813D01*
X399215Y134643D01*
X398857Y133493D01*
X398430Y132366D01*
X397935Y131267D01*
X397375Y130200D01*
X396752Y129169D01*
X396067Y128178D01*
X395324Y127229D01*
X394525Y126327D01*
X393673Y125475D01*
X392771Y124676D01*
X391823Y123933D01*
X390831Y123248D01*
X389800Y122625D01*
X388733Y122065D01*
X387634Y121570D01*
X386507Y121143D01*
X385357Y120785D01*
X384187Y120496D01*
X383001Y120279D01*
X381805Y120134D01*
X380603Y120061D01*
X379398Y120061D01*
X378195Y120134D01*
X376999Y120279D01*
X375813Y120496D01*
X374643Y120785D01*
X373493Y121143D01*
X372366Y121570D01*
X371267Y122065D01*
X370200Y122625D01*
X369169Y123248D01*
X368178Y123933D01*
X367229Y124676D01*
X366327Y125475D01*
X365475Y126327D01*
X364676Y127229D01*
X363933Y128178D01*
X363248Y129169D01*
X362625Y130200D01*
X362065Y131267D01*
X361570Y132366D01*
X361143Y133493D01*
X360785Y134643D01*
X360496Y135813D01*
X360279Y136999D01*
X360134Y138195D01*
X360061Y139398D01*
X360061Y140603D01*
X360134Y141805D01*
X360279Y143001D01*
X360496Y144187D01*
X360785Y145357D01*
X361143Y146507D01*
X361570Y147634D01*
X362065Y148733D01*
X362625Y149800D01*
X363248Y150831D01*
X363933Y151823D01*
X364676Y152771D01*
X365475Y153673D01*
X366327Y154525D01*
X367229Y155324D01*
X368178Y156067D01*
X369169Y156752D01*
X370200Y157375D01*
X371267Y157935D01*
X372366Y158430D01*
X373493Y158857D01*
X374643Y159215D01*
X375813Y159504D01*
X376999Y159721D01*
X378195Y159866D01*
X379398Y159939D01*
X380603Y159939D01*
X381805Y159866D01*
X383001Y159721D01*
X384187Y159504D01*
X385357Y159215D01*
X386507Y158857D01*
X387634Y158430D01*
X388733Y157935D01*
X389800Y157375D01*
X390831Y156752D01*
X391823Y156067D01*
X392771Y155324D01*
X393673Y154525D01*
X394525Y153673D01*
X395324Y152771D01*
X396067Y151823D01*
X396752Y150831D01*
X397375Y149800D01*
X397935Y148733D01*
X398430Y147634D01*
X398857Y146507D01*
X399215Y145357D01*
X399504Y144187D01*
X399721Y143001D01*
X399866Y141805D01*
X399939Y140603D01*
X399939Y139398D01*
X337709Y139629D02*
X337644Y138888D01*
X337515Y138157D01*
X337323Y137439D01*
X337069Y136741D01*
X336755Y136067D01*
X336383Y135424D01*
X335957Y134815D01*
X335479Y134246D01*
X334954Y133721D01*
X334385Y133243D01*
X333776Y132817D01*
X333133Y132445D01*
X332459Y132131D01*
X331761Y131877D01*
X331043Y131685D01*
X330312Y131556D01*
X329572Y131491D01*
X328829Y131491D01*
X328088Y131556D01*
X327357Y131685D01*
X326639Y131877D01*
X325941Y132131D01*
X325267Y132445D01*
X324624Y132817D01*
X324015Y133243D01*
X323446Y133721D01*
X322921Y134246D01*
X322443Y134815D01*
X322017Y135424D01*
X321645Y136067D01*
X321331Y136741D01*
X321077Y137439D01*
X320885Y138157D01*
X320756Y138888D01*
X320691Y139629D01*
X320691Y140372D01*
X320756Y141112D01*
X320885Y141843D01*
X321077Y142561D01*
X321331Y143259D01*
X321645Y143933D01*
X322017Y144576D01*
X322443Y145185D01*
X322921Y145754D01*
X323446Y146279D01*
X324015Y146757D01*
X324624Y147183D01*
X325267Y147555D01*
X325941Y147869D01*
X326639Y148123D01*
X327357Y148315D01*
X328088Y148444D01*
X328829Y148509D01*
X329572Y148509D01*
X330312Y148444D01*
X331043Y148315D01*
X331761Y148123D01*
X332459Y147869D01*
X333133Y147555D01*
X333776Y147183D01*
X334385Y146757D01*
X334954Y146279D01*
X335479Y145754D01*
X335957Y145185D01*
X336383Y144576D01*
X336755Y143933D01*
X337069Y143259D01*
X337323Y142561D01*
X337515Y141843D01*
X337644Y141112D01*
X337709Y140372D01*
X337709Y139629D01*
X439309Y139629D02*
X439244Y138888D01*
X439115Y138157D01*
X438923Y137439D01*
X438669Y136741D01*
X438355Y136067D01*
X437983Y135424D01*
X437557Y134815D01*
X437079Y134246D01*
X436554Y133721D01*
X435985Y133243D01*
X435376Y132817D01*
X434733Y132445D01*
X434059Y132131D01*
X433361Y131877D01*
X432643Y131685D01*
X431912Y131556D01*
X431172Y131491D01*
X430429Y131491D01*
X429688Y131556D01*
X428957Y131685D01*
X428239Y131877D01*
X427541Y132131D01*
X426867Y132445D01*
X426224Y132817D01*
X425615Y133243D01*
X425046Y133721D01*
X424521Y134246D01*
X424043Y134815D01*
X423617Y135424D01*
X423245Y136067D01*
X422931Y136741D01*
X422677Y137439D01*
X422485Y138157D01*
X422356Y138888D01*
X422291Y139629D01*
X422291Y140372D01*
X422356Y141112D01*
X422485Y141843D01*
X422677Y142561D01*
X422931Y143259D01*
X423245Y143933D01*
X423617Y144576D01*
X424043Y145185D01*
X424521Y145754D01*
X425046Y146279D01*
X425615Y146757D01*
X426224Y147183D01*
X426867Y147555D01*
X427541Y147869D01*
X428239Y148123D01*
X428957Y148315D01*
X429688Y148444D01*
X430429Y148509D01*
X431172Y148509D01*
X431912Y148444D01*
X432643Y148315D01*
X433361Y148123D01*
X434059Y147869D01*
X434733Y147555D01*
X435376Y147183D01*
X435985Y146757D01*
X436554Y146279D01*
X437079Y145754D01*
X437557Y145185D01*
X437983Y144576D01*
X438355Y143933D01*
X438669Y143259D01*
X438923Y142561D01*
X439115Y141843D01*
X439244Y141112D01*
X439309Y140372D01*
X439309Y139629D01*
X589939Y139398D02*
X589866Y138195D01*
X589721Y136999D01*
X589504Y135813D01*
X589215Y134643D01*
X588857Y133493D01*
X588430Y132366D01*
X587935Y131267D01*
X587375Y130200D01*
X586752Y129169D01*
X586067Y128178D01*
X585324Y127229D01*
X584525Y126327D01*
X583673Y125475D01*
X582771Y124676D01*
X581823Y123933D01*
X580831Y123248D01*
X579800Y122625D01*
X578733Y122065D01*
X577634Y121570D01*
X576507Y121143D01*
X575357Y120785D01*
X574187Y120496D01*
X573001Y120279D01*
X571805Y120134D01*
X570603Y120061D01*
X569398Y120061D01*
X568195Y120134D01*
X566999Y120279D01*
X565813Y120496D01*
X564643Y120785D01*
X563493Y121143D01*
X562366Y121570D01*
X561267Y122065D01*
X560200Y122625D01*
X559169Y123248D01*
X558178Y123933D01*
X557229Y124676D01*
X556327Y125475D01*
X555475Y126327D01*
X554676Y127229D01*
X553933Y128178D01*
X553248Y129169D01*
X552625Y130200D01*
X552065Y131267D01*
X551570Y132366D01*
X551143Y133493D01*
X550785Y134643D01*
X550496Y135813D01*
X550279Y136999D01*
X550134Y138195D01*
X550061Y139398D01*
X550061Y140603D01*
X550134Y141805D01*
X550279Y143001D01*
X550496Y144187D01*
X550785Y145357D01*
X551143Y146507D01*
X551570Y147634D01*
X552065Y148733D01*
X552625Y149800D01*
X553248Y150831D01*
X553933Y151823D01*
X554676Y152771D01*
X555475Y153673D01*
X556327Y154525D01*
X557229Y155324D01*
X558178Y156067D01*
X559169Y156752D01*
X560200Y157375D01*
X561267Y157935D01*
X562366Y158430D01*
X563493Y158857D01*
X564643Y159215D01*
X565813Y159504D01*
X566999Y159721D01*
X568195Y159866D01*
X569398Y159939D01*
X570603Y159939D01*
X571805Y159866D01*
X573001Y159721D01*
X574187Y159504D01*
X575357Y159215D01*
X576507Y158857D01*
X577634Y158430D01*
X578733Y157935D01*
X579800Y157375D01*
X580831Y156752D01*
X581823Y156067D01*
X582771Y155324D01*
X583673Y154525D01*
X584525Y153673D01*
X585324Y152771D01*
X586067Y151823D01*
X586752Y150831D01*
X587375Y149800D01*
X587935Y148733D01*
X588430Y147634D01*
X588857Y146507D01*
X589215Y145357D01*
X589504Y144187D01*
X589721Y143001D01*
X589866Y141805D01*
X589939Y140603D01*
X589939Y139398D01*
X527709Y139629D02*
X527644Y138888D01*
X527515Y138157D01*
X527323Y137439D01*
X527069Y136741D01*
X526755Y136067D01*
X526383Y135424D01*
X525957Y134815D01*
X525479Y134246D01*
X524954Y133721D01*
X524385Y133243D01*
X523776Y132817D01*
X523133Y132445D01*
X522459Y132131D01*
X521761Y131877D01*
X521043Y131685D01*
X520312Y131556D01*
X519572Y131491D01*
X518829Y131491D01*
X518088Y131556D01*
X517357Y131685D01*
X516639Y131877D01*
X515941Y132131D01*
X515267Y132445D01*
X514624Y132817D01*
X514015Y133243D01*
X513446Y133721D01*
X512921Y134246D01*
X512443Y134815D01*
X512017Y135424D01*
X511645Y136067D01*
X511331Y136741D01*
X511077Y137439D01*
X510885Y138157D01*
X510756Y138888D01*
X510691Y139629D01*
X510691Y140372D01*
X510756Y141112D01*
X510885Y141843D01*
X511077Y142561D01*
X511331Y143259D01*
X511645Y143933D01*
X512017Y144576D01*
X512443Y145185D01*
X512921Y145754D01*
X513446Y146279D01*
X514015Y146757D01*
X514624Y147183D01*
X515267Y147555D01*
X515941Y147869D01*
X516639Y148123D01*
X517357Y148315D01*
X518088Y148444D01*
X518829Y148509D01*
X519572Y148509D01*
X520312Y148444D01*
X521043Y148315D01*
X521761Y148123D01*
X522459Y147869D01*
X523133Y147555D01*
X523776Y147183D01*
X524385Y146757D01*
X524954Y146279D01*
X525479Y145754D01*
X525957Y145185D01*
X526383Y144576D01*
X526755Y143933D01*
X527069Y143259D01*
X527323Y142561D01*
X527515Y141843D01*
X527644Y141112D01*
X527709Y140372D01*
X527709Y139629D01*
X629309Y139629D02*
X629244Y138888D01*
X629115Y138157D01*
X628923Y137439D01*
X628669Y136741D01*
X628355Y136067D01*
X627983Y135424D01*
X627557Y134815D01*
X627079Y134246D01*
X626554Y133721D01*
X625985Y133243D01*
X625376Y132817D01*
X624733Y132445D01*
X624059Y132131D01*
X623361Y131877D01*
X622643Y131685D01*
X621912Y131556D01*
X621172Y131491D01*
X620429Y131491D01*
X619688Y131556D01*
X618957Y131685D01*
X618239Y131877D01*
X617541Y132131D01*
X616867Y132445D01*
X616224Y132817D01*
X615615Y133243D01*
X615046Y133721D01*
X614521Y134246D01*
X614043Y134815D01*
X613617Y135424D01*
X613245Y136067D01*
X612931Y136741D01*
X612677Y137439D01*
X612485Y138157D01*
X612356Y138888D01*
X612291Y139629D01*
X612291Y140372D01*
X612356Y141112D01*
X612485Y141843D01*
X612677Y142561D01*
X612931Y143259D01*
X613245Y143933D01*
X613617Y144576D01*
X614043Y145185D01*
X614521Y145754D01*
X615046Y146279D01*
X615615Y146757D01*
X616224Y147183D01*
X616867Y147555D01*
X617541Y147869D01*
X618239Y148123D01*
X618957Y148315D01*
X619688Y148444D01*
X620429Y148509D01*
X621172Y148509D01*
X621912Y148444D01*
X622643Y148315D01*
X623361Y148123D01*
X624059Y147869D01*
X624733Y147555D01*
X625376Y147183D01*
X625985Y146757D01*
X626554Y146279D01*
X627079Y145754D01*
X627557Y145185D01*
X627983Y144576D01*
X628355Y143933D01*
X628669Y143259D01*
X628923Y142561D01*
X629115Y141843D01*
X629244Y141112D01*
X629309Y140372D01*
X629309Y139629D01*
X779939Y139398D02*
X779866Y138195D01*
X779721Y136999D01*
X779504Y135813D01*
X779215Y134643D01*
X778857Y133493D01*
X778430Y132366D01*
X777935Y131267D01*
X777375Y130200D01*
X776752Y129169D01*
X776067Y128178D01*
X775324Y127229D01*
X774525Y126327D01*
X773673Y125475D01*
X772771Y124676D01*
X771823Y123933D01*
X770831Y123248D01*
X769800Y122625D01*
X768733Y122065D01*
X767634Y121570D01*
X766507Y121143D01*
X765357Y120785D01*
X764187Y120496D01*
X763001Y120279D01*
X761805Y120134D01*
X760603Y120061D01*
X759398Y120061D01*
X758195Y120134D01*
X756999Y120279D01*
X755813Y120496D01*
X754643Y120785D01*
X753493Y121143D01*
X752366Y121570D01*
X751267Y122065D01*
X750200Y122625D01*
X749169Y123248D01*
X748178Y123933D01*
X747229Y124676D01*
X746327Y125475D01*
X745475Y126327D01*
X744676Y127229D01*
X743933Y128178D01*
X743248Y129169D01*
X742625Y130200D01*
X742065Y131267D01*
X741570Y132366D01*
X741143Y133493D01*
X740785Y134643D01*
X740496Y135813D01*
X740279Y136999D01*
X740134Y138195D01*
X740061Y139398D01*
X740061Y140603D01*
X740134Y141805D01*
X740279Y143001D01*
X740496Y144187D01*
X740785Y145357D01*
X741143Y146507D01*
X741570Y147634D01*
X742065Y148733D01*
X742625Y149800D01*
X743248Y150831D01*
X743933Y151823D01*
X744676Y152771D01*
X745475Y153673D01*
X746327Y154525D01*
X747229Y155324D01*
X748178Y156067D01*
X749169Y156752D01*
X750200Y157375D01*
X751267Y157935D01*
X752366Y158430D01*
X753493Y158857D01*
X754643Y159215D01*
X755813Y159504D01*
X756999Y159721D01*
X758195Y159866D01*
X759398Y159939D01*
X760603Y159939D01*
X761805Y159866D01*
X763001Y159721D01*
X764187Y159504D01*
X765357Y159215D01*
X766507Y158857D01*
X767634Y158430D01*
X768733Y157935D01*
X769800Y157375D01*
X770831Y156752D01*
X771823Y156067D01*
X772771Y155324D01*
X773673Y154525D01*
X774525Y153673D01*
X775324Y152771D01*
X776067Y151823D01*
X776752Y150831D01*
X777375Y149800D01*
X777935Y148733D01*
X778430Y147634D01*
X778857Y146507D01*
X779215Y145357D01*
X779504Y144187D01*
X779721Y143001D01*
X779866Y141805D01*
X779939Y140603D01*
X779939Y139398D01*
X717709Y139629D02*
X717644Y138888D01*
X717515Y138157D01*
X717323Y137439D01*
X717069Y136741D01*
X716755Y136067D01*
X716383Y135424D01*
X715957Y134815D01*
X715479Y134246D01*
X714954Y133721D01*
X714385Y133243D01*
X713776Y132817D01*
X713133Y132445D01*
X712459Y132131D01*
X711761Y131877D01*
X711043Y131685D01*
X710312Y131556D01*
X709572Y131491D01*
X708829Y131491D01*
X708088Y131556D01*
X707357Y131685D01*
X706639Y131877D01*
X705941Y132131D01*
X705267Y132445D01*
X704624Y132817D01*
X704015Y133243D01*
X703446Y133721D01*
X702921Y134246D01*
X702443Y134815D01*
X702017Y135424D01*
X701645Y136067D01*
X701331Y136741D01*
X701077Y137439D01*
X700885Y138157D01*
X700756Y138888D01*
X700691Y139629D01*
X700691Y140372D01*
X700756Y141112D01*
X700885Y141843D01*
X701077Y142561D01*
X701331Y143259D01*
X701645Y143933D01*
X702017Y144576D01*
X702443Y145185D01*
X702921Y145754D01*
X703446Y146279D01*
X704015Y146757D01*
X704624Y147183D01*
X705267Y147555D01*
X705941Y147869D01*
X706639Y148123D01*
X707357Y148315D01*
X708088Y148444D01*
X708829Y148509D01*
X709572Y148509D01*
X710312Y148444D01*
X711043Y148315D01*
X711761Y148123D01*
X712459Y147869D01*
X713133Y147555D01*
X713776Y147183D01*
X714385Y146757D01*
X714954Y146279D01*
X715479Y145754D01*
X715957Y145185D01*
X716383Y144576D01*
X716755Y143933D01*
X717069Y143259D01*
X717323Y142561D01*
X717515Y141843D01*
X717644Y141112D01*
X717709Y140372D01*
X717709Y139629D01*
X819309Y139629D02*
X819244Y138888D01*
X819115Y138157D01*
X818923Y137439D01*
X818669Y136741D01*
X818355Y136067D01*
X817983Y135424D01*
X817557Y134815D01*
X817079Y134246D01*
X816554Y133721D01*
X815985Y133243D01*
X815376Y132817D01*
X814733Y132445D01*
X814059Y132131D01*
X813361Y131877D01*
X812643Y131685D01*
X811912Y131556D01*
X811172Y131491D01*
X810429Y131491D01*
X809688Y131556D01*
X808957Y131685D01*
X808239Y131877D01*
X807541Y132131D01*
X806867Y132445D01*
X806224Y132817D01*
X805615Y133243D01*
X805046Y133721D01*
X804521Y134246D01*
X804043Y134815D01*
X803617Y135424D01*
X803245Y136067D01*
X802931Y136741D01*
X802677Y137439D01*
X802485Y138157D01*
X802356Y138888D01*
X802291Y139629D01*
X802291Y140372D01*
X802356Y141112D01*
X802485Y141843D01*
X802677Y142561D01*
X802931Y143259D01*
X803245Y143933D01*
X803617Y144576D01*
X804043Y145185D01*
X804521Y145754D01*
X805046Y146279D01*
X805615Y146757D01*
X806224Y147183D01*
X806867Y147555D01*
X807541Y147869D01*
X808239Y148123D01*
X808957Y148315D01*
X809688Y148444D01*
X810429Y148509D01*
X811172Y148509D01*
X811912Y148444D01*
X812643Y148315D01*
X813361Y148123D01*
X814059Y147869D01*
X814733Y147555D01*
X815376Y147183D01*
X815985Y146757D01*
X816554Y146279D01*
X817079Y145754D01*
X817557Y145185D01*
X817983Y144576D01*
X818355Y143933D01*
X818669Y143259D01*
X818923Y142561D01*
X819115Y141843D01*
X819244Y141112D01*
X819309Y140372D01*
X819309Y139629D01*
X209939Y329398D02*
X209866Y328195D01*
X209721Y326999D01*
X209504Y325813D01*
X209215Y324643D01*
X208857Y323493D01*
X208430Y322366D01*
X207935Y321267D01*
X207375Y320200D01*
X206752Y319169D01*
X206067Y318178D01*
X205324Y317229D01*
X204525Y316327D01*
X203673Y315475D01*
X202771Y314676D01*
X201823Y313933D01*
X200831Y313248D01*
X199800Y312625D01*
X198733Y312065D01*
X197634Y311570D01*
X196507Y311143D01*
X195357Y310785D01*
X194187Y310496D01*
X193001Y310279D01*
X191805Y310134D01*
X190603Y310061D01*
X189398Y310061D01*
X188195Y310134D01*
X186999Y310279D01*
X185813Y310496D01*
X184643Y310785D01*
X183493Y311143D01*
X182366Y311570D01*
X181267Y312065D01*
X180200Y312625D01*
X179169Y313248D01*
X178178Y313933D01*
X177229Y314676D01*
X176327Y315475D01*
X175475Y316327D01*
X174676Y317229D01*
X173933Y318178D01*
X173248Y319169D01*
X172625Y320200D01*
X172065Y321267D01*
X171570Y322366D01*
X171143Y323493D01*
X170785Y324643D01*
X170496Y325813D01*
X170279Y326999D01*
X170134Y328195D01*
X170061Y329398D01*
X170061Y330603D01*
X170134Y331805D01*
X170279Y333001D01*
X170496Y334187D01*
X170785Y335357D01*
X171143Y336507D01*
X171570Y337634D01*
X172065Y338733D01*
X172625Y339800D01*
X173248Y340831D01*
X173933Y341823D01*
X174676Y342771D01*
X175475Y343673D01*
X176327Y344525D01*
X177229Y345324D01*
X178178Y346067D01*
X179169Y346752D01*
X180200Y347375D01*
X181267Y347935D01*
X182366Y348430D01*
X183493Y348857D01*
X184643Y349215D01*
X185813Y349504D01*
X186999Y349721D01*
X188195Y349866D01*
X189398Y349939D01*
X190603Y349939D01*
X191805Y349866D01*
X193001Y349721D01*
X194187Y349504D01*
X195357Y349215D01*
X196507Y348857D01*
X197634Y348430D01*
X198733Y347935D01*
X199800Y347375D01*
X200831Y346752D01*
X201823Y346067D01*
X202771Y345324D01*
X203673Y344525D01*
X204525Y343673D01*
X205324Y342771D01*
X206067Y341823D01*
X206752Y340831D01*
X207375Y339800D01*
X207935Y338733D01*
X208430Y337634D01*
X208857Y336507D01*
X209215Y335357D01*
X209504Y334187D01*
X209721Y333001D01*
X209866Y331805D01*
X209939Y330603D01*
X209939Y329398D01*
X147709Y329629D02*
X147644Y328888D01*
X147515Y328157D01*
X147323Y327439D01*
X147069Y326741D01*
X146755Y326067D01*
X146383Y325424D01*
X145957Y324815D01*
X145479Y324246D01*
X144954Y323721D01*
X144385Y323243D01*
X143776Y322817D01*
X143133Y322445D01*
X142459Y322131D01*
X141761Y321877D01*
X141043Y321685D01*
X140312Y321556D01*
X139572Y321491D01*
X138829Y321491D01*
X138088Y321556D01*
X137357Y321685D01*
X136639Y321877D01*
X135941Y322131D01*
X135267Y322445D01*
X134624Y322817D01*
X134015Y323243D01*
X133446Y323721D01*
X132921Y324246D01*
X132443Y324815D01*
X132017Y325424D01*
X131645Y326067D01*
X131331Y326741D01*
X131077Y327439D01*
X130885Y328157D01*
X130756Y328888D01*
X130691Y329629D01*
X130691Y330372D01*
X130756Y331112D01*
X130885Y331843D01*
X131077Y332561D01*
X131331Y333259D01*
X131645Y333933D01*
X132017Y334576D01*
X132443Y335185D01*
X132921Y335754D01*
X133446Y336279D01*
X134015Y336757D01*
X134624Y337183D01*
X135267Y337555D01*
X135941Y337869D01*
X136639Y338123D01*
X137357Y338315D01*
X138088Y338444D01*
X138829Y338509D01*
X139572Y338509D01*
X140312Y338444D01*
X141043Y338315D01*
X141761Y338123D01*
X142459Y337869D01*
X143133Y337555D01*
X143776Y337183D01*
X144385Y336757D01*
X144954Y336279D01*
X145479Y335754D01*
X145957Y335185D01*
X146383Y334576D01*
X146755Y333933D01*
X147069Y333259D01*
X147323Y332561D01*
X147515Y331843D01*
X147644Y331112D01*
X147709Y330372D01*
X147709Y329629D01*
X249309Y329629D02*
X249244Y328888D01*
X249115Y328157D01*
X248923Y327439D01*
X248669Y326741D01*
X248355Y326067D01*
X247983Y325424D01*
X247557Y324815D01*
X247079Y324246D01*
X246554Y323721D01*
X245985Y323243D01*
X245376Y322817D01*
X244733Y322445D01*
X244059Y322131D01*
X243361Y321877D01*
X242643Y321685D01*
X241912Y321556D01*
X241172Y321491D01*
X240429Y321491D01*
X239688Y321556D01*
X238957Y321685D01*
X238239Y321877D01*
X237541Y322131D01*
X236867Y322445D01*
X236224Y322817D01*
X235615Y323243D01*
X235046Y323721D01*
X234521Y324246D01*
X234043Y324815D01*
X233617Y325424D01*
X233245Y326067D01*
X232931Y326741D01*
X232677Y327439D01*
X232485Y328157D01*
X232356Y328888D01*
X232291Y329629D01*
X232291Y330372D01*
X232356Y331112D01*
X232485Y331843D01*
X232677Y332561D01*
X232931Y333259D01*
X233245Y333933D01*
X233617Y334576D01*
X234043Y335185D01*
X234521Y335754D01*
X235046Y336279D01*
X235615Y336757D01*
X236224Y337183D01*
X236867Y337555D01*
X237541Y337869D01*
X238239Y338123D01*
X238957Y338315D01*
X239688Y338444D01*
X240429Y338509D01*
X241172Y338509D01*
X241912Y338444D01*
X242643Y338315D01*
X243361Y338123D01*
X244059Y337869D01*
X244733Y337555D01*
X245376Y337183D01*
X245985Y336757D01*
X246554Y336279D01*
X247079Y335754D01*
X247557Y335185D01*
X247983Y334576D01*
X248355Y333933D01*
X248669Y333259D01*
X248923Y332561D01*
X249115Y331843D01*
X249244Y331112D01*
X249309Y330372D01*
X249309Y329629D01*
X399939Y329398D02*
X399866Y328195D01*
X399721Y326999D01*
X399504Y325813D01*
X399215Y324643D01*
X398857Y323493D01*
X398430Y322366D01*
X397935Y321267D01*
X397375Y320200D01*
X396752Y319169D01*
X396067Y318178D01*
X395324Y317229D01*
X394525Y316327D01*
X393673Y315475D01*
X392771Y314676D01*
X391823Y313933D01*
X390831Y313248D01*
X389800Y312625D01*
X388733Y312065D01*
X387634Y311570D01*
X386507Y311143D01*
X385357Y310785D01*
X384187Y310496D01*
X383001Y310279D01*
X381805Y310134D01*
X380603Y310061D01*
X379398Y310061D01*
X378195Y310134D01*
X376999Y310279D01*
X375813Y310496D01*
X374643Y310785D01*
X373493Y311143D01*
X372366Y311570D01*
X371267Y312065D01*
X370200Y312625D01*
X369169Y313248D01*
X368178Y313933D01*
X367229Y314676D01*
X366327Y315475D01*
X365475Y316327D01*
X364676Y317229D01*
X363933Y318178D01*
X363248Y319169D01*
X362625Y320200D01*
X362065Y321267D01*
X361570Y322366D01*
X361143Y323493D01*
X360785Y324643D01*
X360496Y325813D01*
X360279Y326999D01*
X360134Y328195D01*
X360061Y329398D01*
X360061Y330603D01*
X360134Y331805D01*
X360279Y333001D01*
X360496Y334187D01*
X360785Y335357D01*
X361143Y336507D01*
X361570Y337634D01*
X362065Y338733D01*
X362625Y339800D01*
X363248Y340831D01*
X363933Y341823D01*
X364676Y342771D01*
X365475Y343673D01*
X366327Y344525D01*
X367229Y345324D01*
X368178Y346067D01*
X369169Y346752D01*
X370200Y347375D01*
X371267Y347935D01*
X372366Y348430D01*
X373493Y348857D01*
X374643Y349215D01*
X375813Y349504D01*
X376999Y349721D01*
X378195Y349866D01*
X379398Y349939D01*
X380603Y349939D01*
X381805Y349866D01*
X383001Y349721D01*
X384187Y349504D01*
X385357Y349215D01*
X386507Y348857D01*
X387634Y348430D01*
X388733Y347935D01*
X389800Y347375D01*
X390831Y346752D01*
X391823Y346067D01*
X392771Y345324D01*
X393673Y344525D01*
X394525Y343673D01*
X395324Y342771D01*
X396067Y341823D01*
X396752Y340831D01*
X397375Y339800D01*
X397935Y338733D01*
X398430Y337634D01*
X398857Y336507D01*
X399215Y335357D01*
X399504Y334187D01*
X399721Y333001D01*
X399866Y331805D01*
X399939Y330603D01*
X399939Y329398D01*
X337709Y329629D02*
X337644Y328888D01*
X337515Y328157D01*
X337323Y327439D01*
X337069Y326741D01*
X336755Y326067D01*
X336383Y325424D01*
X335957Y324815D01*
X335479Y324246D01*
X334954Y323721D01*
X334385Y323243D01*
X333776Y322817D01*
X333133Y322445D01*
X332459Y322131D01*
X331761Y321877D01*
X331043Y321685D01*
X330312Y321556D01*
X329572Y321491D01*
X328829Y321491D01*
X328088Y321556D01*
X327357Y321685D01*
X326639Y321877D01*
X325941Y322131D01*
X325267Y322445D01*
X324624Y322817D01*
X324015Y323243D01*
X323446Y323721D01*
X322921Y324246D01*
X322443Y324815D01*
X322017Y325424D01*
X321645Y326067D01*
X321331Y326741D01*
X321077Y327439D01*
X320885Y328157D01*
X320756Y328888D01*
X320691Y329629D01*
X320691Y330372D01*
X320756Y331112D01*
X320885Y331843D01*
X321077Y332561D01*
X321331Y333259D01*
X321645Y333933D01*
X322017Y334576D01*
X322443Y335185D01*
X322921Y335754D01*
X323446Y336279D01*
X324015Y336757D01*
X324624Y337183D01*
X325267Y337555D01*
X325941Y337869D01*
X326639Y338123D01*
X327357Y338315D01*
X328088Y338444D01*
X328829Y338509D01*
X329572Y338509D01*
X330312Y338444D01*
X331043Y338315D01*
X331761Y338123D01*
X332459Y337869D01*
X333133Y337555D01*
X333776Y337183D01*
X334385Y336757D01*
X334954Y336279D01*
X335479Y335754D01*
X335957Y335185D01*
X336383Y334576D01*
X336755Y333933D01*
X337069Y333259D01*
X337323Y332561D01*
X337515Y331843D01*
X337644Y331112D01*
X337709Y330372D01*
X337709Y329629D01*
X439309Y329629D02*
X439244Y328888D01*
X439115Y328157D01*
X438923Y327439D01*
X438669Y326741D01*
X438355Y326067D01*
X437983Y325424D01*
X437557Y324815D01*
X437079Y324246D01*
X436554Y323721D01*
X435985Y323243D01*
X435376Y322817D01*
X434733Y322445D01*
X434059Y322131D01*
X433361Y321877D01*
X432643Y321685D01*
X431912Y321556D01*
X431172Y321491D01*
X430429Y321491D01*
X429688Y321556D01*
X428957Y321685D01*
X428239Y321877D01*
X427541Y322131D01*
X426867Y322445D01*
X426224Y322817D01*
X425615Y323243D01*
X425046Y323721D01*
X424521Y324246D01*
X424043Y324815D01*
X423617Y325424D01*
X423245Y326067D01*
X422931Y326741D01*
X422677Y327439D01*
X422485Y328157D01*
X422356Y328888D01*
X422291Y329629D01*
X422291Y330372D01*
X422356Y331112D01*
X422485Y331843D01*
X422677Y332561D01*
X422931Y333259D01*
X423245Y333933D01*
X423617Y334576D01*
X424043Y335185D01*
X424521Y335754D01*
X425046Y336279D01*
X425615Y336757D01*
X426224Y337183D01*
X426867Y337555D01*
X427541Y337869D01*
X428239Y338123D01*
X428957Y338315D01*
X429688Y338444D01*
X430429Y338509D01*
X431172Y338509D01*
X431912Y338444D01*
X432643Y338315D01*
X433361Y338123D01*
X434059Y337869D01*
X434733Y337555D01*
X435376Y337183D01*
X435985Y336757D01*
X436554Y336279D01*
X437079Y335754D01*
X437557Y335185D01*
X437983Y334576D01*
X438355Y333933D01*
X438669Y333259D01*
X438923Y332561D01*
X439115Y331843D01*
X439244Y331112D01*
X439309Y330372D01*
X439309Y329629D01*
X589939Y329398D02*
X589866Y328195D01*
X589721Y326999D01*
X589504Y325813D01*
X589215Y324643D01*
X588857Y323493D01*
X588430Y322366D01*
X587935Y321267D01*
X587375Y320200D01*
X586752Y319169D01*
X586067Y318178D01*
X585324Y317229D01*
X584525Y316327D01*
X583673Y315475D01*
X582771Y314676D01*
X581823Y313933D01*
X580831Y313248D01*
X579800Y312625D01*
X578733Y312065D01*
X577634Y311570D01*
X576507Y311143D01*
X575357Y310785D01*
X574187Y310496D01*
X573001Y310279D01*
X571805Y310134D01*
X570603Y310061D01*
X569398Y310061D01*
X568195Y310134D01*
X566999Y310279D01*
X565813Y310496D01*
X564643Y310785D01*
X563493Y311143D01*
X562366Y311570D01*
X561267Y312065D01*
X560200Y312625D01*
X559169Y313248D01*
X558178Y313933D01*
X557229Y314676D01*
X556327Y315475D01*
X555475Y316327D01*
X554676Y317229D01*
X553933Y318178D01*
X553248Y319169D01*
X552625Y320200D01*
X552065Y321267D01*
X551570Y322366D01*
X551143Y323493D01*
X550785Y324643D01*
X550496Y325813D01*
X550279Y326999D01*
X550134Y328195D01*
X550061Y329398D01*
X550061Y330603D01*
X550134Y331805D01*
X550279Y333001D01*
X550496Y334187D01*
X550785Y335357D01*
X551143Y336507D01*
X551570Y337634D01*
X552065Y338733D01*
X552625Y339800D01*
X553248Y340831D01*
X553933Y341823D01*
X554676Y342771D01*
X555475Y343673D01*
X556327Y344525D01*
X557229Y345324D01*
X558178Y346067D01*
X559169Y346752D01*
X560200Y347375D01*
X561267Y347935D01*
X562366Y348430D01*
X563493Y348857D01*
X564643Y349215D01*
X565813Y349504D01*
X566999Y349721D01*
X568195Y349866D01*
X569398Y349939D01*
X570603Y349939D01*
X571805Y349866D01*
X573001Y349721D01*
X574187Y349504D01*
X575357Y349215D01*
X576507Y348857D01*
X577634Y348430D01*
X578733Y347935D01*
X579800Y347375D01*
X580831Y346752D01*
X581823Y346067D01*
X582771Y345324D01*
X583673Y344525D01*
X584525Y343673D01*
X585324Y342771D01*
X586067Y341823D01*
X586752Y340831D01*
X587375Y339800D01*
X587935Y338733D01*
X588430Y337634D01*
X588857Y336507D01*
X589215Y335357D01*
X589504Y334187D01*
X589721Y333001D01*
X589866Y331805D01*
X589939Y330603D01*
X589939Y329398D01*
X527709Y329629D02*
X527644Y328888D01*
X527515Y328157D01*
X527323Y327439D01*
X527069Y326741D01*
X526755Y326067D01*
X526383Y325424D01*
X525957Y324815D01*
X525479Y324246D01*
X524954Y323721D01*
X524385Y323243D01*
X523776Y322817D01*
X523133Y322445D01*
X522459Y322131D01*
X521761Y321877D01*
X521043Y321685D01*
X520312Y321556D01*
X519572Y321491D01*
X518829Y321491D01*
X518088Y321556D01*
X517357Y321685D01*
X516639Y321877D01*
X515941Y322131D01*
X515267Y322445D01*
X514624Y322817D01*
X514015Y323243D01*
X513446Y323721D01*
X512921Y324246D01*
X512443Y324815D01*
X512017Y325424D01*
X511645Y326067D01*
X511331Y326741D01*
X511077Y327439D01*
X510885Y328157D01*
X510756Y328888D01*
X510691Y329629D01*
X510691Y330372D01*
X510756Y331112D01*
X510885Y331843D01*
X511077Y332561D01*
X511331Y333259D01*
X511645Y333933D01*
X512017Y334576D01*
X512443Y335185D01*
X512921Y335754D01*
X513446Y336279D01*
X514015Y336757D01*
X514624Y337183D01*
X515267Y337555D01*
X515941Y337869D01*
X516639Y338123D01*
X517357Y338315D01*
X518088Y338444D01*
X518829Y338509D01*
X519572Y338509D01*
X520312Y338444D01*
X521043Y338315D01*
X521761Y338123D01*
X522459Y337869D01*
X523133Y337555D01*
X523776Y337183D01*
X524385Y336757D01*
X524954Y336279D01*
X525479Y335754D01*
X525957Y335185D01*
X526383Y334576D01*
X526755Y333933D01*
X527069Y333259D01*
X527323Y332561D01*
X527515Y331843D01*
X527644Y331112D01*
X527709Y330372D01*
X527709Y329629D01*
X629309Y329629D02*
X629244Y328888D01*
X629115Y328157D01*
X628923Y327439D01*
X628669Y326741D01*
X628355Y326067D01*
X627983Y325424D01*
X627557Y324815D01*
X627079Y324246D01*
X626554Y323721D01*
X625985Y323243D01*
X625376Y322817D01*
X624733Y322445D01*
X624059Y322131D01*
X623361Y321877D01*
X622643Y321685D01*
X621912Y321556D01*
X621172Y321491D01*
X620429Y321491D01*
X619688Y321556D01*
X618957Y321685D01*
X618239Y321877D01*
X617541Y322131D01*
X616867Y322445D01*
X616224Y322817D01*
X615615Y323243D01*
X615046Y323721D01*
X614521Y324246D01*
X614043Y324815D01*
X613617Y325424D01*
X613245Y326067D01*
X612931Y326741D01*
X612677Y327439D01*
X612485Y328157D01*
X612356Y328888D01*
X612291Y329629D01*
X612291Y330372D01*
X612356Y331112D01*
X612485Y331843D01*
X612677Y332561D01*
X612931Y333259D01*
X613245Y333933D01*
X613617Y334576D01*
X614043Y335185D01*
X614521Y335754D01*
X615046Y336279D01*
X615615Y336757D01*
X616224Y337183D01*
X616867Y337555D01*
X617541Y337869D01*
X618239Y338123D01*
X618957Y338315D01*
X619688Y338444D01*
X620429Y338509D01*
X621172Y338509D01*
X621912Y338444D01*
X622643Y338315D01*
X623361Y338123D01*
X624059Y337869D01*
X624733Y337555D01*
X625376Y337183D01*
X625985Y336757D01*
X626554Y336279D01*
X627079Y335754D01*
X627557Y335185D01*
X627983Y334576D01*
X628355Y333933D01*
X628669Y333259D01*
X628923Y332561D01*
X629115Y331843D01*
X629244Y331112D01*
X629309Y330372D01*
X629309Y329629D01*
X779939Y329398D02*
X779866Y328195D01*
X779721Y326999D01*
X779504Y325813D01*
X779215Y324643D01*
X778857Y323493D01*
X778430Y322366D01*
X777935Y321267D01*
X777375Y320200D01*
X776752Y319169D01*
X776067Y318178D01*
X775324Y317229D01*
X774525Y316327D01*
X773673Y315475D01*
X772771Y314676D01*
X771823Y313933D01*
X770831Y313248D01*
X769800Y312625D01*
X768733Y312065D01*
X767634Y311570D01*
X766507Y311143D01*
X765357Y310785D01*
X764187Y310496D01*
X763001Y310279D01*
X761805Y310134D01*
X760603Y310061D01*
X759398Y310061D01*
X758195Y310134D01*
X756999Y310279D01*
X755813Y310496D01*
X754643Y310785D01*
X753493Y311143D01*
X752366Y311570D01*
X751267Y312065D01*
X750200Y312625D01*
X749169Y313248D01*
X748178Y313933D01*
X747229Y314676D01*
X746327Y315475D01*
X745475Y316327D01*
X744676Y317229D01*
X743933Y318178D01*
X743248Y319169D01*
X742625Y320200D01*
X742065Y321267D01*
X741570Y322366D01*
X741143Y323493D01*
X740785Y324643D01*
X740496Y325813D01*
X740279Y326999D01*
X740134Y328195D01*
X740061Y329398D01*
X740061Y330603D01*
X740134Y331805D01*
X740279Y333001D01*
X740496Y334187D01*
X740785Y335357D01*
X741143Y336507D01*
X741570Y337634D01*
X742065Y338733D01*
X742625Y339800D01*
X743248Y340831D01*
X743933Y341823D01*
X744676Y342771D01*
X745475Y343673D01*
X746327Y344525D01*
X747229Y345324D01*
X748178Y346067D01*
X749169Y346752D01*
X750200Y347375D01*
X751267Y347935D01*
X752366Y348430D01*
X753493Y348857D01*
X754643Y349215D01*
X755813Y349504D01*
X756999Y349721D01*
X758195Y349866D01*
X759398Y349939D01*
X760603Y349939D01*
X761805Y349866D01*
X763001Y349721D01*
X764187Y349504D01*
X765357Y349215D01*
X766507Y348857D01*
X767634Y348430D01*
X768733Y347935D01*
X769800Y347375D01*
X770831Y346752D01*
X771823Y346067D01*
X772771Y345324D01*
X773673Y344525D01*
X774525Y343673D01*
X775324Y342771D01*
X776067Y341823D01*
X776752Y340831D01*
X777375Y339800D01*
X777935Y338733D01*
X778430Y337634D01*
X778857Y336507D01*
X779215Y335357D01*
X779504Y334187D01*
X779721Y333001D01*
X779866Y331805D01*
X779939Y330603D01*
X779939Y329398D01*
X717709Y329629D02*
X717644Y328888D01*
X717515Y328157D01*
X717323Y327439D01*
X717069Y326741D01*
X716755Y326067D01*
X716383Y325424D01*
X715957Y324815D01*
X715479Y324246D01*
X714954Y323721D01*
X714385Y323243D01*
X713776Y322817D01*
X713133Y322445D01*
X712459Y322131D01*
X711761Y321877D01*
X711043Y321685D01*
X710312Y321556D01*
X709572Y321491D01*
X708829Y321491D01*
X708088Y321556D01*
X707357Y321685D01*
X706639Y321877D01*
X705941Y322131D01*
X705267Y322445D01*
X704624Y322817D01*
X704015Y323243D01*
X703446Y323721D01*
X702921Y324246D01*
X702443Y324815D01*
X702017Y325424D01*
X701645Y326067D01*
X701331Y326741D01*
X701077Y327439D01*
X700885Y328157D01*
X700756Y328888D01*
X700691Y329629D01*
X700691Y330372D01*
X700756Y331112D01*
X700885Y331843D01*
X701077Y332561D01*
X701331Y333259D01*
X701645Y333933D01*
X702017Y334576D01*
X702443Y335185D01*
X702921Y335754D01*
X703446Y336279D01*
X704015Y336757D01*
X704624Y337183D01*
X705267Y337555D01*
X705941Y337869D01*
X706639Y338123D01*
X707357Y338315D01*
X708088Y338444D01*
X708829Y338509D01*
X709572Y338509D01*
X710312Y338444D01*
X711043Y338315D01*
X711761Y338123D01*
X712459Y337869D01*
X713133Y337555D01*
X713776Y337183D01*
X714385Y336757D01*
X714954Y336279D01*
X715479Y335754D01*
X715957Y335185D01*
X716383Y334576D01*
X716755Y333933D01*
X717069Y333259D01*
X717323Y332561D01*
X717515Y331843D01*
X717644Y331112D01*
X717709Y330372D01*
X717709Y329629D01*
X819309Y329629D02*
X819244Y328888D01*
X819115Y328157D01*
X818923Y327439D01*
X818669Y326741D01*
X818355Y326067D01*
X817983Y325424D01*
X817557Y324815D01*
X817079Y324246D01*
X816554Y323721D01*
X815985Y323243D01*
X815376Y322817D01*
X814733Y322445D01*
X814059Y322131D01*
X813361Y321877D01*
X812643Y321685D01*
X811912Y321556D01*
X811172Y321491D01*
X810429Y321491D01*
X809688Y321556D01*
X808957Y321685D01*
X808239Y321877D01*
X807541Y322131D01*
X806867Y322445D01*
X806224Y322817D01*
X805615Y323243D01*
X805046Y323721D01*
X804521Y324246D01*
X804043Y324815D01*
X803617Y325424D01*
X803245Y326067D01*
X802931Y326741D01*
X802677Y327439D01*
X802485Y328157D01*
X802356Y328888D01*
X802291Y329629D01*
X802291Y330372D01*
X802356Y331112D01*
X802485Y331843D01*
X802677Y332561D01*
X802931Y333259D01*
X803245Y333933D01*
X803617Y334576D01*
X804043Y335185D01*
X804521Y335754D01*
X805046Y336279D01*
X805615Y336757D01*
X806224Y337183D01*
X806867Y337555D01*
X807541Y337869D01*
X808239Y338123D01*
X808957Y338315D01*
X809688Y338444D01*
X810429Y338509D01*
X811172Y338509D01*
X811912Y338444D01*
X812643Y338315D01*
X813361Y338123D01*
X814059Y337869D01*
X814733Y337555D01*
X815376Y337183D01*
X815985Y336757D01*
X816554Y336279D01*
X817079Y335754D01*
X817557Y335185D01*
X817983Y334576D01*
X818355Y333933D01*
X818669Y333259D01*
X818923Y332561D01*
X819115Y331843D01*
X819244Y331112D01*
X819309Y330372D01*
X819309Y329629D01*
X209939Y519398D02*
X209866Y518195D01*
X209721Y516999D01*
X209504Y515813D01*
X209215Y514643D01*
X208857Y513493D01*
X208430Y512366D01*
X207935Y511267D01*
X207375Y510200D01*
X206752Y509169D01*
X206067Y508178D01*
X205324Y507229D01*
X204525Y506327D01*
X203673Y505475D01*
X202771Y504676D01*
X201823Y503933D01*
X200831Y503248D01*
X199800Y502625D01*
X198733Y502065D01*
X197634Y501570D01*
X196507Y501143D01*
X195357Y500785D01*
X194187Y500496D01*
X193001Y500279D01*
X191805Y500134D01*
X190603Y500061D01*
X189398Y500061D01*
X188195Y500134D01*
X186999Y500279D01*
X185813Y500496D01*
X184643Y500785D01*
X183493Y501143D01*
X182366Y501570D01*
X181267Y502065D01*
X180200Y502625D01*
X179169Y503248D01*
X178178Y503933D01*
X177229Y504676D01*
X176327Y505475D01*
X175475Y506327D01*
X174676Y507229D01*
X173933Y508178D01*
X173248Y509169D01*
X172625Y510200D01*
X172065Y511267D01*
X171570Y512366D01*
X171143Y513493D01*
X170785Y514643D01*
X170496Y515813D01*
X170279Y516999D01*
X170134Y518195D01*
X170061Y519398D01*
X170061Y520603D01*
X170134Y521805D01*
X170279Y523001D01*
X170496Y524187D01*
X170785Y525357D01*
X171143Y526507D01*
X171570Y527634D01*
X172065Y528733D01*
X172625Y529800D01*
X173248Y530831D01*
X173933Y531823D01*
X174676Y532771D01*
X175475Y533673D01*
X176327Y534525D01*
X177229Y535324D01*
X178178Y536067D01*
X179169Y536752D01*
X180200Y537375D01*
X181267Y537935D01*
X182366Y538430D01*
X183493Y538857D01*
X184643Y539215D01*
X185813Y539504D01*
X186999Y539721D01*
X188195Y539866D01*
X189398Y539939D01*
X190603Y539939D01*
X191805Y539866D01*
X193001Y539721D01*
X194187Y539504D01*
X195357Y539215D01*
X196507Y538857D01*
X197634Y538430D01*
X198733Y537935D01*
X199800Y537375D01*
X200831Y536752D01*
X201823Y536067D01*
X202771Y535324D01*
X203673Y534525D01*
X204525Y533673D01*
X205324Y532771D01*
X206067Y531823D01*
X206752Y530831D01*
X207375Y529800D01*
X207935Y528733D01*
X208430Y527634D01*
X208857Y526507D01*
X209215Y525357D01*
X209504Y524187D01*
X209721Y523001D01*
X209866Y521805D01*
X209939Y520603D01*
X209939Y519398D01*
X147709Y519629D02*
X147644Y518888D01*
X147515Y518157D01*
X147323Y517439D01*
X147069Y516741D01*
X146755Y516067D01*
X146383Y515424D01*
X145957Y514815D01*
X145479Y514246D01*
X144954Y513721D01*
X144385Y513243D01*
X143776Y512817D01*
X143133Y512445D01*
X142459Y512131D01*
X141761Y511877D01*
X141043Y511685D01*
X140312Y511556D01*
X139572Y511491D01*
X138829Y511491D01*
X138088Y511556D01*
X137357Y511685D01*
X136639Y511877D01*
X135941Y512131D01*
X135267Y512445D01*
X134624Y512817D01*
X134015Y513243D01*
X133446Y513721D01*
X132921Y514246D01*
X132443Y514815D01*
X132017Y515424D01*
X131645Y516067D01*
X131331Y516741D01*
X131077Y517439D01*
X130885Y518157D01*
X130756Y518888D01*
X130691Y519629D01*
X130691Y520372D01*
X130756Y521112D01*
X130885Y521843D01*
X131077Y522561D01*
X131331Y523259D01*
X131645Y523933D01*
X132017Y524576D01*
X132443Y525185D01*
X132921Y525754D01*
X133446Y526279D01*
X134015Y526757D01*
X134624Y527183D01*
X135267Y527555D01*
X135941Y527869D01*
X136639Y528123D01*
X137357Y528315D01*
X138088Y528444D01*
X138829Y528509D01*
X139572Y528509D01*
X140312Y528444D01*
X141043Y528315D01*
X141761Y528123D01*
X142459Y527869D01*
X143133Y527555D01*
X143776Y527183D01*
X144385Y526757D01*
X144954Y526279D01*
X145479Y525754D01*
X145957Y525185D01*
X146383Y524576D01*
X146755Y523933D01*
X147069Y523259D01*
X147323Y522561D01*
X147515Y521843D01*
X147644Y521112D01*
X147709Y520372D01*
X147709Y519629D01*
X249309Y519629D02*
X249244Y518888D01*
X249115Y518157D01*
X248923Y517439D01*
X248669Y516741D01*
X248355Y516067D01*
X247983Y515424D01*
X247557Y514815D01*
X247079Y514246D01*
X246554Y513721D01*
X245985Y513243D01*
X245376Y512817D01*
X244733Y512445D01*
X244059Y512131D01*
X243361Y511877D01*
X242643Y511685D01*
X241912Y511556D01*
X241172Y511491D01*
X240429Y511491D01*
X239688Y511556D01*
X238957Y511685D01*
X238239Y511877D01*
X237541Y512131D01*
X236867Y512445D01*
X236224Y512817D01*
X235615Y513243D01*
X235046Y513721D01*
X234521Y514246D01*
X234043Y514815D01*
X233617Y515424D01*
X233245Y516067D01*
X232931Y516741D01*
X232677Y517439D01*
X232485Y518157D01*
X232356Y518888D01*
X232291Y519629D01*
X232291Y520372D01*
X232356Y521112D01*
X232485Y521843D01*
X232677Y522561D01*
X232931Y523259D01*
X233245Y523933D01*
X233617Y524576D01*
X234043Y525185D01*
X234521Y525754D01*
X235046Y526279D01*
X235615Y526757D01*
X236224Y527183D01*
X236867Y527555D01*
X237541Y527869D01*
X238239Y528123D01*
X238957Y528315D01*
X239688Y528444D01*
X240429Y528509D01*
X241172Y528509D01*
X241912Y528444D01*
X242643Y528315D01*
X243361Y528123D01*
X244059Y527869D01*
X244733Y527555D01*
X245376Y527183D01*
X245985Y526757D01*
X246554Y526279D01*
X247079Y525754D01*
X247557Y525185D01*
X247983Y524576D01*
X248355Y523933D01*
X248669Y523259D01*
X248923Y522561D01*
X249115Y521843D01*
X249244Y521112D01*
X249309Y520372D01*
X249309Y519629D01*
M02*
