G04 EAGLE Gerber X2 export*
%TF.Part,Single*%
%TF.FileFunction,Legend,Bot,1*%
%TF.FilePolarity,Positive*%
%TF.GenerationSoftware,Autodesk,EAGLE,9.1.2*%
%TF.CreationDate,2018-09-23T14:51:44Z*%
G75*
%MOMM*%
%FSLAX34Y34*%
%LPD*%
%AMOC8*
5,1,8,0,0,1.08239X$1,22.5*%
G01*
%ADD10C,0.050800*%
%ADD11C,0.203200*%
%ADD12C,0.127000*%


D10*
X257427Y608358D02*
X258358Y608358D01*
X258358Y605254D01*
X256496Y605254D01*
X256426Y605256D01*
X256357Y605262D01*
X256288Y605272D01*
X256220Y605285D01*
X256152Y605303D01*
X256086Y605324D01*
X256021Y605349D01*
X255957Y605377D01*
X255895Y605409D01*
X255835Y605444D01*
X255777Y605483D01*
X255722Y605525D01*
X255668Y605570D01*
X255618Y605618D01*
X255570Y605668D01*
X255525Y605722D01*
X255483Y605777D01*
X255444Y605835D01*
X255409Y605895D01*
X255377Y605957D01*
X255349Y606021D01*
X255324Y606086D01*
X255303Y606152D01*
X255285Y606220D01*
X255272Y606288D01*
X255262Y606357D01*
X255256Y606426D01*
X255254Y606496D01*
X255254Y609600D01*
X255256Y609670D01*
X255262Y609739D01*
X255272Y609808D01*
X255285Y609876D01*
X255303Y609944D01*
X255324Y610010D01*
X255349Y610075D01*
X255377Y610139D01*
X255409Y610201D01*
X255444Y610261D01*
X255483Y610319D01*
X255525Y610374D01*
X255570Y610428D01*
X255618Y610478D01*
X255668Y610526D01*
X255722Y610571D01*
X255777Y610613D01*
X255835Y610652D01*
X255895Y610687D01*
X255957Y610719D01*
X256021Y610747D01*
X256086Y610772D01*
X256152Y610793D01*
X256220Y610811D01*
X256288Y610824D01*
X256357Y610834D01*
X256426Y610840D01*
X256496Y610842D01*
X258358Y610842D01*
X261106Y610842D02*
X261106Y605254D01*
X264211Y605254D02*
X261106Y610842D01*
X264211Y610842D02*
X264211Y605254D01*
X266958Y605254D02*
X266958Y610842D01*
X268510Y610842D01*
X268586Y610840D01*
X268662Y610835D01*
X268738Y610825D01*
X268813Y610812D01*
X268887Y610795D01*
X268961Y610775D01*
X269033Y610751D01*
X269104Y610724D01*
X269174Y610693D01*
X269242Y610659D01*
X269308Y610621D01*
X269372Y610580D01*
X269435Y610537D01*
X269495Y610490D01*
X269552Y610440D01*
X269607Y610387D01*
X269660Y610332D01*
X269710Y610275D01*
X269757Y610215D01*
X269800Y610152D01*
X269841Y610088D01*
X269879Y610022D01*
X269913Y609954D01*
X269944Y609884D01*
X269971Y609813D01*
X269995Y609740D01*
X270015Y609667D01*
X270032Y609593D01*
X270045Y609518D01*
X270055Y609442D01*
X270060Y609366D01*
X270062Y609290D01*
X270063Y609290D02*
X270063Y606806D01*
X270062Y606806D02*
X270060Y606727D01*
X270054Y606649D01*
X270044Y606571D01*
X270030Y606494D01*
X270012Y606417D01*
X269991Y606341D01*
X269965Y606267D01*
X269936Y606194D01*
X269903Y606123D01*
X269867Y606053D01*
X269827Y605985D01*
X269784Y605919D01*
X269737Y605856D01*
X269688Y605795D01*
X269635Y605737D01*
X269579Y605681D01*
X269521Y605628D01*
X269460Y605579D01*
X269397Y605532D01*
X269331Y605489D01*
X269263Y605449D01*
X269194Y605413D01*
X269122Y605380D01*
X269049Y605351D01*
X268975Y605325D01*
X268899Y605304D01*
X268822Y605286D01*
X268745Y605272D01*
X268667Y605262D01*
X268589Y605256D01*
X268510Y605254D01*
X266958Y605254D01*
X255254Y630254D02*
X255254Y635842D01*
X256806Y635842D01*
X256883Y635840D01*
X256961Y635834D01*
X257037Y635825D01*
X257114Y635811D01*
X257189Y635794D01*
X257263Y635773D01*
X257337Y635748D01*
X257409Y635720D01*
X257479Y635688D01*
X257548Y635653D01*
X257615Y635614D01*
X257680Y635572D01*
X257743Y635527D01*
X257804Y635479D01*
X257862Y635428D01*
X257917Y635374D01*
X257970Y635317D01*
X258019Y635258D01*
X258066Y635196D01*
X258110Y635132D01*
X258150Y635066D01*
X258187Y634998D01*
X258221Y634928D01*
X258251Y634857D01*
X258277Y634784D01*
X258300Y634710D01*
X258319Y634635D01*
X258334Y634560D01*
X258346Y634483D01*
X258354Y634406D01*
X258358Y634329D01*
X258358Y634251D01*
X258354Y634174D01*
X258346Y634097D01*
X258334Y634020D01*
X258319Y633945D01*
X258300Y633870D01*
X258277Y633796D01*
X258251Y633723D01*
X258221Y633652D01*
X258187Y633582D01*
X258150Y633514D01*
X258110Y633448D01*
X258066Y633384D01*
X258019Y633322D01*
X257970Y633263D01*
X257917Y633206D01*
X257862Y633152D01*
X257804Y633101D01*
X257743Y633053D01*
X257680Y633008D01*
X257615Y632966D01*
X257548Y632927D01*
X257479Y632892D01*
X257409Y632860D01*
X257337Y632832D01*
X257263Y632807D01*
X257189Y632786D01*
X257114Y632769D01*
X257037Y632755D01*
X256961Y632746D01*
X256883Y632740D01*
X256806Y632738D01*
X255254Y632738D01*
X257117Y632738D02*
X258358Y630254D01*
X262384Y630254D02*
X262454Y630256D01*
X262523Y630262D01*
X262592Y630272D01*
X262660Y630285D01*
X262728Y630303D01*
X262794Y630324D01*
X262859Y630349D01*
X262923Y630377D01*
X262985Y630409D01*
X263045Y630444D01*
X263103Y630483D01*
X263158Y630525D01*
X263212Y630570D01*
X263262Y630618D01*
X263310Y630668D01*
X263355Y630722D01*
X263397Y630777D01*
X263436Y630835D01*
X263471Y630895D01*
X263503Y630957D01*
X263531Y631021D01*
X263556Y631086D01*
X263577Y631152D01*
X263595Y631220D01*
X263608Y631288D01*
X263618Y631357D01*
X263624Y631426D01*
X263626Y631496D01*
X262384Y630254D02*
X262285Y630256D01*
X262187Y630261D01*
X262089Y630271D01*
X261991Y630284D01*
X261894Y630300D01*
X261797Y630320D01*
X261702Y630344D01*
X261607Y630372D01*
X261513Y630403D01*
X261421Y630437D01*
X261330Y630475D01*
X261240Y630516D01*
X261152Y630561D01*
X261066Y630609D01*
X260982Y630660D01*
X260900Y630714D01*
X260819Y630772D01*
X260741Y630832D01*
X260666Y630895D01*
X260592Y630961D01*
X260522Y631030D01*
X260676Y634600D02*
X260678Y634670D01*
X260684Y634739D01*
X260694Y634808D01*
X260707Y634876D01*
X260725Y634944D01*
X260746Y635010D01*
X260771Y635075D01*
X260799Y635139D01*
X260831Y635201D01*
X260866Y635261D01*
X260905Y635319D01*
X260947Y635374D01*
X260992Y635428D01*
X261040Y635478D01*
X261090Y635526D01*
X261144Y635571D01*
X261199Y635613D01*
X261257Y635652D01*
X261317Y635687D01*
X261379Y635719D01*
X261443Y635747D01*
X261508Y635772D01*
X261574Y635793D01*
X261642Y635811D01*
X261710Y635824D01*
X261779Y635834D01*
X261848Y635840D01*
X261918Y635842D01*
X262012Y635840D01*
X262105Y635834D01*
X262198Y635825D01*
X262291Y635812D01*
X262383Y635795D01*
X262474Y635775D01*
X262565Y635750D01*
X262654Y635723D01*
X262742Y635691D01*
X262829Y635656D01*
X262915Y635618D01*
X262998Y635576D01*
X263080Y635531D01*
X263161Y635483D01*
X263239Y635431D01*
X263315Y635376D01*
X261298Y633514D02*
X261239Y633550D01*
X261183Y633590D01*
X261129Y633633D01*
X261077Y633678D01*
X261028Y633727D01*
X260982Y633778D01*
X260939Y633831D01*
X260898Y633887D01*
X260861Y633945D01*
X260826Y634005D01*
X260796Y634066D01*
X260768Y634129D01*
X260744Y634194D01*
X260724Y634260D01*
X260707Y634327D01*
X260694Y634394D01*
X260685Y634462D01*
X260679Y634531D01*
X260677Y634600D01*
X263005Y632582D02*
X263064Y632546D01*
X263120Y632506D01*
X263174Y632463D01*
X263226Y632418D01*
X263275Y632369D01*
X263321Y632318D01*
X263364Y632265D01*
X263405Y632209D01*
X263442Y632151D01*
X263477Y632091D01*
X263507Y632030D01*
X263535Y631967D01*
X263559Y631902D01*
X263579Y631836D01*
X263596Y631769D01*
X263609Y631702D01*
X263618Y631634D01*
X263624Y631565D01*
X263626Y631496D01*
X263005Y632582D02*
X261298Y633514D01*
X267011Y635842D02*
X267011Y630254D01*
X265459Y635842D02*
X268564Y635842D01*
X255254Y655254D02*
X255254Y660842D01*
X256806Y660842D01*
X256883Y660840D01*
X256961Y660834D01*
X257037Y660825D01*
X257114Y660811D01*
X257189Y660794D01*
X257263Y660773D01*
X257337Y660748D01*
X257409Y660720D01*
X257479Y660688D01*
X257548Y660653D01*
X257615Y660614D01*
X257680Y660572D01*
X257743Y660527D01*
X257804Y660479D01*
X257862Y660428D01*
X257917Y660374D01*
X257970Y660317D01*
X258019Y660258D01*
X258066Y660196D01*
X258110Y660132D01*
X258150Y660066D01*
X258187Y659998D01*
X258221Y659928D01*
X258251Y659857D01*
X258277Y659784D01*
X258300Y659710D01*
X258319Y659635D01*
X258334Y659560D01*
X258346Y659483D01*
X258354Y659406D01*
X258358Y659329D01*
X258358Y659251D01*
X258354Y659174D01*
X258346Y659097D01*
X258334Y659020D01*
X258319Y658945D01*
X258300Y658870D01*
X258277Y658796D01*
X258251Y658723D01*
X258221Y658652D01*
X258187Y658582D01*
X258150Y658514D01*
X258110Y658448D01*
X258066Y658384D01*
X258019Y658322D01*
X257970Y658263D01*
X257917Y658206D01*
X257862Y658152D01*
X257804Y658101D01*
X257743Y658053D01*
X257680Y658008D01*
X257615Y657966D01*
X257548Y657927D01*
X257479Y657892D01*
X257409Y657860D01*
X257337Y657832D01*
X257263Y657807D01*
X257189Y657786D01*
X257114Y657769D01*
X257037Y657755D01*
X256961Y657746D01*
X256883Y657740D01*
X256806Y657738D01*
X255254Y657738D01*
X257117Y657738D02*
X258358Y655254D01*
X260394Y655254D02*
X264119Y660842D01*
X260394Y660842D02*
X264119Y655254D01*
X256806Y680254D02*
X256806Y685842D01*
X255254Y685842D02*
X258358Y685842D01*
X263790Y685842D02*
X260064Y680254D01*
X263790Y680254D02*
X260064Y685842D01*
X255254Y705254D02*
X255254Y710842D01*
X256806Y710842D01*
X256883Y710840D01*
X256961Y710834D01*
X257037Y710825D01*
X257114Y710811D01*
X257189Y710794D01*
X257263Y710773D01*
X257337Y710748D01*
X257409Y710720D01*
X257479Y710688D01*
X257548Y710653D01*
X257615Y710614D01*
X257680Y710572D01*
X257743Y710527D01*
X257804Y710479D01*
X257862Y710428D01*
X257917Y710374D01*
X257970Y710317D01*
X258019Y710258D01*
X258066Y710196D01*
X258110Y710132D01*
X258150Y710066D01*
X258187Y709998D01*
X258221Y709928D01*
X258251Y709857D01*
X258277Y709784D01*
X258300Y709710D01*
X258319Y709635D01*
X258334Y709560D01*
X258346Y709483D01*
X258354Y709406D01*
X258358Y709329D01*
X258358Y709251D01*
X258354Y709174D01*
X258346Y709097D01*
X258334Y709020D01*
X258319Y708945D01*
X258300Y708870D01*
X258277Y708796D01*
X258251Y708723D01*
X258221Y708652D01*
X258187Y708582D01*
X258150Y708514D01*
X258110Y708448D01*
X258066Y708384D01*
X258019Y708322D01*
X257970Y708263D01*
X257917Y708206D01*
X257862Y708152D01*
X257804Y708101D01*
X257743Y708053D01*
X257680Y708008D01*
X257615Y707966D01*
X257548Y707927D01*
X257479Y707892D01*
X257409Y707860D01*
X257337Y707832D01*
X257263Y707807D01*
X257189Y707786D01*
X257114Y707769D01*
X257037Y707755D01*
X256961Y707746D01*
X256883Y707740D01*
X256806Y707738D01*
X255254Y707738D01*
X257117Y707738D02*
X258358Y705254D01*
X260394Y705254D02*
X262257Y710842D01*
X264119Y705254D01*
X263654Y706651D02*
X260860Y706651D01*
X267233Y705254D02*
X265991Y710842D01*
X268474Y708979D02*
X267233Y705254D01*
X269716Y705254D02*
X268474Y708979D01*
X270958Y710842D02*
X269716Y705254D01*
X257117Y730254D02*
X255254Y735842D01*
X258979Y735842D02*
X257117Y730254D01*
X262276Y730254D02*
X263518Y730254D01*
X262276Y730254D02*
X262206Y730256D01*
X262137Y730262D01*
X262068Y730272D01*
X262000Y730285D01*
X261932Y730303D01*
X261866Y730324D01*
X261801Y730349D01*
X261737Y730377D01*
X261675Y730409D01*
X261615Y730444D01*
X261557Y730483D01*
X261502Y730525D01*
X261448Y730570D01*
X261398Y730618D01*
X261350Y730668D01*
X261305Y730722D01*
X261263Y730777D01*
X261224Y730835D01*
X261189Y730895D01*
X261157Y730957D01*
X261129Y731021D01*
X261104Y731086D01*
X261083Y731152D01*
X261065Y731220D01*
X261052Y731288D01*
X261042Y731357D01*
X261036Y731426D01*
X261034Y731496D01*
X261035Y731496D02*
X261035Y734600D01*
X261034Y734600D02*
X261036Y734670D01*
X261042Y734739D01*
X261052Y734808D01*
X261065Y734876D01*
X261083Y734944D01*
X261104Y735010D01*
X261129Y735075D01*
X261157Y735139D01*
X261189Y735201D01*
X261224Y735261D01*
X261263Y735319D01*
X261305Y735374D01*
X261350Y735428D01*
X261398Y735478D01*
X261448Y735526D01*
X261502Y735571D01*
X261557Y735613D01*
X261615Y735652D01*
X261675Y735687D01*
X261737Y735719D01*
X261801Y735747D01*
X261866Y735772D01*
X261932Y735793D01*
X262000Y735811D01*
X262068Y735824D01*
X262137Y735834D01*
X262206Y735840D01*
X262276Y735842D01*
X263518Y735842D01*
X266848Y730254D02*
X268090Y730254D01*
X266848Y730254D02*
X266778Y730256D01*
X266709Y730262D01*
X266640Y730272D01*
X266572Y730285D01*
X266504Y730303D01*
X266438Y730324D01*
X266373Y730349D01*
X266309Y730377D01*
X266247Y730409D01*
X266187Y730444D01*
X266129Y730483D01*
X266074Y730525D01*
X266020Y730570D01*
X265970Y730618D01*
X265922Y730668D01*
X265877Y730722D01*
X265835Y730777D01*
X265796Y730835D01*
X265761Y730895D01*
X265729Y730957D01*
X265701Y731021D01*
X265676Y731086D01*
X265655Y731152D01*
X265637Y731220D01*
X265624Y731288D01*
X265614Y731357D01*
X265608Y731426D01*
X265606Y731496D01*
X265606Y734600D01*
X265608Y734670D01*
X265614Y734739D01*
X265624Y734808D01*
X265637Y734876D01*
X265655Y734944D01*
X265676Y735010D01*
X265701Y735075D01*
X265729Y735139D01*
X265761Y735201D01*
X265796Y735261D01*
X265835Y735319D01*
X265877Y735374D01*
X265922Y735428D01*
X265970Y735478D01*
X266020Y735526D01*
X266074Y735571D01*
X266129Y735613D01*
X266187Y735652D01*
X266247Y735687D01*
X266309Y735719D01*
X266373Y735747D01*
X266438Y735772D01*
X266504Y735793D01*
X266572Y735811D01*
X266640Y735824D01*
X266709Y735834D01*
X266778Y735840D01*
X266848Y735842D01*
X268090Y735842D01*
D11*
X296350Y724300D02*
X302700Y730650D01*
X302700Y743350D01*
X296350Y749700D01*
X283650Y749700D02*
X277300Y743350D01*
X277300Y730650D01*
X283650Y724300D01*
X302700Y692550D02*
X302700Y679850D01*
X302700Y692550D02*
X296350Y698900D01*
X283650Y698900D02*
X277300Y692550D01*
X296350Y698900D02*
X302700Y705250D01*
X302700Y717950D01*
X296350Y724300D01*
X283650Y724300D02*
X277300Y717950D01*
X277300Y705250D01*
X283650Y698900D01*
X302700Y654450D02*
X296350Y648100D01*
X302700Y654450D02*
X302700Y667150D01*
X296350Y673500D01*
X283650Y673500D02*
X277300Y667150D01*
X277300Y654450D01*
X283650Y648100D01*
X296350Y673500D02*
X302700Y679850D01*
X283650Y673500D02*
X277300Y679850D01*
X277300Y692550D01*
X302700Y616350D02*
X302700Y603650D01*
X302700Y616350D02*
X296350Y622700D01*
X283650Y622700D02*
X277300Y616350D01*
X296350Y622700D02*
X302700Y629050D01*
X302700Y641750D01*
X296350Y648100D01*
X283650Y648100D02*
X277300Y641750D01*
X277300Y629050D01*
X283650Y622700D01*
X283650Y597300D02*
X296350Y597300D01*
X302700Y603650D01*
X283650Y597300D02*
X277300Y603650D01*
X277300Y616350D01*
X283650Y749700D02*
X296350Y749700D01*
D12*
X305677Y599544D02*
X309431Y599544D01*
X305677Y599543D02*
X305612Y599541D01*
X305548Y599535D01*
X305484Y599525D01*
X305420Y599512D01*
X305358Y599494D01*
X305297Y599473D01*
X305237Y599449D01*
X305179Y599420D01*
X305122Y599388D01*
X305068Y599353D01*
X305016Y599315D01*
X304966Y599273D01*
X304919Y599229D01*
X304875Y599182D01*
X304833Y599132D01*
X304795Y599080D01*
X304760Y599026D01*
X304728Y598969D01*
X304699Y598911D01*
X304675Y598851D01*
X304654Y598790D01*
X304636Y598728D01*
X304623Y598664D01*
X304613Y598600D01*
X304607Y598536D01*
X304605Y598471D01*
X304605Y597935D01*
X308359Y602492D02*
X309431Y603832D01*
X304605Y603832D01*
X304605Y602492D02*
X304605Y605173D01*
M02*
